  0
SECTION
  2
HEADER
  9
$ACADVER
  1
AC1014
  9
$ACADMAINTVER
 70
     9
  9
$DWGCODEPAGE
  3
ANSI_1254
  9
$INSBASE
 10
0.0
 20
0.0
 30
0.0
  9
$EXTMIN
 10
1.000000000000000E+20
 20
1.000000000000000E+20
 30
1.000000000000000E+20
  9
$EXTMAX
 10
-1.000000000000000E+20
 20
-1.000000000000000E+20
 30
-1.000000000000000E+20
  9
$LIMMIN
 10
-59.70395222
 20
-16.11329518
  9
$LIMMAX
 10
31.7736474
 20
46.2427447
  9
$ORTHOMODE
 70
     0
  9
$REGENMODE
 70
     1
  9
$FILLMODE
 70
     1
  9
$QTEXTMODE
 70
     0
  9
$MIRRTEXT
 70
     1
  9
$DRAGMODE
 70
     2
  9
$LTSCALE
 40
1.0
  9
$OSMODE
 70
    37
  9
$ATTMODE
 70
     1
  9
$TEXTSIZE
 40
2.5
  9
$TRACEWID
 40
1.0
  9
$TEXTSTYLE
  7
STANDARD
  9
$CLAYER
  8
0
  9
$CELTYPE
  6
BYLAYER
  9
$CECOLOR
 62
   256
  9
$CELTSCALE
 40
1.0
  9
$DELOBJ
 70
     1
  9
$DISPSILH
 70
     0
  9
$DIMSCALE
 40
1.0
  9
$DIMASZ
 40
2.5
  9
$DIMEXO
 40
0.625
  9
$DIMDLI
 40
3.75
  9
$DIMRND
 40
0.0
  9
$DIMDLE
 40
0.0
  9
$DIMEXE
 40
1.25
  9
$DIMTP
 40
0.0
  9
$DIMTM
 40
0.0
  9
$DIMTXT
 40
2.5
  9
$DIMCEN
 40
2.5
  9
$DIMTSZ
 40
0.0
  9
$DIMTOL
 70
     0
  9
$DIMLIM
 70
     0
  9
$DIMTIH
 70
     0
  9
$DIMTOH
 70
     0
  9
$DIMSE1
 70
     0
  9
$DIMSE2
 70
     0
  9
$DIMTAD
 70
     1
  9
$DIMZIN
 70
     8
  9
$DIMBLK
  1

  9
$DIMASO
 70
     1
  9
$DIMSHO
 70
     1
  9
$DIMPOST
  1

  9
$DIMAPOST
  1

  9
$DIMALT
 70
     0
  9
$DIMALTD
 70
     3
  9
$DIMALTF
 40
0.03937007874016
  9
$DIMLFAC
 40
1.0
  9
$DIMTOFL
 70
     1
  9
$DIMTVP
 40
0.0
  9
$DIMTIX
 70
     0
  9
$DIMSOXD
 70
     0
  9
$DIMSAH
 70
     0
  9
$DIMBLK1
  1

  9
$DIMBLK2
  1

  9
$DIMSTYLE
  2
ISO-25
  9
$DIMCLRD
 70
     0
  9
$DIMCLRE
 70
     0
  9
$DIMCLRT
 70
     0
  9
$DIMTFAC
 40
1.0
  9
$DIMGAP
 40
0.625
  9
$DIMJUST
 70
     0
  9
$DIMSD1
 70
     0
  9
$DIMSD2
 70
     0
  9
$DIMTOLJ
 70
     0
  9
$DIMTZIN
 70
     8
  9
$DIMALTZ
 70
     0
  9
$DIMALTTZ
 70
     0
  9
$DIMFIT
 70
     3
  9
$DIMUPT
 70
     0
  9
$DIMUNIT
 70
     2
  9
$DIMDEC
 70
     2
  9
$DIMTDEC
 70
     2
  9
$DIMALTU
 70
     2
  9
$DIMALTTD
 70
     3
  9
$DIMTXSTY
  7
STANDARD
  9
$DIMAUNIT
 70
     0
  9
$LUNITS
 70
     2
  9
$LUPREC
 70
     4
  9
$SKETCHINC
 40
1.0
  9
$FILLETRAD
 40
10.0
  9
$AUNITS
 70
     0
  9
$AUPREC
 70
     0
  9
$MENU
  1
.
  9
$ELEVATION
 40
0.0
  9
$PELEVATION
 40
0.0
  9
$THICKNESS
 40
0.0
  9
$LIMCHECK
 70
     0
  9
$CHAMFERA
 40
0.0
  9
$CHAMFERB
 40
0.0
  9
$CHAMFERC
 40
0.0
  9
$CHAMFERD
 40
0.0
  9
$SKPOLY
 70
     0
  9
$TDCREATE
 40
2458953.805755035
  9
$TDUPDATE
 40
2458953.805756621
  9
$TDINDWG
 40
0.0000000116
  9
$TDUSRTIMER
 40
0.0000000116
  9
$USRTIMER
 70
     1
  9
$ANGBASE
 50
0.0
  9
$ANGDIR
 70
     0
  9
$PDMODE
 70
     0
  9
$PDSIZE
 40
0.0
  9
$PLINEWID
 40
0.0
  9
$COORDS
 70
     1
  9
$SPLFRAME
 70
     0
  9
$SPLINETYPE
 70
     6
  9
$SPLINESEGS
 70
     8
  9
$ATTDIA
 70
     0
  9
$ATTREQ
 70
     1
  9
$HANDLING
 70
     1
  9
$HANDSEED
  5
47E
  9
$SURFTAB1
 70
     6
  9
$SURFTAB2
 70
     6
  9
$SURFTYPE
 70
     6
  9
$SURFU
 70
     6
  9
$SURFV
 70
     6
  9
$UCSNAME
  2

  9
$UCSORG
 10
0.0
 20
0.0
 30
0.0
  9
$UCSXDIR
 10
1.0
 20
0.0
 30
0.0
  9
$UCSYDIR
 10
0.0
 20
1.0
 30
0.0
  9
$PUCSNAME
  2

  9
$PUCSORG
 10
0.0
 20
0.0
 30
0.0
  9
$PUCSXDIR
 10
1.0
 20
0.0
 30
0.0
  9
$PUCSYDIR
 10
0.0
 20
1.0
 30
0.0
  9
$USERI1
 70
     0
  9
$USERI2
 70
     0
  9
$USERI3
 70
     0
  9
$USERI4
 70
     0
  9
$USERI5
 70
     0
  9
$USERR1
 40
0.0
  9
$USERR2
 40
0.0
  9
$USERR3
 40
0.0
  9
$USERR4
 40
0.0
  9
$USERR5
 40
0.0
  9
$WORLDVIEW
 70
     1
  9
$SHADEDGE
 70
     3
  9
$SHADEDIF
 70
    70
  9
$TILEMODE
 70
     1
  9
$MAXACTVP
 70
    64
  9
$PINSBASE
 10
0.0
 20
0.0
 30
0.0
  9
$PLIMCHECK
 70
     0
  9
$PEXTMIN
 10
1.000000000000000E+20
 20
1.000000000000000E+20
 30
1.000000000000000E+20
  9
$PEXTMAX
 10
-1.000000000000000E+20
 20
-1.000000000000000E+20
 30
-1.000000000000000E+20
  9
$PLIMMIN
 10
0.0
 20
0.0
  9
$PLIMMAX
 10
420.0
 20
297.0
  9
$UNITMODE
 70
     0
  9
$VISRETAIN
 70
     1
  9
$PLINEGEN
 70
     0
  9
$PSLTSCALE
 70
     1
  9
$TREEDEPTH
 70
  3020
  9
$PICKSTYLE
 70
     1
  9
$CMLSTYLE
  2
STANDARD
  9
$CMLJUST
 70
     0
  9
$CMLSCALE
 40
20.0
  9
$PROXYGRAPHICS
 70
     1
  9
$MEASUREMENT
 70
     1
  0
ENDSEC
  0
SECTION
  2
CLASSES
  0
CLASS
  1
ACDBDICTIONARYWDFLT
  2
AcDbDictionaryWithDefault
  3
ObjectDBX Classes
 90
        0
280
     0
281
     0
  0
CLASS
  1
VISUALSTYLE
  2
AcDbVisualStyle
  3
ObjectDBX Classes
 90
     4095
280
     0
281
     0
  0
CLASS
  1
MATERIAL
  2
AcDbMaterial
  3
ObjectDBX Classes
 90
     1153
280
     0
281
     0
  0
CLASS
  1
SCALE
  2
AcDbScale
  3
ObjectDBX Classes
 90
     1153
280
     0
281
     0
  0
CLASS
  1
TABLESTYLE
  2
AcDbTableStyle
  3
ObjectDBX Classes
 90
     4095
280
     0
281
     0
  0
CLASS
  1
MLEADERSTYLE
  2
AcDbMLeaderStyle
  3
ACDB_MLEADERSTYLE_CLASS
 90
     4095
280
     0
281
     0
  0
CLASS
  1
SUN
  2
AcDbSun
  3
SCENEOE
 90
     1153
280
     0
281
     0
  0
CLASS
  1
DICTIONARYVAR
  2
AcDbDictionaryVar
  3
ObjectDBX Classes
 90
        0
280
     0
281
     0
  0
CLASS
  1
XRECORD
  2
AcDbXrecord
  3
ObjectDBX Classes
 90
        0
280
     0
281
     0
  0
CLASS
  1
LWPOLYLINE
  2
AcDbPolyline
  3
ObjectDBX Classes
 90
        0
280
     0
281
     1
  0
CLASS
  1
HATCH
  2
AcDbHatch
  3
ObjectDBX Classes
 90
        0
280
     0
281
     1
  0
CLASS
  1
ACDBPLACEHOLDER
  2
AcDbPlaceHolder
  3
ObjectDBX Classes
 90
        0
280
     0
281
     0
  0
CLASS
  1
LAYOUT
  2
AcDbLayout
  3
ObjectDBX Classes
 90
        0
280
     0
281
     0
  0
ENDSEC
  0
SECTION
  2
TABLES
  0
TABLE
  2
VPORT
  5
8
102
{ACAD_XDICTIONARY
360
473
102
}
330
0
100
AcDbSymbolTable
 70
     1
  0
VPORT
  5
29
330
8
100
AcDbSymbolTableRecord
100
AcDbViewportTableRecord
  2
*ACTIVE
 70
     0
 10
0.0
 20
0.0
 11
1.0
 21
1.0
 12
344.1869158878504
 22
148.5
 13
0.0
 23
0.0
 14
10.0
 24
10.0
 15
10.0
 25
10.0
 16
0.0
 26
0.0
 36
1.0
 17
0.0
 27
0.0
 37
0.0
 40
297.0
 41
1.972972972850329
 42
50.0
 43
0.0
 44
0.0
 50
0.0
 51
0.0
 71
     0
 72
   100
 73
     1
 74
     3
 75
     0
 76
     0
 77
     0
 78
     0
  0
ENDTAB
  0
TABLE
  2
LTYPE
  5
5
330
0
100
AcDbSymbolTable
 70
     1
  0
LTYPE
  5
14
330
5
100
AcDbSymbolTableRecord
100
AcDbLinetypeTableRecord
  2
BYBLOCK
 70
     0
  3

 72
    65
 73
     0
 40
0.0
  0
LTYPE
  5
15
330
5
100
AcDbSymbolTableRecord
100
AcDbLinetypeTableRecord
  2
BYLAYER
 70
     0
  3

 72
    65
 73
     0
 40
0.0
  0
LTYPE
  5
16
330
5
100
AcDbSymbolTableRecord
100
AcDbLinetypeTableRecord
  2
CONTINUOUS
 70
     0
  3
Solid line
 72
    65
 73
     0
 40
0.0
  0
ENDTAB
  0
TABLE
  2
LAYER
  5
2
330
0
100
AcDbSymbolTable
 70
     4
  0
LAYER
  5
10
330
2
100
AcDbSymbolTableRecord
100
AcDbLayerTableRecord
  2
0
 70
     0
 62
     7
  6
CONTINUOUS
  0
LAYER
  5
6E
330
2
100
AcDbSymbolTableRecord
100
AcDbLayerTableRecord
  2
TOPPASTE
 70
     0
 62
     8
  6
CONTINUOUS
  0
LAYER
  5
6F
330
2
100
AcDbSymbolTableRecord
100
AcDbLayerTableRecord
  2
PADHOLELAYER
 70
     0
 62
   156
  6
CONTINUOUS
  0
LAYER
  5
70
330
2
100
AcDbSymbolTableRecord
100
AcDbLayerTableRecord
  2
VIAHOLELAYER
 70
     0
 62
    16
  6
CONTINUOUS
  0
ENDTAB
  0
TABLE
  2
STYLE
  5
3
330
0
100
AcDbSymbolTable
 70
     1
  0
STYLE
  5
11
330
3
100
AcDbSymbolTableRecord
100
AcDbTextStyleTableRecord
  2
STANDARD
 70
     0
 40
0.0
 41
1.0
 50
0.0
 71
     0
 42
2.5
  3
txt
  4

  0
ENDTAB
  0
TABLE
  2
VIEW
  5
6
330
0
100
AcDbSymbolTable
 70
     0
  0
ENDTAB
  0
TABLE
  2
UCS
  5
7
330
0
100
AcDbSymbolTable
 70
     0
  0
ENDTAB
  0
TABLE
  2
APPID
  5
9
330
0
100
AcDbSymbolTable
 70
     2
  0
APPID
  5
12
330
9
100
AcDbSymbolTableRecord
100
AcDbRegAppTableRecord
  2
ACAD
 70
     0
  0
APPID
  5
47D
330
9
100
AcDbSymbolTableRecord
100
AcDbRegAppTableRecord
  2
ACAD_MLEADERVER
 70
     0
  0
ENDTAB
  0
TABLE
  2
DIMSTYLE
  5
A
330
0
100
AcDbSymbolTable
 70
     1
  0
DIMSTYLE
105
27
330
A
100
AcDbSymbolTableRecord
100
AcDbDimStyleTableRecord
  2
ISO-25
 70
     0
  3

  4

  5

  6

  7

 40
1.0
 41
2.5
 42
0.625
 43
3.75
 44
1.25
 45
0.0
 46
0.0
 47
0.0
 48
0.0
140
2.5
141
2.5
142
0.0
143
0.03937007874016
144
1.0
145
0.0
146
1.0
147
0.625
 71
     0
 72
     0
 73
     0
 74
     0
 75
     0
 76
     0
 77
     1
 78
     8
170
     0
171
     3
172
     1
173
     0
174
     0
175
     0
176
     0
177
     0
178
     0
270
     2
271
     2
272
     2
273
     2
274
     3
340
11
275
     0
280
     0
281
     0
282
     0
283
     0
284
     8
285
     0
286
     0
287
     3
288
     0
  0
ENDTAB
  0
TABLE
  2
BLOCK_RECORD
  5
1
330
0
100
AcDbSymbolTable
 70
    34
  0
BLOCK_RECORD
  5
1F
330
1
100
AcDbSymbolTableRecord
100
AcDbBlockTableRecord
  2
*MODEL_SPACE
  0
BLOCK_RECORD
  5
1B
330
1
100
AcDbSymbolTableRecord
100
AcDbBlockTableRecord
  2
*PAPER_SPACE
  0
BLOCK_RECORD
  5
ED
330
1
100
AcDbSymbolTableRecord
100
AcDbBlockTableRecord
  2
RES_0603_1608_1
  0
BLOCK_RECORD
  5
F9
330
1
100
AcDbSymbolTableRecord
100
AcDbBlockTableRecord
  2
RES_0603_1608_2
  0
BLOCK_RECORD
  5
105
330
1
100
AcDbSymbolTableRecord
100
AcDbBlockTableRecord
  2
RES_0603_1608_3
  0
BLOCK_RECORD
  5
111
330
1
100
AcDbSymbolTableRecord
100
AcDbBlockTableRecord
  2
FM_B2020RGBA_HG_4
  0
BLOCK_RECORD
  5
125
330
1
100
AcDbSymbolTableRecord
100
AcDbBlockTableRecord
  2
SKSGACE010_5
  0
BLOCK_RECORD
  5
141
330
1
100
AcDbSymbolTableRecord
100
AcDbBlockTableRecord
  2
TI_SOT_23_5_DBV_6
  0
BLOCK_RECORD
  5
159
330
1
100
AcDbSymbolTableRecord
100
AcDbBlockTableRecord
  2
CAP_0603_1608_7
  0
BLOCK_RECORD
  5
165
330
1
100
AcDbSymbolTableRecord
100
AcDbBlockTableRecord
  2
CAP_0603_1608_8
  0
BLOCK_RECORD
  5
171
330
1
100
AcDbSymbolTableRecord
100
AcDbBlockTableRecord
  2
CAP_0603_1608_9
  0
BLOCK_RECORD
  5
17D
330
1
100
AcDbSymbolTableRecord
100
AcDbBlockTableRecord
  2
CAP_0603_1608_10
  0
BLOCK_RECORD
  5
189
330
1
100
AcDbSymbolTableRecord
100
AcDbBlockTableRecord
  2
CAP_0603_1608_11
  0
BLOCK_RECORD
  5
195
330
1
100
AcDbSymbolTableRecord
100
AcDbBlockTableRecord
  2
CAP_0603_1608_12
  0
BLOCK_RECORD
  5
1A1
330
1
100
AcDbSymbolTableRecord
100
AcDbBlockTableRecord
  2
CAP_0603_1608_13
  0
BLOCK_RECORD
  5
1AD
330
1
100
AcDbSymbolTableRecord
100
AcDbBlockTableRecord
  2
CAP_0603_1608_14
  0
BLOCK_RECORD
  5
1B9
330
1
100
AcDbSymbolTableRecord
100
AcDbBlockTableRecord
  2
SOT143B_15
  0
BLOCK_RECORD
  5
1CD
330
1
100
AcDbSymbolTableRecord
100
AcDbBlockTableRecord
  2
ABRACON_ABS07_16
  0
BLOCK_RECORD
  5
1D9
330
1
100
AcDbSymbolTableRecord
100
AcDbBlockTableRecord
  2
SI_LABS_QFN_64_17
  0
BLOCK_RECORD
  5
2E1
330
1
100
AcDbSymbolTableRecord
100
AcDbBlockTableRecord
  2
RES_0603_1608_18
  0
BLOCK_RECORD
  5
2ED
330
1
100
AcDbSymbolTableRecord
100
AcDbBlockTableRecord
  2
RES_0603_1608_19
  0
BLOCK_RECORD
  5
2F9
330
1
100
AcDbSymbolTableRecord
100
AcDbBlockTableRecord
  2
RES_0603_1608_20
  0
BLOCK_RECORD
  5
305
330
1
100
AcDbSymbolTableRecord
100
AcDbBlockTableRecord
  2
RES_0603_1608_21
  0
BLOCK_RECORD
  5
311
330
1
100
AcDbSymbolTableRecord
100
AcDbBlockTableRecord
  2
RES_0603_1608_22
  0
BLOCK_RECORD
  5
31D
330
1
100
AcDbSymbolTableRecord
100
AcDbBlockTableRecord
  2
HDR2X5_23
  0
BLOCK_RECORD
  5
32B
330
1
100
AcDbSymbolTableRecord
100
AcDbBlockTableRecord
  2
HDR1X16_24
  0
BLOCK_RECORD
  5
33F
330
1
100
AcDbSymbolTableRecord
100
AcDbBlockTableRecord
  2
HDR1X12_25
  0
BLOCK_RECORD
  5
34F
330
1
100
AcDbSymbolTableRecord
100
AcDbBlockTableRecord
  2
FTSH_105_01_F_DV_K_TR_26
  0
BLOCK_RECORD
  5
37B
330
1
100
AcDbSymbolTableRecord
100
AcDbBlockTableRecord
  2
IND_W_____74404020100_27
  0
BLOCK_RECORD
  5
387
330
1
100
AcDbSymbolTableRecord
100
AcDbBlockTableRecord
  2
USB4110_GF_A_28
  0
BLOCK_RECORD
  5
3CD
330
1
100
AcDbSymbolTableRecord
100
AcDbBlockTableRecord
  2
SPANSION_WSON_8_6_5MM_29
  0
BLOCK_RECORD
  5
419
330
1
100
AcDbSymbolTableRecord
100
AcDbBlockTableRecord
  2
CAP_0603_1608_30
  0
BLOCK_RECORD
  5
425
330
1
100
AcDbSymbolTableRecord
100
AcDbBlockTableRecord
  2
CAP_0603_1608_31
  0
BLOCK_RECORD
  5
431
330
1
100
AcDbSymbolTableRecord
100
AcDbBlockTableRecord
  2
CAP_0603_1608_32
  0
BLOCK_RECORD
  5
43D
330
1
100
AcDbSymbolTableRecord
100
AcDbBlockTableRecord
  2
CAP_0603_1608_33
  0
ENDTAB
  0
ENDSEC
  0
SECTION
  2
BLOCKS
  0
BLOCK
  5
20
330
1F
100
AcDbEntity
  8
0
100
AcDbBlockBegin
  2
*MODEL_SPACE
 70
     0
 10
0.0
 20
0.0
 30
0.0
  3
*MODEL_SPACE
  1

  0
ENDBLK
  5
21
330
1F
100
AcDbEntity
  8
0
100
AcDbBlockEnd
  0
BLOCK
  5
1C
330
1B
100
AcDbEntity
 67
     1
  8
0
100
AcDbBlockBegin
  2
*PAPER_SPACE
 70
     0
 10
0.0
 20
0.0
 30
0.0
  3
*PAPER_SPACE
  1

  0
ENDBLK
  5
1D
330
1B
100
AcDbEntity
 67
     1
  8
0
100
AcDbBlockEnd
  0
BLOCK
  5
EE
330
ED
100
AcDbEntity
  8
0
100
AcDbBlockBegin
  2
RES_0603_1608_1
 70
     0
 10
0.0
 20
0.0
 30
0.0
  3
RES_0603_1608_1
  1

  0
LINE
  5
F0
330
ED
100
AcDbEntity
  8
TOPPASTE
100
AcDbLine
 10
-0.9749993199999999
 20
-0.4499991
 30
0.0
 11
-0.37500052
 21
-0.4499991
 31
0.0
  0
LINE
  5
F1
330
ED
100
AcDbEntity
  8
TOPPASTE
100
AcDbLine
 10
-0.37500052
 20
-0.4499991
 30
0.0
 11
-0.37500052
 21
0.4499991
 31
0.0
  0
LINE
  5
F2
330
ED
100
AcDbEntity
  8
TOPPASTE
100
AcDbLine
 10
-0.37500052
 20
0.4499991
 30
0.0
 11
-0.9749993199999999
 21
0.4499991
 31
0.0
  0
LINE
  5
F3
330
ED
100
AcDbEntity
  8
TOPPASTE
100
AcDbLine
 10
-0.9749993199999999
 20
0.4499991
 30
0.0
 11
-0.9749993199999999
 21
-0.4499991
 31
0.0
  0
LINE
  5
F4
330
ED
100
AcDbEntity
  8
TOPPASTE
100
AcDbLine
 10
0.37500052
 20
-0.4499991
 30
0.0
 11
0.9749993199999999
 21
-0.4499991
 31
0.0
  0
LINE
  5
F5
330
ED
100
AcDbEntity
  8
TOPPASTE
100
AcDbLine
 10
0.9749993199999999
 20
-0.4499991
 30
0.0
 11
0.9749993199999999
 21
0.4499991
 31
0.0
  0
LINE
  5
F6
330
ED
100
AcDbEntity
  8
TOPPASTE
100
AcDbLine
 10
0.9749993199999999
 20
0.4499991
 30
0.0
 11
0.37500052
 21
0.4499991
 31
0.0
  0
LINE
  5
F7
330
ED
100
AcDbEntity
  8
TOPPASTE
100
AcDbLine
 10
0.37500052
 20
0.4499991
 30
0.0
 11
0.37500052
 21
-0.4499991
 31
0.0
  0
ENDBLK
  5
EF
330
ED
100
AcDbEntity
  8
0
100
AcDbBlockEnd
  0
BLOCK
  5
FA
330
F9
100
AcDbEntity
  8
0
100
AcDbBlockBegin
  2
RES_0603_1608_2
 70
     0
 10
0.0
 20
0.0
 30
0.0
  3
RES_0603_1608_2
  1

  0
LINE
  5
FC
330
F9
100
AcDbEntity
  8
TOPPASTE
100
AcDbLine
 10
-0.9749993199999999
 20
-0.4499991
 30
0.0
 11
-0.37500052
 21
-0.4499991
 31
0.0
  0
LINE
  5
FD
330
F9
100
AcDbEntity
  8
TOPPASTE
100
AcDbLine
 10
-0.37500052
 20
-0.4499991
 30
0.0
 11
-0.37500052
 21
0.4499991
 31
0.0
  0
LINE
  5
FE
330
F9
100
AcDbEntity
  8
TOPPASTE
100
AcDbLine
 10
-0.37500052
 20
0.4499991
 30
0.0
 11
-0.9749993199999999
 21
0.4499991
 31
0.0
  0
LINE
  5
FF
330
F9
100
AcDbEntity
  8
TOPPASTE
100
AcDbLine
 10
-0.9749993199999999
 20
0.4499991
 30
0.0
 11
-0.9749993199999999
 21
-0.4499991
 31
0.0
  0
LINE
  5
100
330
F9
100
AcDbEntity
  8
TOPPASTE
100
AcDbLine
 10
0.37500052
 20
-0.4499991
 30
0.0
 11
0.9749993199999999
 21
-0.4499991
 31
0.0
  0
LINE
  5
101
330
F9
100
AcDbEntity
  8
TOPPASTE
100
AcDbLine
 10
0.9749993199999999
 20
-0.4499991
 30
0.0
 11
0.9749993199999999
 21
0.4499991
 31
0.0
  0
LINE
  5
102
330
F9
100
AcDbEntity
  8
TOPPASTE
100
AcDbLine
 10
0.9749993199999999
 20
0.4499991
 30
0.0
 11
0.37500052
 21
0.4499991
 31
0.0
  0
LINE
  5
103
330
F9
100
AcDbEntity
  8
TOPPASTE
100
AcDbLine
 10
0.37500052
 20
0.4499991
 30
0.0
 11
0.37500052
 21
-0.4499991
 31
0.0
  0
ENDBLK
  5
FB
330
F9
100
AcDbEntity
  8
0
100
AcDbBlockEnd
  0
BLOCK
  5
106
330
105
100
AcDbEntity
  8
0
100
AcDbBlockBegin
  2
RES_0603_1608_3
 70
     0
 10
0.0
 20
0.0
 30
0.0
  3
RES_0603_1608_3
  1

  0
LINE
  5
108
330
105
100
AcDbEntity
  8
TOPPASTE
100
AcDbLine
 10
-0.9749993199999999
 20
-0.4499991
 30
0.0
 11
-0.37500052
 21
-0.4499991
 31
0.0
  0
LINE
  5
109
330
105
100
AcDbEntity
  8
TOPPASTE
100
AcDbLine
 10
-0.37500052
 20
-0.4499991
 30
0.0
 11
-0.37500052
 21
0.4499991
 31
0.0
  0
LINE
  5
10A
330
105
100
AcDbEntity
  8
TOPPASTE
100
AcDbLine
 10
-0.37500052
 20
0.4499991
 30
0.0
 11
-0.9749993199999999
 21
0.4499991
 31
0.0
  0
LINE
  5
10B
330
105
100
AcDbEntity
  8
TOPPASTE
100
AcDbLine
 10
-0.9749993199999999
 20
0.4499991
 30
0.0
 11
-0.9749993199999999
 21
-0.4499991
 31
0.0
  0
LINE
  5
10C
330
105
100
AcDbEntity
  8
TOPPASTE
100
AcDbLine
 10
0.37500052
 20
-0.4499991
 30
0.0
 11
0.9749993199999999
 21
-0.4499991
 31
0.0
  0
LINE
  5
10D
330
105
100
AcDbEntity
  8
TOPPASTE
100
AcDbLine
 10
0.9749993199999999
 20
-0.4499991
 30
0.0
 11
0.9749993199999999
 21
0.4499991
 31
0.0
  0
LINE
  5
10E
330
105
100
AcDbEntity
  8
TOPPASTE
100
AcDbLine
 10
0.9749993199999999
 20
0.4499991
 30
0.0
 11
0.37500052
 21
0.4499991
 31
0.0
  0
LINE
  5
10F
330
105
100
AcDbEntity
  8
TOPPASTE
100
AcDbLine
 10
0.37500052
 20
0.4499991
 30
0.0
 11
0.37500052
 21
-0.4499991
 31
0.0
  0
ENDBLK
  5
107
330
105
100
AcDbEntity
  8
0
100
AcDbBlockEnd
  0
BLOCK
  5
112
330
111
100
AcDbEntity
  8
0
100
AcDbBlockBegin
  2
FM_B2020RGBA_HG_4
 70
     0
 10
0.0
 20
0.0
 30
0.0
  3
FM_B2020RGBA_HG_4
  1

  0
LINE
  5
114
330
111
100
AcDbEntity
  8
TOPPASTE
100
AcDbLine
 10
-0.3999992
 20
0.75000104
 30
0.0
 11
0.3999992
 21
0.75000104
 31
0.0
  0
LINE
  5
115
330
111
100
AcDbEntity
  8
TOPPASTE
100
AcDbLine
 10
0.3999992
 20
0.75000104
 30
0.0
 11
0.3999992
 21
1.44999964
 31
0.0
  0
LINE
  5
116
330
111
100
AcDbEntity
  8
TOPPASTE
100
AcDbLine
 10
0.3999992
 20
1.44999964
 30
0.0
 11
-0.3999992
 21
1.44999964
 31
0.0
  0
LINE
  5
117
330
111
100
AcDbEntity
  8
TOPPASTE
100
AcDbLine
 10
-0.3999992
 20
1.44999964
 30
0.0
 11
-0.3999992
 21
0.75000104
 31
0.0
  0
LINE
  5
118
330
111
100
AcDbEntity
  8
TOPPASTE
100
AcDbLine
 10
-2.09999834
 20
0.75000104
 30
0.0
 11
-1.29999994
 21
0.75000104
 31
0.0
  0
LINE
  5
119
330
111
100
AcDbEntity
  8
TOPPASTE
100
AcDbLine
 10
-1.29999994
 20
0.75000104
 30
0.0
 11
-1.29999994
 21
1.44999964
 31
0.0
  0
LINE
  5
11A
330
111
100
AcDbEntity
  8
TOPPASTE
100
AcDbLine
 10
-1.29999994
 20
1.44999964
 30
0.0
 11
-2.09999834
 21
1.44999964
 31
0.0
  0
LINE
  5
11B
330
111
100
AcDbEntity
  8
TOPPASTE
100
AcDbLine
 10
-2.09999834
 20
1.44999964
 30
0.0
 11
-2.09999834
 21
0.75000104
 31
0.0
  0
LINE
  5
11C
330
111
100
AcDbEntity
  8
TOPPASTE
100
AcDbLine
 10
-2.09999834
 20
-0.3499993
 30
0.0
 11
-1.29999994
 21
-0.3499993
 31
0.0
  0
LINE
  5
11D
330
111
100
AcDbEntity
  8
TOPPASTE
100
AcDbLine
 10
-1.29999994
 20
-0.3499993
 30
0.0
 11
-1.29999994
 21
0.3499993
 31
0.0
  0
LINE
  5
11E
330
111
100
AcDbEntity
  8
TOPPASTE
100
AcDbLine
 10
-1.29999994
 20
0.3499993
 30
0.0
 11
-2.09999834
 21
0.3499993
 31
0.0
  0
LINE
  5
11F
330
111
100
AcDbEntity
  8
TOPPASTE
100
AcDbLine
 10
-2.09999834
 20
0.3499993
 30
0.0
 11
-2.09999834
 21
-0.3499993
 31
0.0
  0
LINE
  5
120
330
111
100
AcDbEntity
  8
TOPPASTE
100
AcDbLine
 10
-0.3999992
 20
-0.3499993
 30
0.0
 11
0.3999992
 21
-0.3499993
 31
0.0
  0
LINE
  5
121
330
111
100
AcDbEntity
  8
TOPPASTE
100
AcDbLine
 10
0.3999992
 20
-0.3499993
 30
0.0
 11
0.3999992
 21
0.3499993
 31
0.0
  0
LINE
  5
122
330
111
100
AcDbEntity
  8
TOPPASTE
100
AcDbLine
 10
0.3999992
 20
0.3499993
 30
0.0
 11
-0.3999992
 21
0.3499993
 31
0.0
  0
LINE
  5
123
330
111
100
AcDbEntity
  8
TOPPASTE
100
AcDbLine
 10
-0.3999992
 20
0.3499993
 30
0.0
 11
-0.3999992
 21
-0.3499993
 31
0.0
  0
ENDBLK
  5
113
330
111
100
AcDbEntity
  8
0
100
AcDbBlockEnd
  0
BLOCK
  5
126
330
125
100
AcDbEntity
  8
0
100
AcDbBlockBegin
  2
SKSGACE010_5
 70
     0
 10
0.0
 20
0.0
 30
0.0
  3
SKSGACE010_5
  1

  0
LINE
  5
128
330
125
100
AcDbEntity
  8
TOPPASTE
100
AcDbLine
 10
-1.86249818
 20
0.53749956
 30
0.0
 11
-1.2375007
 21
0.53749956
 31
0.0
  0
LINE
  5
129
330
125
100
AcDbEntity
  8
TOPPASTE
100
AcDbLine
 10
-1.2375007
 20
0.53749956
 30
0.0
 11
-1.2375007
 21
1.11249968
 31
0.0
  0
LINE
  5
12A
330
125
100
AcDbEntity
  8
TOPPASTE
100
AcDbLine
 10
-1.2375007
 20
1.11249968
 30
0.0
 11
-1.86249818
 21
1.11249968
 31
0.0
  0
LINE
  5
12B
330
125
100
AcDbEntity
  8
TOPPASTE
100
AcDbLine
 10
-1.86249818
 20
1.11249968
 30
0.0
 11
-1.86249818
 21
0.53749956
 31
0.0
  0
LINE
  5
12C
330
125
100
AcDbEntity
  8
TOPPASTE
100
AcDbLine
 10
-1.86249818
 20
-1.11249968
 30
0.0
 11
-1.2375007
 21
-1.11249968
 31
0.0
  0
LINE
  5
12D
330
125
100
AcDbEntity
  8
TOPPASTE
100
AcDbLine
 10
-1.2375007
 20
-1.11249968
 30
0.0
 11
-1.2375007
 21
-0.53749956
 31
0.0
  0
LINE
  5
12E
330
125
100
AcDbEntity
  8
TOPPASTE
100
AcDbLine
 10
-1.2375007
 20
-0.53749956
 30
0.0
 11
-1.86249818
 21
-0.53749956
 31
0.0
  0
LINE
  5
12F
330
125
100
AcDbEntity
  8
TOPPASTE
100
AcDbLine
 10
-1.86249818
 20
-0.53749956
 30
0.0
 11
-1.86249818
 21
-1.11249968
 31
0.0
  0
LINE
  5
130
330
125
100
AcDbEntity
  8
TOPPASTE
100
AcDbLine
 10
1.2375007
 20
0.53749956
 30
0.0
 11
1.86249818
 21
0.53749956
 31
0.0
  0
LINE
  5
131
330
125
100
AcDbEntity
  8
TOPPASTE
100
AcDbLine
 10
1.86249818
 20
0.53749956
 30
0.0
 11
1.86249818
 21
1.11249968
 31
0.0
  0
LINE
  5
132
330
125
100
AcDbEntity
  8
TOPPASTE
100
AcDbLine
 10
1.86249818
 20
1.11249968
 30
0.0
 11
1.2375007
 21
1.11249968
 31
0.0
  0
LINE
  5
133
330
125
100
AcDbEntity
  8
TOPPASTE
100
AcDbLine
 10
1.2375007
 20
1.11249968
 30
0.0
 11
1.2375007
 21
0.53749956
 31
0.0
  0
LINE
  5
134
330
125
100
AcDbEntity
  8
TOPPASTE
100
AcDbLine
 10
1.2375007
 20
-1.11249968
 30
0.0
 11
1.86249818
 21
-1.11249968
 31
0.0
  0
LINE
  5
135
330
125
100
AcDbEntity
  8
TOPPASTE
100
AcDbLine
 10
1.86249818
 20
-1.11249968
 30
0.0
 11
1.86249818
 21
-0.53749956
 31
0.0
  0
LINE
  5
136
330
125
100
AcDbEntity
  8
TOPPASTE
100
AcDbLine
 10
1.86249818
 20
-0.53749956
 30
0.0
 11
1.2375007
 21
-0.53749956
 31
0.0
  0
LINE
  5
137
330
125
100
AcDbEntity
  8
TOPPASTE
100
AcDbLine
 10
1.2375007
 20
-0.53749956
 30
0.0
 11
1.2375007
 21
-1.11249968
 31
0.0
  0
LINE
  5
138
330
125
100
AcDbEntity
  8
TOPPASTE
100
AcDbLine
 10
-1.86249818
 20
-0.3499993
 30
0.0
 11
-1.46249898
 21
-0.3499993
 31
0.0
  0
LINE
  5
139
330
125
100
AcDbEntity
  8
TOPPASTE
100
AcDbLine
 10
-1.46249898
 20
-0.3499993
 30
0.0
 11
-1.46249898
 21
0.3499993
 31
0.0
  0
LINE
  5
13A
330
125
100
AcDbEntity
  8
TOPPASTE
100
AcDbLine
 10
-1.46249898
 20
0.3499993
 30
0.0
 11
-1.86249818
 21
0.3499993
 31
0.0
  0
LINE
  5
13B
330
125
100
AcDbEntity
  8
TOPPASTE
100
AcDbLine
 10
-1.86249818
 20
0.3499993
 30
0.0
 11
-1.86249818
 21
-0.3499993
 31
0.0
  0
LINE
  5
13C
330
125
100
AcDbEntity
  8
TOPPASTE
100
AcDbLine
 10
1.46249898
 20
-0.3499993
 30
0.0
 11
1.86249818
 21
-0.3499993
 31
0.0
  0
LINE
  5
13D
330
125
100
AcDbEntity
  8
TOPPASTE
100
AcDbLine
 10
1.86249818
 20
-0.3499993
 30
0.0
 11
1.86249818
 21
0.3499993
 31
0.0
  0
LINE
  5
13E
330
125
100
AcDbEntity
  8
TOPPASTE
100
AcDbLine
 10
1.86249818
 20
0.3499993
 30
0.0
 11
1.46249898
 21
0.3499993
 31
0.0
  0
LINE
  5
13F
330
125
100
AcDbEntity
  8
TOPPASTE
100
AcDbLine
 10
1.46249898
 20
0.3499993
 30
0.0
 11
1.46249898
 21
-0.3499993
 31
0.0
  0
ENDBLK
  5
127
330
125
100
AcDbEntity
  8
0
100
AcDbBlockEnd
  0
BLOCK
  5
142
330
141
100
AcDbEntity
  8
0
100
AcDbBlockBegin
  2
TI_SOT_23_5_DBV_6
 70
     0
 10
0.0
 20
0.0
 30
0.0
  3
TI_SOT_23_5_DBV_6
  1

  0
LINE
  5
144
330
141
100
AcDbEntity
  8
TOPPASTE
100
AcDbLine
 10
0.8500008399999999
 20
0.67500246
 30
0.0
 11
1.84999884
 21
0.67500246
 31
0.0
  0
LINE
  5
145
330
141
100
AcDbEntity
  8
TOPPASTE
100
AcDbLine
 10
1.84999884
 20
0.67500246
 30
0.0
 11
1.84999884
 21
1.22499882
 31
0.0
  0
LINE
  5
146
330
141
100
AcDbEntity
  8
TOPPASTE
100
AcDbLine
 10
1.84999884
 20
1.22499882
 30
0.0
 11
0.8500008399999999
 21
1.22499882
 31
0.0
  0
LINE
  5
147
330
141
100
AcDbEntity
  8
TOPPASTE
100
AcDbLine
 10
0.8500008399999999
 20
1.22499882
 30
0.0
 11
0.8500008399999999
 21
0.67500246
 31
0.0
  0
LINE
  5
148
330
141
100
AcDbEntity
  8
TOPPASTE
100
AcDbLine
 10
0.8500008399999999
 20
-1.22499628
 30
0.0
 11
1.84999884
 21
-1.22499628
 31
0.0
  0
LINE
  5
149
330
141
100
AcDbEntity
  8
TOPPASTE
100
AcDbLine
 10
1.84999884
 20
-1.22499628
 30
0.0
 11
1.84999884
 21
-0.67499992
 31
0.0
  0
LINE
  5
14A
330
141
100
AcDbEntity
  8
TOPPASTE
100
AcDbLine
 10
1.84999884
 20
-0.67499992
 30
0.0
 11
0.8500008399999999
 21
-0.67499992
 31
0.0
  0
LINE
  5
14B
330
141
100
AcDbEntity
  8
TOPPASTE
100
AcDbLine
 10
0.8500008399999999
 20
-0.67499992
 30
0.0
 11
0.8500008399999999
 21
-1.22499628
 31
0.0
  0
LINE
  5
14C
330
141
100
AcDbEntity
  8
TOPPASTE
100
AcDbLine
 10
-1.84999884
 20
-1.22499628
 30
0.0
 11
-0.8500008399999999
 21
-1.22499628
 31
0.0
  0
LINE
  5
14D
330
141
100
AcDbEntity
  8
TOPPASTE
100
AcDbLine
 10
-0.8500008399999999
 20
-1.22499628
 30
0.0
 11
-0.8500008399999999
 21
-0.67499992
 31
0.0
  0
LINE
  5
14E
330
141
100
AcDbEntity
  8
TOPPASTE
100
AcDbLine
 10
-0.8500008399999999
 20
-0.67499992
 30
0.0
 11
-1.84999884
 21
-0.67499992
 31
0.0
  0
LINE
  5
14F
330
141
100
AcDbEntity
  8
TOPPASTE
100
AcDbLine
 10
-1.84999884
 20
-0.67499992
 30
0.0
 11
-1.84999884
 21
-1.22499628
 31
0.0
  0
LINE
  5
150
330
141
100
AcDbEntity
  8
TOPPASTE
100
AcDbLine
 10
-1.84999884
 20
-0.27499818
 30
0.0
 11
-0.8500008399999999
 21
-0.27499818
 31
0.0
  0
LINE
  5
151
330
141
100
AcDbEntity
  8
TOPPASTE
100
AcDbLine
 10
-0.8500008399999999
 20
-0.27499818
 30
0.0
 11
-0.8500008399999999
 21
0.27499818
 31
0.0
  0
LINE
  5
152
330
141
100
AcDbEntity
  8
TOPPASTE
100
AcDbLine
 10
-0.8500008399999999
 20
0.27499818
 30
0.0
 11
-1.84999884
 21
0.27499818
 31
0.0
  0
LINE
  5
153
330
141
100
AcDbEntity
  8
TOPPASTE
100
AcDbLine
 10
-1.84999884
 20
0.27499818
 30
0.0
 11
-1.84999884
 21
-0.27499818
 31
0.0
  0
LINE
  5
154
330
141
100
AcDbEntity
  8
TOPPASTE
100
AcDbLine
 10
-1.84999884
 20
0.67500246
 30
0.0
 11
-0.8500008399999999
 21
0.67500246
 31
0.0
  0
LINE
  5
155
330
141
100
AcDbEntity
  8
TOPPASTE
100
AcDbLine
 10
-0.8500008399999999
 20
0.67500246
 30
0.0
 11
-0.8500008399999999
 21
1.22499882
 31
0.0
  0
LINE
  5
156
330
141
100
AcDbEntity
  8
TOPPASTE
100
AcDbLine
 10
-0.8500008399999999
 20
1.22499882
 30
0.0
 11
-1.84999884
 21
1.22499882
 31
0.0
  0
LINE
  5
157
330
141
100
AcDbEntity
  8
TOPPASTE
100
AcDbLine
 10
-1.84999884
 20
1.22499882
 30
0.0
 11
-1.84999884
 21
0.67500246
 31
0.0
  0
ENDBLK
  5
143
330
141
100
AcDbEntity
  8
0
100
AcDbBlockEnd
  0
BLOCK
  5
15A
330
159
100
AcDbEntity
  8
0
100
AcDbBlockBegin
  2
CAP_0603_1608_7
 70
     0
 10
0.0
 20
0.0
 30
0.0
  3
CAP_0603_1608_7
  1

  0
LINE
  5
15C
330
159
100
AcDbEntity
  8
TOPPASTE
100
AcDbLine
 10
0.40000174
 20
-0.4499991
 30
0.0
 11
1.00000054
 21
-0.4499991
 31
0.0
  0
LINE
  5
15D
330
159
100
AcDbEntity
  8
TOPPASTE
100
AcDbLine
 10
1.00000054
 20
-0.4499991
 30
0.0
 11
1.00000054
 21
0.4499991
 31
0.0
  0
LINE
  5
15E
330
159
100
AcDbEntity
  8
TOPPASTE
100
AcDbLine
 10
1.00000054
 20
0.4499991
 30
0.0
 11
0.40000174
 21
0.4499991
 31
0.0
  0
LINE
  5
15F
330
159
100
AcDbEntity
  8
TOPPASTE
100
AcDbLine
 10
0.40000174
 20
0.4499991
 30
0.0
 11
0.40000174
 21
-0.4499991
 31
0.0
  0
LINE
  5
160
330
159
100
AcDbEntity
  8
TOPPASTE
100
AcDbLine
 10
-1.00000054
 20
-0.4499991
 30
0.0
 11
-0.40000174
 21
-0.4499991
 31
0.0
  0
LINE
  5
161
330
159
100
AcDbEntity
  8
TOPPASTE
100
AcDbLine
 10
-0.40000174
 20
-0.4499991
 30
0.0
 11
-0.40000174
 21
0.4499991
 31
0.0
  0
LINE
  5
162
330
159
100
AcDbEntity
  8
TOPPASTE
100
AcDbLine
 10
-0.40000174
 20
0.4499991
 30
0.0
 11
-1.00000054
 21
0.4499991
 31
0.0
  0
LINE
  5
163
330
159
100
AcDbEntity
  8
TOPPASTE
100
AcDbLine
 10
-1.00000054
 20
0.4499991
 30
0.0
 11
-1.00000054
 21
-0.4499991
 31
0.0
  0
ENDBLK
  5
15B
330
159
100
AcDbEntity
  8
0
100
AcDbBlockEnd
  0
BLOCK
  5
166
330
165
100
AcDbEntity
  8
0
100
AcDbBlockBegin
  2
CAP_0603_1608_8
 70
     0
 10
0.0
 20
0.0
 30
0.0
  3
CAP_0603_1608_8
  1

  0
LINE
  5
168
330
165
100
AcDbEntity
  8
TOPPASTE
100
AcDbLine
 10
0.40000174
 20
-0.4499991
 30
0.0
 11
1.00000054
 21
-0.4499991
 31
0.0
  0
LINE
  5
169
330
165
100
AcDbEntity
  8
TOPPASTE
100
AcDbLine
 10
1.00000054
 20
-0.4499991
 30
0.0
 11
1.00000054
 21
0.4499991
 31
0.0
  0
LINE
  5
16A
330
165
100
AcDbEntity
  8
TOPPASTE
100
AcDbLine
 10
1.00000054
 20
0.4499991
 30
0.0
 11
0.40000174
 21
0.4499991
 31
0.0
  0
LINE
  5
16B
330
165
100
AcDbEntity
  8
TOPPASTE
100
AcDbLine
 10
0.40000174
 20
0.4499991
 30
0.0
 11
0.40000174
 21
-0.4499991
 31
0.0
  0
LINE
  5
16C
330
165
100
AcDbEntity
  8
TOPPASTE
100
AcDbLine
 10
-1.00000054
 20
-0.4499991
 30
0.0
 11
-0.40000174
 21
-0.4499991
 31
0.0
  0
LINE
  5
16D
330
165
100
AcDbEntity
  8
TOPPASTE
100
AcDbLine
 10
-0.40000174
 20
-0.4499991
 30
0.0
 11
-0.40000174
 21
0.4499991
 31
0.0
  0
LINE
  5
16E
330
165
100
AcDbEntity
  8
TOPPASTE
100
AcDbLine
 10
-0.40000174
 20
0.4499991
 30
0.0
 11
-1.00000054
 21
0.4499991
 31
0.0
  0
LINE
  5
16F
330
165
100
AcDbEntity
  8
TOPPASTE
100
AcDbLine
 10
-1.00000054
 20
0.4499991
 30
0.0
 11
-1.00000054
 21
-0.4499991
 31
0.0
  0
ENDBLK
  5
167
330
165
100
AcDbEntity
  8
0
100
AcDbBlockEnd
  0
BLOCK
  5
172
330
171
100
AcDbEntity
  8
0
100
AcDbBlockBegin
  2
CAP_0603_1608_9
 70
     0
 10
0.0
 20
0.0
 30
0.0
  3
CAP_0603_1608_9
  1

  0
LINE
  5
174
330
171
100
AcDbEntity
  8
TOPPASTE
100
AcDbLine
 10
0.40000174
 20
-0.4499991
 30
0.0
 11
1.00000054
 21
-0.4499991
 31
0.0
  0
LINE
  5
175
330
171
100
AcDbEntity
  8
TOPPASTE
100
AcDbLine
 10
1.00000054
 20
-0.4499991
 30
0.0
 11
1.00000054
 21
0.4499991
 31
0.0
  0
LINE
  5
176
330
171
100
AcDbEntity
  8
TOPPASTE
100
AcDbLine
 10
1.00000054
 20
0.4499991
 30
0.0
 11
0.40000174
 21
0.4499991
 31
0.0
  0
LINE
  5
177
330
171
100
AcDbEntity
  8
TOPPASTE
100
AcDbLine
 10
0.40000174
 20
0.4499991
 30
0.0
 11
0.40000174
 21
-0.4499991
 31
0.0
  0
LINE
  5
178
330
171
100
AcDbEntity
  8
TOPPASTE
100
AcDbLine
 10
-1.00000054
 20
-0.4499991
 30
0.0
 11
-0.40000174
 21
-0.4499991
 31
0.0
  0
LINE
  5
179
330
171
100
AcDbEntity
  8
TOPPASTE
100
AcDbLine
 10
-0.40000174
 20
-0.4499991
 30
0.0
 11
-0.40000174
 21
0.4499991
 31
0.0
  0
LINE
  5
17A
330
171
100
AcDbEntity
  8
TOPPASTE
100
AcDbLine
 10
-0.40000174
 20
0.4499991
 30
0.0
 11
-1.00000054
 21
0.4499991
 31
0.0
  0
LINE
  5
17B
330
171
100
AcDbEntity
  8
TOPPASTE
100
AcDbLine
 10
-1.00000054
 20
0.4499991
 30
0.0
 11
-1.00000054
 21
-0.4499991
 31
0.0
  0
ENDBLK
  5
173
330
171
100
AcDbEntity
  8
0
100
AcDbBlockEnd
  0
BLOCK
  5
17E
330
17D
100
AcDbEntity
  8
0
100
AcDbBlockBegin
  2
CAP_0603_1608_10
 70
     0
 10
0.0
 20
0.0
 30
0.0
  3
CAP_0603_1608_10
  1

  0
LINE
  5
180
330
17D
100
AcDbEntity
  8
TOPPASTE
100
AcDbLine
 10
0.40000174
 20
-0.4499991
 30
0.0
 11
1.00000054
 21
-0.4499991
 31
0.0
  0
LINE
  5
181
330
17D
100
AcDbEntity
  8
TOPPASTE
100
AcDbLine
 10
1.00000054
 20
-0.4499991
 30
0.0
 11
1.00000054
 21
0.4499991
 31
0.0
  0
LINE
  5
182
330
17D
100
AcDbEntity
  8
TOPPASTE
100
AcDbLine
 10
1.00000054
 20
0.4499991
 30
0.0
 11
0.40000174
 21
0.4499991
 31
0.0
  0
LINE
  5
183
330
17D
100
AcDbEntity
  8
TOPPASTE
100
AcDbLine
 10
0.40000174
 20
0.4499991
 30
0.0
 11
0.40000174
 21
-0.4499991
 31
0.0
  0
LINE
  5
184
330
17D
100
AcDbEntity
  8
TOPPASTE
100
AcDbLine
 10
-1.00000054
 20
-0.4499991
 30
0.0
 11
-0.40000174
 21
-0.4499991
 31
0.0
  0
LINE
  5
185
330
17D
100
AcDbEntity
  8
TOPPASTE
100
AcDbLine
 10
-0.40000174
 20
-0.4499991
 30
0.0
 11
-0.40000174
 21
0.4499991
 31
0.0
  0
LINE
  5
186
330
17D
100
AcDbEntity
  8
TOPPASTE
100
AcDbLine
 10
-0.40000174
 20
0.4499991
 30
0.0
 11
-1.00000054
 21
0.4499991
 31
0.0
  0
LINE
  5
187
330
17D
100
AcDbEntity
  8
TOPPASTE
100
AcDbLine
 10
-1.00000054
 20
0.4499991
 30
0.0
 11
-1.00000054
 21
-0.4499991
 31
0.0
  0
ENDBLK
  5
17F
330
17D
100
AcDbEntity
  8
0
100
AcDbBlockEnd
  0
BLOCK
  5
18A
330
189
100
AcDbEntity
  8
0
100
AcDbBlockBegin
  2
CAP_0603_1608_11
 70
     0
 10
0.0
 20
0.0
 30
0.0
  3
CAP_0603_1608_11
  1

  0
LINE
  5
18C
330
189
100
AcDbEntity
  8
TOPPASTE
100
AcDbLine
 10
0.40000174
 20
-0.4499991
 30
0.0
 11
1.00000054
 21
-0.4499991
 31
0.0
  0
LINE
  5
18D
330
189
100
AcDbEntity
  8
TOPPASTE
100
AcDbLine
 10
1.00000054
 20
-0.4499991
 30
0.0
 11
1.00000054
 21
0.4499991
 31
0.0
  0
LINE
  5
18E
330
189
100
AcDbEntity
  8
TOPPASTE
100
AcDbLine
 10
1.00000054
 20
0.4499991
 30
0.0
 11
0.40000174
 21
0.4499991
 31
0.0
  0
LINE
  5
18F
330
189
100
AcDbEntity
  8
TOPPASTE
100
AcDbLine
 10
0.40000174
 20
0.4499991
 30
0.0
 11
0.40000174
 21
-0.4499991
 31
0.0
  0
LINE
  5
190
330
189
100
AcDbEntity
  8
TOPPASTE
100
AcDbLine
 10
-1.00000054
 20
-0.4499991
 30
0.0
 11
-0.40000174
 21
-0.4499991
 31
0.0
  0
LINE
  5
191
330
189
100
AcDbEntity
  8
TOPPASTE
100
AcDbLine
 10
-0.40000174
 20
-0.4499991
 30
0.0
 11
-0.40000174
 21
0.4499991
 31
0.0
  0
LINE
  5
192
330
189
100
AcDbEntity
  8
TOPPASTE
100
AcDbLine
 10
-0.40000174
 20
0.4499991
 30
0.0
 11
-1.00000054
 21
0.4499991
 31
0.0
  0
LINE
  5
193
330
189
100
AcDbEntity
  8
TOPPASTE
100
AcDbLine
 10
-1.00000054
 20
0.4499991
 30
0.0
 11
-1.00000054
 21
-0.4499991
 31
0.0
  0
ENDBLK
  5
18B
330
189
100
AcDbEntity
  8
0
100
AcDbBlockEnd
  0
BLOCK
  5
196
330
195
100
AcDbEntity
  8
0
100
AcDbBlockBegin
  2
CAP_0603_1608_12
 70
     0
 10
0.0
 20
0.0
 30
0.0
  3
CAP_0603_1608_12
  1

  0
LINE
  5
198
330
195
100
AcDbEntity
  8
TOPPASTE
100
AcDbLine
 10
-1.00000054
 20
-0.4499991
 30
0.0
 11
-0.40000174
 21
-0.4499991
 31
0.0
  0
LINE
  5
199
330
195
100
AcDbEntity
  8
TOPPASTE
100
AcDbLine
 10
-0.40000174
 20
-0.4499991
 30
0.0
 11
-0.40000174
 21
0.4499991
 31
0.0
  0
LINE
  5
19A
330
195
100
AcDbEntity
  8
TOPPASTE
100
AcDbLine
 10
-0.40000174
 20
0.4499991
 30
0.0
 11
-1.00000054
 21
0.4499991
 31
0.0
  0
LINE
  5
19B
330
195
100
AcDbEntity
  8
TOPPASTE
100
AcDbLine
 10
-1.00000054
 20
0.4499991
 30
0.0
 11
-1.00000054
 21
-0.4499991
 31
0.0
  0
LINE
  5
19C
330
195
100
AcDbEntity
  8
TOPPASTE
100
AcDbLine
 10
0.40000174
 20
-0.4499991
 30
0.0
 11
1.00000054
 21
-0.4499991
 31
0.0
  0
LINE
  5
19D
330
195
100
AcDbEntity
  8
TOPPASTE
100
AcDbLine
 10
1.00000054
 20
-0.4499991
 30
0.0
 11
1.00000054
 21
0.4499991
 31
0.0
  0
LINE
  5
19E
330
195
100
AcDbEntity
  8
TOPPASTE
100
AcDbLine
 10
1.00000054
 20
0.4499991
 30
0.0
 11
0.40000174
 21
0.4499991
 31
0.0
  0
LINE
  5
19F
330
195
100
AcDbEntity
  8
TOPPASTE
100
AcDbLine
 10
0.40000174
 20
0.4499991
 30
0.0
 11
0.40000174
 21
-0.4499991
 31
0.0
  0
ENDBLK
  5
197
330
195
100
AcDbEntity
  8
0
100
AcDbBlockEnd
  0
BLOCK
  5
1A2
330
1A1
100
AcDbEntity
  8
0
100
AcDbBlockBegin
  2
CAP_0603_1608_13
 70
     0
 10
0.0
 20
0.0
 30
0.0
  3
CAP_0603_1608_13
  1

  0
LINE
  5
1A4
330
1A1
100
AcDbEntity
  8
TOPPASTE
100
AcDbLine
 10
0.40000174
 20
-0.4499991
 30
0.0
 11
1.00000054
 21
-0.4499991
 31
0.0
  0
LINE
  5
1A5
330
1A1
100
AcDbEntity
  8
TOPPASTE
100
AcDbLine
 10
1.00000054
 20
-0.4499991
 30
0.0
 11
1.00000054
 21
0.4499991
 31
0.0
  0
LINE
  5
1A6
330
1A1
100
AcDbEntity
  8
TOPPASTE
100
AcDbLine
 10
1.00000054
 20
0.4499991
 30
0.0
 11
0.40000174
 21
0.4499991
 31
0.0
  0
LINE
  5
1A7
330
1A1
100
AcDbEntity
  8
TOPPASTE
100
AcDbLine
 10
0.40000174
 20
0.4499991
 30
0.0
 11
0.40000174
 21
-0.4499991
 31
0.0
  0
LINE
  5
1A8
330
1A1
100
AcDbEntity
  8
TOPPASTE
100
AcDbLine
 10
-1.00000054
 20
-0.4499991
 30
0.0
 11
-0.40000174
 21
-0.4499991
 31
0.0
  0
LINE
  5
1A9
330
1A1
100
AcDbEntity
  8
TOPPASTE
100
AcDbLine
 10
-0.40000174
 20
-0.4499991
 30
0.0
 11
-0.40000174
 21
0.4499991
 31
0.0
  0
LINE
  5
1AA
330
1A1
100
AcDbEntity
  8
TOPPASTE
100
AcDbLine
 10
-0.40000174
 20
0.4499991
 30
0.0
 11
-1.00000054
 21
0.4499991
 31
0.0
  0
LINE
  5
1AB
330
1A1
100
AcDbEntity
  8
TOPPASTE
100
AcDbLine
 10
-1.00000054
 20
0.4499991
 30
0.0
 11
-1.00000054
 21
-0.4499991
 31
0.0
  0
ENDBLK
  5
1A3
330
1A1
100
AcDbEntity
  8
0
100
AcDbBlockEnd
  0
BLOCK
  5
1AE
330
1AD
100
AcDbEntity
  8
0
100
AcDbBlockBegin
  2
CAP_0603_1608_14
 70
     0
 10
0.0
 20
0.0
 30
0.0
  3
CAP_0603_1608_14
  1

  0
LINE
  5
1B0
330
1AD
100
AcDbEntity
  8
TOPPASTE
100
AcDbLine
 10
0.40000174
 20
-0.4499991
 30
0.0
 11
1.00000054
 21
-0.4499991
 31
0.0
  0
LINE
  5
1B1
330
1AD
100
AcDbEntity
  8
TOPPASTE
100
AcDbLine
 10
1.00000054
 20
-0.4499991
 30
0.0
 11
1.00000054
 21
0.4499991
 31
0.0
  0
LINE
  5
1B2
330
1AD
100
AcDbEntity
  8
TOPPASTE
100
AcDbLine
 10
1.00000054
 20
0.4499991
 30
0.0
 11
0.40000174
 21
0.4499991
 31
0.0
  0
LINE
  5
1B3
330
1AD
100
AcDbEntity
  8
TOPPASTE
100
AcDbLine
 10
0.40000174
 20
0.4499991
 30
0.0
 11
0.40000174
 21
-0.4499991
 31
0.0
  0
LINE
  5
1B4
330
1AD
100
AcDbEntity
  8
TOPPASTE
100
AcDbLine
 10
-1.00000054
 20
-0.4499991
 30
0.0
 11
-0.40000174
 21
-0.4499991
 31
0.0
  0
LINE
  5
1B5
330
1AD
100
AcDbEntity
  8
TOPPASTE
100
AcDbLine
 10
-0.40000174
 20
-0.4499991
 30
0.0
 11
-0.40000174
 21
0.4499991
 31
0.0
  0
LINE
  5
1B6
330
1AD
100
AcDbEntity
  8
TOPPASTE
100
AcDbLine
 10
-0.40000174
 20
0.4499991
 30
0.0
 11
-1.00000054
 21
0.4499991
 31
0.0
  0
LINE
  5
1B7
330
1AD
100
AcDbEntity
  8
TOPPASTE
100
AcDbLine
 10
-1.00000054
 20
0.4499991
 30
0.0
 11
-1.00000054
 21
-0.4499991
 31
0.0
  0
ENDBLK
  5
1AF
330
1AD
100
AcDbEntity
  8
0
100
AcDbBlockEnd
  0
BLOCK
  5
1BA
330
1B9
100
AcDbEntity
  8
0
100
AcDbBlockBegin
  2
SOT143B_15
 70
     0
 10
0.0
 20
0.0
 30
0.0
  3
SOT143B_15
  1

  0
LINE
  5
1BC
330
1B9
100
AcDbEntity
  8
TOPPASTE
100
AcDbLine
 10
0.50000154
 20
0.65000124
 30
0.0
 11
1.65000178
 21
0.65000124
 31
0.0
  0
LINE
  5
1BD
330
1B9
100
AcDbEntity
  8
TOPPASTE
100
AcDbLine
 10
1.65000178
 20
0.65000124
 30
0.0
 11
1.65000178
 21
1.25000004
 31
0.0
  0
LINE
  5
1BE
330
1B9
100
AcDbEntity
  8
TOPPASTE
100
AcDbLine
 10
1.65000178
 20
1.25000004
 30
0.0
 11
0.50000154
 21
1.25000004
 31
0.0
  0
LINE
  5
1BF
330
1B9
100
AcDbEntity
  8
TOPPASTE
100
AcDbLine
 10
0.50000154
 20
1.25000004
 30
0.0
 11
0.50000154
 21
0.65000124
 31
0.0
  0
LINE
  5
1C0
330
1B9
100
AcDbEntity
  8
TOPPASTE
100
AcDbLine
 10
0.50000154
 20
-1.2499975
 30
0.0
 11
1.65000178
 21
-1.2499975
 31
0.0
  0
LINE
  5
1C1
330
1B9
100
AcDbEntity
  8
TOPPASTE
100
AcDbLine
 10
1.65000178
 20
-1.2499975
 30
0.0
 11
1.65000178
 21
-0.6499986999999999
 31
0.0
  0
LINE
  5
1C2
330
1B9
100
AcDbEntity
  8
TOPPASTE
100
AcDbLine
 10
1.65000178
 20
-0.6499986999999999
 30
0.0
 11
0.50000154
 21
-0.6499986999999999
 31
0.0
  0
LINE
  5
1C3
330
1B9
100
AcDbEntity
  8
TOPPASTE
100
AcDbLine
 10
0.50000154
 20
-0.6499986999999999
 30
0.0
 11
0.50000154
 21
-1.2499975
 31
0.0
  0
LINE
  5
1C4
330
1B9
100
AcDbEntity
  8
TOPPASTE
100
AcDbLine
 10
-1.64999924
 20
-1.2499975
 30
0.0
 11
-0.499999
 21
-1.2499975
 31
0.0
  0
LINE
  5
1C5
330
1B9
100
AcDbEntity
  8
TOPPASTE
100
AcDbLine
 10
-0.499999
 20
-1.2499975
 30
0.0
 11
-0.499999
 21
-0.6499986999999999
 31
0.0
  0
LINE
  5
1C6
330
1B9
100
AcDbEntity
  8
TOPPASTE
100
AcDbLine
 10
-0.499999
 20
-0.6499986999999999
 30
0.0
 11
-1.64999924
 21
-0.6499986999999999
 31
0.0
  0
LINE
  5
1C7
330
1B9
100
AcDbEntity
  8
TOPPASTE
100
AcDbLine
 10
-1.64999924
 20
-0.6499986999999999
 30
0.0
 11
-1.64999924
 21
-1.2499975
 31
0.0
  0
LINE
  5
1C8
330
1B9
100
AcDbEntity
  8
TOPPASTE
100
AcDbLine
 10
-1.64999924
 20
0.25000204
 30
0.0
 11
-0.499999
 21
0.25000204
 31
0.0
  0
LINE
  5
1C9
330
1B9
100
AcDbEntity
  8
TOPPASTE
100
AcDbLine
 10
-0.499999
 20
0.25000204
 30
0.0
 11
-0.499999
 21
1.25000004
 31
0.0
  0
LINE
  5
1CA
330
1B9
100
AcDbEntity
  8
TOPPASTE
100
AcDbLine
 10
-0.499999
 20
1.25000004
 30
0.0
 11
-1.64999924
 21
1.25000004
 31
0.0
  0
LINE
  5
1CB
330
1B9
100
AcDbEntity
  8
TOPPASTE
100
AcDbLine
 10
-1.64999924
 20
1.25000004
 30
0.0
 11
-1.64999924
 21
0.25000204
 31
0.0
  0
ENDBLK
  5
1BB
330
1B9
100
AcDbEntity
  8
0
100
AcDbBlockEnd
  0
BLOCK
  5
1CE
330
1CD
100
AcDbEntity
  8
0
100
AcDbBlockBegin
  2
ABRACON_ABS07_16
 70
     0
 10
0.0
 20
0.0
 30
0.0
  3
ABRACON_ABS07_16
  1

  0
LINE
  5
1D0
330
1CD
100
AcDbEntity
  8
TOPPASTE
100
AcDbLine
 10
-1.89999874
 20
-0.9499980999999998
 30
0.0
 11
-0.50000154
 21
-0.9499980999999998
 31
0.0
  0
LINE
  5
1D1
330
1CD
100
AcDbEntity
  8
TOPPASTE
100
AcDbLine
 10
-0.50000154
 20
-0.9499980999999998
 30
0.0
 11
-0.50000154
 21
0.9499980999999998
 31
0.0
  0
LINE
  5
1D2
330
1CD
100
AcDbEntity
  8
TOPPASTE
100
AcDbLine
 10
-0.50000154
 20
0.9499980999999998
 30
0.0
 11
-1.89999874
 21
0.9499980999999998
 31
0.0
  0
LINE
  5
1D3
330
1CD
100
AcDbEntity
  8
TOPPASTE
100
AcDbLine
 10
-1.89999874
 20
0.9499980999999998
 30
0.0
 11
-1.89999874
 21
-0.9499980999999998
 31
0.0
  0
LINE
  5
1D4
330
1CD
100
AcDbEntity
  8
TOPPASTE
100
AcDbLine
 10
0.50000154
 20
-0.9499980999999998
 30
0.0
 11
1.89999874
 21
-0.9499980999999998
 31
0.0
  0
LINE
  5
1D5
330
1CD
100
AcDbEntity
  8
TOPPASTE
100
AcDbLine
 10
1.89999874
 20
-0.9499980999999998
 30
0.0
 11
1.89999874
 21
0.9499980999999998
 31
0.0
  0
LINE
  5
1D6
330
1CD
100
AcDbEntity
  8
TOPPASTE
100
AcDbLine
 10
1.89999874
 20
0.9499980999999998
 30
0.0
 11
0.50000154
 21
0.9499980999999998
 31
0.0
  0
LINE
  5
1D7
330
1CD
100
AcDbEntity
  8
TOPPASTE
100
AcDbLine
 10
0.50000154
 20
0.9499980999999998
 30
0.0
 11
0.50000154
 21
-0.9499980999999998
 31
0.0
  0
ENDBLK
  5
1CF
330
1CD
100
AcDbEntity
  8
0
100
AcDbBlockEnd
  0
BLOCK
  5
1DA
330
1D9
100
AcDbEntity
  8
0
100
AcDbBlockBegin
  2
SI_LABS_QFN_64_17
 70
     0
 10
0.0
 20
0.0
 30
0.0
  3
SI_LABS_QFN_64_17
  1

  0
LINE
  5
1DC
330
1D9
100
AcDbEntity
  8
TOPPASTE
100
AcDbLine
 10
-3.60000042
 20
3.60000042
 30
0.0
 11
-3.60000042
 21
-3.60000042
 31
0.0
  0
LINE
  5
1DD
330
1D9
100
AcDbEntity
  8
TOPPASTE
100
AcDbLine
 10
-3.60000042
 20
-3.60000042
 30
0.0
 11
3.60000042
 21
-3.60000042
 31
0.0
  0
LINE
  5
1DE
330
1D9
100
AcDbEntity
  8
TOPPASTE
100
AcDbLine
 10
3.60000042
 20
-3.60000042
 30
0.0
 11
3.60000042
 21
3.60000042
 31
0.0
  0
LINE
  5
1DF
330
1D9
100
AcDbEntity
  8
TOPPASTE
100
AcDbLine
 10
3.60000042
 20
3.60000042
 30
0.0
 11
-3.60000042
 21
3.60000042
 31
0.0
  0
ARC
  5
1E0
330
1D9
100
AcDbEntity
  8
TOPPASTE
100
AcDbCircle
 10
-3.75000012
 20
4.725001979999999
 30
0.0
 40
0.1499997
100
AcDbArc
 50
0.0
 51
180.0
  0
LINE
  5
1E1
330
1D9
100
AcDbEntity
  8
TOPPASTE
100
AcDbLine
 10
-3.60000042
 20
4.725001979999999
 30
0.0
 11
-3.60000042
 21
4.175000539999999
 31
0.0
  0
LINE
  5
1E2
330
1D9
100
AcDbEntity
  8
TOPPASTE
100
AcDbLine
 10
-3.89999982
 20
4.725001979999999
 30
0.0
 11
-3.89999982
 21
4.175000539999999
 31
0.0
  0
ARC
  5
1E3
330
1D9
100
AcDbEntity
  8
TOPPASTE
100
AcDbCircle
 10
-3.75000012
 20
4.175000539999999
 30
0.0
 40
0.1499997
100
AcDbArc
 50
180.0
 51
0.0
  0
ARC
  5
1E4
330
1D9
100
AcDbEntity
  8
TOPPASTE
100
AcDbCircle
 10
-3.25000112
 20
4.725001979999999
 30
0.0
 40
0.1499997
100
AcDbArc
 50
0.0
 51
180.0
  0
LINE
  5
1E5
330
1D9
100
AcDbEntity
  8
TOPPASTE
100
AcDbLine
 10
-3.10000142
 20
4.725001979999999
 30
0.0
 11
-3.10000142
 21
4.175000539999999
 31
0.0
  0
LINE
  5
1E6
330
1D9
100
AcDbEntity
  8
TOPPASTE
100
AcDbLine
 10
-3.40000082
 20
4.725001979999999
 30
0.0
 11
-3.40000082
 21
4.175000539999999
 31
0.0
  0
ARC
  5
1E7
330
1D9
100
AcDbEntity
  8
TOPPASTE
100
AcDbCircle
 10
-3.25000112
 20
4.175000539999999
 30
0.0
 40
0.1499997
100
AcDbArc
 50
180.0
 51
0.0
  0
ARC
  5
1E8
330
1D9
100
AcDbEntity
  8
TOPPASTE
100
AcDbCircle
 10
-2.75000212
 20
4.725001979999999
 30
0.0
 40
0.1499997
100
AcDbArc
 50
0.0
 51
180.0
  0
LINE
  5
1E9
330
1D9
100
AcDbEntity
  8
TOPPASTE
100
AcDbLine
 10
-2.60000242
 20
4.725001979999999
 30
0.0
 11
-2.60000242
 21
4.175000539999999
 31
0.0
  0
LINE
  5
1EA
330
1D9
100
AcDbEntity
  8
TOPPASTE
100
AcDbLine
 10
-2.90000182
 20
4.725001979999999
 30
0.0
 11
-2.90000182
 21
4.175000539999999
 31
0.0
  0
ARC
  5
1EB
330
1D9
100
AcDbEntity
  8
TOPPASTE
100
AcDbCircle
 10
-2.75000212
 20
4.175000539999999
 30
0.0
 40
0.1499997
100
AcDbArc
 50
180.0
 51
0.0
  0
ARC
  5
1EC
330
1D9
100
AcDbEntity
  8
TOPPASTE
100
AcDbCircle
 10
-2.25000058
 20
4.725001979999999
 30
0.0
 40
0.1499997
100
AcDbArc
 50
0.0
 51
180.0
  0
LINE
  5
1ED
330
1D9
100
AcDbEntity
  8
TOPPASTE
100
AcDbLine
 10
-2.10000088
 20
4.725001979999999
 30
0.0
 11
-2.10000088
 21
4.175000539999999
 31
0.0
  0
LINE
  5
1EE
330
1D9
100
AcDbEntity
  8
TOPPASTE
100
AcDbLine
 10
-2.40000028
 20
4.725001979999999
 30
0.0
 11
-2.40000028
 21
4.175000539999999
 31
0.0
  0
ARC
  5
1EF
330
1D9
100
AcDbEntity
  8
TOPPASTE
100
AcDbCircle
 10
-2.25000058
 20
4.175000539999999
 30
0.0
 40
0.1499997
100
AcDbArc
 50
180.0
 51
0.0
  0
ARC
  5
1F0
330
1D9
100
AcDbEntity
  8
TOPPASTE
100
AcDbCircle
 10
-1.75000158
 20
4.725001979999999
 30
0.0
 40
0.1499997
100
AcDbArc
 50
0.0
 51
180.0
  0
LINE
  5
1F1
330
1D9
100
AcDbEntity
  8
TOPPASTE
100
AcDbLine
 10
-1.60000188
 20
4.725001979999999
 30
0.0
 11
-1.60000188
 21
4.175000539999999
 31
0.0
  0
LINE
  5
1F2
330
1D9
100
AcDbEntity
  8
TOPPASTE
100
AcDbLine
 10
-1.90000128
 20
4.725001979999999
 30
0.0
 11
-1.90000128
 21
4.175000539999999
 31
0.0
  0
ARC
  5
1F3
330
1D9
100
AcDbEntity
  8
TOPPASTE
100
AcDbCircle
 10
-1.75000158
 20
4.175000539999999
 30
0.0
 40
0.1499997
100
AcDbArc
 50
180.0
 51
0.0
  0
ARC
  5
1F4
330
1D9
100
AcDbEntity
  8
TOPPASTE
100
AcDbCircle
 10
-1.25000004
 20
4.725001979999999
 30
0.0
 40
0.1499997
100
AcDbArc
 50
0.0
 51
180.0
  0
LINE
  5
1F5
330
1D9
100
AcDbEntity
  8
TOPPASTE
100
AcDbLine
 10
-1.10000034
 20
4.725001979999999
 30
0.0
 11
-1.10000034
 21
4.175000539999999
 31
0.0
  0
LINE
  5
1F6
330
1D9
100
AcDbEntity
  8
TOPPASTE
100
AcDbLine
 10
-1.39999974
 20
4.725001979999999
 30
0.0
 11
-1.39999974
 21
4.175000539999999
 31
0.0
  0
ARC
  5
1F7
330
1D9
100
AcDbEntity
  8
TOPPASTE
100
AcDbCircle
 10
-1.25000004
 20
4.175000539999999
 30
0.0
 40
0.1499997
100
AcDbArc
 50
180.0
 51
0.0
  0
ARC
  5
1F8
330
1D9
100
AcDbEntity
  8
TOPPASTE
100
AcDbCircle
 10
-0.75000104
 20
4.725001979999999
 30
0.0
 40
0.1499997
100
AcDbArc
 50
0.0
 51
180.0
  0
LINE
  5
1F9
330
1D9
100
AcDbEntity
  8
TOPPASTE
100
AcDbLine
 10
-0.6000013399999999
 20
4.725001979999999
 30
0.0
 11
-0.6000013399999999
 21
4.175000539999999
 31
0.0
  0
LINE
  5
1FA
330
1D9
100
AcDbEntity
  8
TOPPASTE
100
AcDbLine
 10
-0.90000074
 20
4.725001979999999
 30
0.0
 11
-0.90000074
 21
4.175000539999999
 31
0.0
  0
ARC
  5
1FB
330
1D9
100
AcDbEntity
  8
TOPPASTE
100
AcDbCircle
 10
-0.75000104
 20
4.175000539999999
 30
0.0
 40
0.1499997
100
AcDbArc
 50
180.0
 51
0.0
  0
ARC
  5
1FC
330
1D9
100
AcDbEntity
  8
TOPPASTE
100
AcDbCircle
 10
-0.25000204
 20
4.725001979999999
 30
0.0
 40
0.1499997
100
AcDbArc
 50
0.0
 51
180.0
  0
LINE
  5
1FD
330
1D9
100
AcDbEntity
  8
TOPPASTE
100
AcDbLine
 10
-0.10000234
 20
4.725001979999999
 30
0.0
 11
-0.10000234
 21
4.175000539999999
 31
0.0
  0
LINE
  5
1FE
330
1D9
100
AcDbEntity
  8
TOPPASTE
100
AcDbLine
 10
-0.40000174
 20
4.725001979999999
 30
0.0
 11
-0.40000174
 21
4.175000539999999
 31
0.0
  0
ARC
  5
1FF
330
1D9
100
AcDbEntity
  8
TOPPASTE
100
AcDbCircle
 10
-0.25000204
 20
4.175000539999999
 30
0.0
 40
0.1499997
100
AcDbArc
 50
180.0
 51
0.0
  0
ARC
  5
200
330
1D9
100
AcDbEntity
  8
TOPPASTE
100
AcDbCircle
 10
0.2499995
 20
4.725001979999999
 30
0.0
 40
0.1499997
100
AcDbArc
 50
0.0
 51
180.0
  0
LINE
  5
201
330
1D9
100
AcDbEntity
  8
TOPPASTE
100
AcDbLine
 10
0.3999992
 20
4.725001979999999
 30
0.0
 11
0.3999992
 21
4.175000539999999
 31
0.0
  0
LINE
  5
202
330
1D9
100
AcDbEntity
  8
TOPPASTE
100
AcDbLine
 10
0.0999998
 20
4.725001979999999
 30
0.0
 11
0.0999998
 21
4.175000539999999
 31
0.0
  0
ARC
  5
203
330
1D9
100
AcDbEntity
  8
TOPPASTE
100
AcDbCircle
 10
0.2499995
 20
4.175000539999999
 30
0.0
 40
0.1499997
100
AcDbArc
 50
180.0
 51
0.0
  0
ARC
  5
204
330
1D9
100
AcDbEntity
  8
TOPPASTE
100
AcDbCircle
 10
0.7499985
 20
4.725001979999999
 30
0.0
 40
0.1499997
100
AcDbArc
 50
0.0
 51
180.0
  0
LINE
  5
205
330
1D9
100
AcDbEntity
  8
TOPPASTE
100
AcDbLine
 10
0.8999982
 20
4.725001979999999
 30
0.0
 11
0.8999982
 21
4.175000539999999
 31
0.0
  0
LINE
  5
206
330
1D9
100
AcDbEntity
  8
TOPPASTE
100
AcDbLine
 10
0.5999987999999999
 20
4.725001979999999
 30
0.0
 11
0.5999987999999999
 21
4.175000539999999
 31
0.0
  0
ARC
  5
207
330
1D9
100
AcDbEntity
  8
TOPPASTE
100
AcDbCircle
 10
0.7499985
 20
4.175000539999999
 30
0.0
 40
0.1499997
100
AcDbArc
 50
180.0
 51
0.0
  0
ARC
  5
208
330
1D9
100
AcDbEntity
  8
TOPPASTE
100
AcDbCircle
 10
1.2499975
 20
4.725001979999999
 30
0.0
 40
0.1499997
100
AcDbArc
 50
0.0
 51
180.0
  0
LINE
  5
209
330
1D9
100
AcDbEntity
  8
TOPPASTE
100
AcDbLine
 10
1.3999972
 20
4.725001979999999
 30
0.0
 11
1.3999972
 21
4.175000539999999
 31
0.0
  0
LINE
  5
20A
330
1D9
100
AcDbEntity
  8
TOPPASTE
100
AcDbLine
 10
1.0999978
 20
4.725001979999999
 30
0.0
 11
1.0999978
 21
4.175000539999999
 31
0.0
  0
ARC
  5
20B
330
1D9
100
AcDbEntity
  8
TOPPASTE
100
AcDbCircle
 10
1.2499975
 20
4.175000539999999
 30
0.0
 40
0.1499997
100
AcDbArc
 50
180.0
 51
0.0
  0
ARC
  5
20C
330
1D9
100
AcDbEntity
  8
TOPPASTE
100
AcDbCircle
 10
1.74999904
 20
4.725001979999999
 30
0.0
 40
0.1499997
100
AcDbArc
 50
0.0
 51
180.0
  0
LINE
  5
20D
330
1D9
100
AcDbEntity
  8
TOPPASTE
100
AcDbLine
 10
1.89999874
 20
4.725001979999999
 30
0.0
 11
1.89999874
 21
4.175000539999999
 31
0.0
  0
LINE
  5
20E
330
1D9
100
AcDbEntity
  8
TOPPASTE
100
AcDbLine
 10
1.59999934
 20
4.725001979999999
 30
0.0
 11
1.59999934
 21
4.175000539999999
 31
0.0
  0
ARC
  5
20F
330
1D9
100
AcDbEntity
  8
TOPPASTE
100
AcDbCircle
 10
1.74999904
 20
4.175000539999999
 30
0.0
 40
0.1499997
100
AcDbArc
 50
180.0
 51
0.0
  0
ARC
  5
210
330
1D9
100
AcDbEntity
  8
TOPPASTE
100
AcDbCircle
 10
2.24999804
 20
4.725001979999999
 30
0.0
 40
0.1499997
100
AcDbArc
 50
0.0
 51
180.0
  0
LINE
  5
211
330
1D9
100
AcDbEntity
  8
TOPPASTE
100
AcDbLine
 10
2.39999774
 20
4.725001979999999
 30
0.0
 11
2.39999774
 21
4.175000539999999
 31
0.0
  0
LINE
  5
212
330
1D9
100
AcDbEntity
  8
TOPPASTE
100
AcDbLine
 10
2.09999834
 20
4.725001979999999
 30
0.0
 11
2.09999834
 21
4.175000539999999
 31
0.0
  0
ARC
  5
213
330
1D9
100
AcDbEntity
  8
TOPPASTE
100
AcDbCircle
 10
2.24999804
 20
4.175000539999999
 30
0.0
 40
0.1499997
100
AcDbArc
 50
180.0
 51
0.0
  0
ARC
  5
214
330
1D9
100
AcDbEntity
  8
TOPPASTE
100
AcDbCircle
 10
2.74999958
 20
4.725001979999999
 30
0.0
 40
0.1499997
100
AcDbArc
 50
0.0
 51
180.0
  0
LINE
  5
215
330
1D9
100
AcDbEntity
  8
TOPPASTE
100
AcDbLine
 10
2.89999928
 20
4.725001979999999
 30
0.0
 11
2.89999928
 21
4.175000539999999
 31
0.0
  0
LINE
  5
216
330
1D9
100
AcDbEntity
  8
TOPPASTE
100
AcDbLine
 10
2.59999988
 20
4.725001979999999
 30
0.0
 11
2.59999988
 21
4.175000539999999
 31
0.0
  0
ARC
  5
217
330
1D9
100
AcDbEntity
  8
TOPPASTE
100
AcDbCircle
 10
2.74999958
 20
4.175000539999999
 30
0.0
 40
0.1499997
100
AcDbArc
 50
180.0
 51
0.0
  0
ARC
  5
218
330
1D9
100
AcDbEntity
  8
TOPPASTE
100
AcDbCircle
 10
3.24999858
 20
4.725001979999999
 30
0.0
 40
0.1499997
100
AcDbArc
 50
0.0
 51
180.0
  0
LINE
  5
219
330
1D9
100
AcDbEntity
  8
TOPPASTE
100
AcDbLine
 10
3.39999828
 20
4.725001979999999
 30
0.0
 11
3.39999828
 21
4.175000539999999
 31
0.0
  0
LINE
  5
21A
330
1D9
100
AcDbEntity
  8
TOPPASTE
100
AcDbLine
 10
3.09999888
 20
4.725001979999999
 30
0.0
 11
3.09999888
 21
4.175000539999999
 31
0.0
  0
ARC
  5
21B
330
1D9
100
AcDbEntity
  8
TOPPASTE
100
AcDbCircle
 10
3.24999858
 20
4.175000539999999
 30
0.0
 40
0.1499997
100
AcDbArc
 50
180.0
 51
0.0
  0
ARC
  5
21C
330
1D9
100
AcDbEntity
  8
TOPPASTE
100
AcDbCircle
 10
3.74999758
 20
4.725001979999999
 30
0.0
 40
0.1499997
100
AcDbArc
 50
0.0
 51
180.0
  0
LINE
  5
21D
330
1D9
100
AcDbEntity
  8
TOPPASTE
100
AcDbLine
 10
3.89999728
 20
4.725001979999999
 30
0.0
 11
3.89999728
 21
4.175000539999999
 31
0.0
  0
LINE
  5
21E
330
1D9
100
AcDbEntity
  8
TOPPASTE
100
AcDbLine
 10
3.59999788
 20
4.725001979999999
 30
0.0
 11
3.59999788
 21
4.175000539999999
 31
0.0
  0
ARC
  5
21F
330
1D9
100
AcDbEntity
  8
TOPPASTE
100
AcDbCircle
 10
3.74999758
 20
4.175000539999999
 30
0.0
 40
0.1499997
100
AcDbArc
 50
180.0
 51
0.0
  0
ARC
  5
220
330
1D9
100
AcDbEntity
  8
TOPPASTE
100
AcDbCircle
 10
4.174998
 20
3.75000012
 30
0.0
 40
0.1499997
100
AcDbArc
 50
90.0
 51
270.0
  0
LINE
  5
221
330
1D9
100
AcDbEntity
  8
TOPPASTE
100
AcDbLine
 10
4.174998
 20
3.89999982
 30
0.0
 11
4.72499944
 21
3.89999982
 31
0.0
  0
LINE
  5
222
330
1D9
100
AcDbEntity
  8
TOPPASTE
100
AcDbLine
 10
4.174998
 20
3.60000042
 30
0.0
 11
4.72499944
 21
3.60000042
 31
0.0
  0
ARC
  5
223
330
1D9
100
AcDbEntity
  8
TOPPASTE
100
AcDbCircle
 10
4.72499944
 20
3.75000012
 30
0.0
 40
0.1499997
100
AcDbArc
 50
270.0
 51
90.0
  0
ARC
  5
224
330
1D9
100
AcDbEntity
  8
TOPPASTE
100
AcDbCircle
 10
4.174998
 20
3.25000112
 30
0.0
 40
0.1499997
100
AcDbArc
 50
90.0
 51
270.0
  0
LINE
  5
225
330
1D9
100
AcDbEntity
  8
TOPPASTE
100
AcDbLine
 10
4.174998
 20
3.40000082
 30
0.0
 11
4.72499944
 21
3.40000082
 31
0.0
  0
LINE
  5
226
330
1D9
100
AcDbEntity
  8
TOPPASTE
100
AcDbLine
 10
4.174998
 20
3.10000142
 30
0.0
 11
4.72499944
 21
3.10000142
 31
0.0
  0
ARC
  5
227
330
1D9
100
AcDbEntity
  8
TOPPASTE
100
AcDbCircle
 10
4.72499944
 20
3.25000112
 30
0.0
 40
0.1499997
100
AcDbArc
 50
270.0
 51
90.0
  0
ARC
  5
228
330
1D9
100
AcDbEntity
  8
TOPPASTE
100
AcDbCircle
 10
4.174998
 20
2.75000212
 30
0.0
 40
0.1499997
100
AcDbArc
 50
90.0
 51
270.0
  0
LINE
  5
229
330
1D9
100
AcDbEntity
  8
TOPPASTE
100
AcDbLine
 10
4.174998
 20
2.90000182
 30
0.0
 11
4.72499944
 21
2.90000182
 31
0.0
  0
LINE
  5
22A
330
1D9
100
AcDbEntity
  8
TOPPASTE
100
AcDbLine
 10
4.174998
 20
2.60000242
 30
0.0
 11
4.72499944
 21
2.60000242
 31
0.0
  0
ARC
  5
22B
330
1D9
100
AcDbEntity
  8
TOPPASTE
100
AcDbCircle
 10
4.72499944
 20
2.75000212
 30
0.0
 40
0.1499997
100
AcDbArc
 50
270.0
 51
90.0
  0
ARC
  5
22C
330
1D9
100
AcDbEntity
  8
TOPPASTE
100
AcDbCircle
 10
4.174998
 20
2.25000058
 30
0.0
 40
0.1499997
100
AcDbArc
 50
90.0
 51
270.0
  0
LINE
  5
22D
330
1D9
100
AcDbEntity
  8
TOPPASTE
100
AcDbLine
 10
4.174998
 20
2.40000028
 30
0.0
 11
4.72499944
 21
2.40000028
 31
0.0
  0
LINE
  5
22E
330
1D9
100
AcDbEntity
  8
TOPPASTE
100
AcDbLine
 10
4.174998
 20
2.10000088
 30
0.0
 11
4.72499944
 21
2.10000088
 31
0.0
  0
ARC
  5
22F
330
1D9
100
AcDbEntity
  8
TOPPASTE
100
AcDbCircle
 10
4.72499944
 20
2.25000058
 30
0.0
 40
0.1499997
100
AcDbArc
 50
270.0
 51
90.0
  0
ARC
  5
230
330
1D9
100
AcDbEntity
  8
TOPPASTE
100
AcDbCircle
 10
4.174998
 20
1.75000158
 30
0.0
 40
0.1499997
100
AcDbArc
 50
90.0
 51
270.0
  0
LINE
  5
231
330
1D9
100
AcDbEntity
  8
TOPPASTE
100
AcDbLine
 10
4.174998
 20
1.90000128
 30
0.0
 11
4.72499944
 21
1.90000128
 31
0.0
  0
LINE
  5
232
330
1D9
100
AcDbEntity
  8
TOPPASTE
100
AcDbLine
 10
4.174998
 20
1.60000188
 30
0.0
 11
4.72499944
 21
1.60000188
 31
0.0
  0
ARC
  5
233
330
1D9
100
AcDbEntity
  8
TOPPASTE
100
AcDbCircle
 10
4.72499944
 20
1.75000158
 30
0.0
 40
0.1499997
100
AcDbArc
 50
270.0
 51
90.0
  0
ARC
  5
234
330
1D9
100
AcDbEntity
  8
TOPPASTE
100
AcDbCircle
 10
4.174998
 20
1.25000004
 30
0.0
 40
0.1499997
100
AcDbArc
 50
90.0
 51
270.0
  0
LINE
  5
235
330
1D9
100
AcDbEntity
  8
TOPPASTE
100
AcDbLine
 10
4.174998
 20
1.39999974
 30
0.0
 11
4.72499944
 21
1.39999974
 31
0.0
  0
LINE
  5
236
330
1D9
100
AcDbEntity
  8
TOPPASTE
100
AcDbLine
 10
4.174998
 20
1.10000034
 30
0.0
 11
4.72499944
 21
1.10000034
 31
0.0
  0
ARC
  5
237
330
1D9
100
AcDbEntity
  8
TOPPASTE
100
AcDbCircle
 10
4.72499944
 20
1.25000004
 30
0.0
 40
0.1499997
100
AcDbArc
 50
270.0
 51
90.0
  0
ARC
  5
238
330
1D9
100
AcDbEntity
  8
TOPPASTE
100
AcDbCircle
 10
4.174998
 20
0.75000104
 30
0.0
 40
0.1499997
100
AcDbArc
 50
90.0
 51
270.0
  0
LINE
  5
239
330
1D9
100
AcDbEntity
  8
TOPPASTE
100
AcDbLine
 10
4.174998
 20
0.90000074
 30
0.0
 11
4.72499944
 21
0.90000074
 31
0.0
  0
LINE
  5
23A
330
1D9
100
AcDbEntity
  8
TOPPASTE
100
AcDbLine
 10
4.174998
 20
0.6000013399999999
 30
0.0
 11
4.72499944
 21
0.6000013399999999
 31
0.0
  0
ARC
  5
23B
330
1D9
100
AcDbEntity
  8
TOPPASTE
100
AcDbCircle
 10
4.72499944
 20
0.75000104
 30
0.0
 40
0.1499997
100
AcDbArc
 50
270.0
 51
90.0
  0
ARC
  5
23C
330
1D9
100
AcDbEntity
  8
TOPPASTE
100
AcDbCircle
 10
4.174998
 20
0.25000204
 30
0.0
 40
0.1499997
100
AcDbArc
 50
90.0
 51
270.0
  0
LINE
  5
23D
330
1D9
100
AcDbEntity
  8
TOPPASTE
100
AcDbLine
 10
4.174998
 20
0.40000174
 30
0.0
 11
4.72499944
 21
0.40000174
 31
0.0
  0
LINE
  5
23E
330
1D9
100
AcDbEntity
  8
TOPPASTE
100
AcDbLine
 10
4.174998
 20
0.10000234
 30
0.0
 11
4.72499944
 21
0.10000234
 31
0.0
  0
ARC
  5
23F
330
1D9
100
AcDbEntity
  8
TOPPASTE
100
AcDbCircle
 10
4.72499944
 20
0.25000204
 30
0.0
 40
0.1499997
100
AcDbArc
 50
270.0
 51
90.0
  0
ARC
  5
240
330
1D9
100
AcDbEntity
  8
TOPPASTE
100
AcDbCircle
 10
4.174998
 20
-0.2499995
 30
0.0
 40
0.1499997
100
AcDbArc
 50
90.0
 51
270.0
  0
LINE
  5
241
330
1D9
100
AcDbEntity
  8
TOPPASTE
100
AcDbLine
 10
4.174998
 20
-0.0999998
 30
0.0
 11
4.72499944
 21
-0.0999998
 31
0.0
  0
LINE
  5
242
330
1D9
100
AcDbEntity
  8
TOPPASTE
100
AcDbLine
 10
4.174998
 20
-0.3999992
 30
0.0
 11
4.72499944
 21
-0.3999992
 31
0.0
  0
ARC
  5
243
330
1D9
100
AcDbEntity
  8
TOPPASTE
100
AcDbCircle
 10
4.72499944
 20
-0.2499995
 30
0.0
 40
0.1499997
100
AcDbArc
 50
270.0
 51
90.0
  0
ARC
  5
244
330
1D9
100
AcDbEntity
  8
TOPPASTE
100
AcDbCircle
 10
4.174998
 20
-0.7499985
 30
0.0
 40
0.1499997
100
AcDbArc
 50
90.0
 51
270.0
  0
LINE
  5
245
330
1D9
100
AcDbEntity
  8
TOPPASTE
100
AcDbLine
 10
4.174998
 20
-0.5999987999999999
 30
0.0
 11
4.72499944
 21
-0.5999987999999999
 31
0.0
  0
LINE
  5
246
330
1D9
100
AcDbEntity
  8
TOPPASTE
100
AcDbLine
 10
4.174998
 20
-0.8999982
 30
0.0
 11
4.72499944
 21
-0.8999982
 31
0.0
  0
ARC
  5
247
330
1D9
100
AcDbEntity
  8
TOPPASTE
100
AcDbCircle
 10
4.72499944
 20
-0.7499985
 30
0.0
 40
0.1499997
100
AcDbArc
 50
270.0
 51
90.0
  0
ARC
  5
248
330
1D9
100
AcDbEntity
  8
TOPPASTE
100
AcDbCircle
 10
4.174998
 20
-1.2499975
 30
0.0
 40
0.1499997
100
AcDbArc
 50
90.0
 51
270.0
  0
LINE
  5
249
330
1D9
100
AcDbEntity
  8
TOPPASTE
100
AcDbLine
 10
4.174998
 20
-1.0999978
 30
0.0
 11
4.72499944
 21
-1.0999978
 31
0.0
  0
LINE
  5
24A
330
1D9
100
AcDbEntity
  8
TOPPASTE
100
AcDbLine
 10
4.174998
 20
-1.3999972
 30
0.0
 11
4.72499944
 21
-1.3999972
 31
0.0
  0
ARC
  5
24B
330
1D9
100
AcDbEntity
  8
TOPPASTE
100
AcDbCircle
 10
4.72499944
 20
-1.2499975
 30
0.0
 40
0.1499997
100
AcDbArc
 50
270.0
 51
90.0
  0
ARC
  5
24C
330
1D9
100
AcDbEntity
  8
TOPPASTE
100
AcDbCircle
 10
4.174998
 20
-1.74999904
 30
0.0
 40
0.1499997
100
AcDbArc
 50
90.0
 51
270.0
  0
LINE
  5
24D
330
1D9
100
AcDbEntity
  8
TOPPASTE
100
AcDbLine
 10
4.174998
 20
-1.59999934
 30
0.0
 11
4.72499944
 21
-1.59999934
 31
0.0
  0
LINE
  5
24E
330
1D9
100
AcDbEntity
  8
TOPPASTE
100
AcDbLine
 10
4.174998
 20
-1.89999874
 30
0.0
 11
4.72499944
 21
-1.89999874
 31
0.0
  0
ARC
  5
24F
330
1D9
100
AcDbEntity
  8
TOPPASTE
100
AcDbCircle
 10
4.72499944
 20
-1.74999904
 30
0.0
 40
0.1499997
100
AcDbArc
 50
270.0
 51
90.0
  0
ARC
  5
250
330
1D9
100
AcDbEntity
  8
TOPPASTE
100
AcDbCircle
 10
4.174998
 20
-2.24999804
 30
0.0
 40
0.1499997
100
AcDbArc
 50
90.0
 51
270.0
  0
LINE
  5
251
330
1D9
100
AcDbEntity
  8
TOPPASTE
100
AcDbLine
 10
4.174998
 20
-2.09999834
 30
0.0
 11
4.72499944
 21
-2.09999834
 31
0.0
  0
LINE
  5
252
330
1D9
100
AcDbEntity
  8
TOPPASTE
100
AcDbLine
 10
4.174998
 20
-2.39999774
 30
0.0
 11
4.72499944
 21
-2.39999774
 31
0.0
  0
ARC
  5
253
330
1D9
100
AcDbEntity
  8
TOPPASTE
100
AcDbCircle
 10
4.72499944
 20
-2.24999804
 30
0.0
 40
0.1499997
100
AcDbArc
 50
270.0
 51
90.0
  0
ARC
  5
254
330
1D9
100
AcDbEntity
  8
TOPPASTE
100
AcDbCircle
 10
4.174998
 20
-2.74999958
 30
0.0
 40
0.1499997
100
AcDbArc
 50
90.0
 51
270.0
  0
LINE
  5
255
330
1D9
100
AcDbEntity
  8
TOPPASTE
100
AcDbLine
 10
4.174998
 20
-2.59999988
 30
0.0
 11
4.72499944
 21
-2.59999988
 31
0.0
  0
LINE
  5
256
330
1D9
100
AcDbEntity
  8
TOPPASTE
100
AcDbLine
 10
4.174998
 20
-2.89999928
 30
0.0
 11
4.72499944
 21
-2.89999928
 31
0.0
  0
ARC
  5
257
330
1D9
100
AcDbEntity
  8
TOPPASTE
100
AcDbCircle
 10
4.72499944
 20
-2.74999958
 30
0.0
 40
0.1499997
100
AcDbArc
 50
270.0
 51
90.0
  0
ARC
  5
258
330
1D9
100
AcDbEntity
  8
TOPPASTE
100
AcDbCircle
 10
4.174998
 20
-3.24999858
 30
0.0
 40
0.1499997
100
AcDbArc
 50
90.0
 51
270.0
  0
LINE
  5
259
330
1D9
100
AcDbEntity
  8
TOPPASTE
100
AcDbLine
 10
4.174998
 20
-3.09999888
 30
0.0
 11
4.72499944
 21
-3.09999888
 31
0.0
  0
LINE
  5
25A
330
1D9
100
AcDbEntity
  8
TOPPASTE
100
AcDbLine
 10
4.174998
 20
-3.39999828
 30
0.0
 11
4.72499944
 21
-3.39999828
 31
0.0
  0
ARC
  5
25B
330
1D9
100
AcDbEntity
  8
TOPPASTE
100
AcDbCircle
 10
4.72499944
 20
-3.24999858
 30
0.0
 40
0.1499997
100
AcDbArc
 50
270.0
 51
90.0
  0
ARC
  5
25C
330
1D9
100
AcDbEntity
  8
TOPPASTE
100
AcDbCircle
 10
4.174998
 20
-3.74999758
 30
0.0
 40
0.1499997
100
AcDbArc
 50
90.0
 51
270.0
  0
LINE
  5
25D
330
1D9
100
AcDbEntity
  8
TOPPASTE
100
AcDbLine
 10
4.174998
 20
-3.59999788
 30
0.0
 11
4.72499944
 21
-3.59999788
 31
0.0
  0
LINE
  5
25E
330
1D9
100
AcDbEntity
  8
TOPPASTE
100
AcDbLine
 10
4.174998
 20
-3.89999728
 30
0.0
 11
4.72499944
 21
-3.89999728
 31
0.0
  0
ARC
  5
25F
330
1D9
100
AcDbEntity
  8
TOPPASTE
100
AcDbCircle
 10
4.72499944
 20
-3.74999758
 30
0.0
 40
0.1499997
100
AcDbArc
 50
270.0
 51
90.0
  0
ARC
  5
260
330
1D9
100
AcDbEntity
  8
TOPPASTE
100
AcDbCircle
 10
3.74999758
 20
-4.174998
 30
0.0
 40
0.1499997
100
AcDbArc
 50
0.0
 51
180.0
  0
LINE
  5
261
330
1D9
100
AcDbEntity
  8
TOPPASTE
100
AcDbLine
 10
3.89999728
 20
-4.174998
 30
0.0
 11
3.89999728
 21
-4.72499944
 31
0.0
  0
LINE
  5
262
330
1D9
100
AcDbEntity
  8
TOPPASTE
100
AcDbLine
 10
3.59999788
 20
-4.174998
 30
0.0
 11
3.59999788
 21
-4.72499944
 31
0.0
  0
ARC
  5
263
330
1D9
100
AcDbEntity
  8
TOPPASTE
100
AcDbCircle
 10
3.74999758
 20
-4.72499944
 30
0.0
 40
0.1499997
100
AcDbArc
 50
180.0
 51
0.0
  0
ARC
  5
264
330
1D9
100
AcDbEntity
  8
TOPPASTE
100
AcDbCircle
 10
3.24999858
 20
-4.174998
 30
0.0
 40
0.1499997
100
AcDbArc
 50
0.0
 51
180.0
  0
LINE
  5
265
330
1D9
100
AcDbEntity
  8
TOPPASTE
100
AcDbLine
 10
3.39999828
 20
-4.174998
 30
0.0
 11
3.39999828
 21
-4.72499944
 31
0.0
  0
LINE
  5
266
330
1D9
100
AcDbEntity
  8
TOPPASTE
100
AcDbLine
 10
3.09999888
 20
-4.174998
 30
0.0
 11
3.09999888
 21
-4.72499944
 31
0.0
  0
ARC
  5
267
330
1D9
100
AcDbEntity
  8
TOPPASTE
100
AcDbCircle
 10
3.24999858
 20
-4.72499944
 30
0.0
 40
0.1499997
100
AcDbArc
 50
180.0
 51
0.0
  0
ARC
  5
268
330
1D9
100
AcDbEntity
  8
TOPPASTE
100
AcDbCircle
 10
2.74999958
 20
-4.174998
 30
0.0
 40
0.1499997
100
AcDbArc
 50
0.0
 51
180.0
  0
LINE
  5
269
330
1D9
100
AcDbEntity
  8
TOPPASTE
100
AcDbLine
 10
2.89999928
 20
-4.174998
 30
0.0
 11
2.89999928
 21
-4.72499944
 31
0.0
  0
LINE
  5
26A
330
1D9
100
AcDbEntity
  8
TOPPASTE
100
AcDbLine
 10
2.59999988
 20
-4.174998
 30
0.0
 11
2.59999988
 21
-4.72499944
 31
0.0
  0
ARC
  5
26B
330
1D9
100
AcDbEntity
  8
TOPPASTE
100
AcDbCircle
 10
2.74999958
 20
-4.72499944
 30
0.0
 40
0.1499997
100
AcDbArc
 50
180.0
 51
0.0
  0
ARC
  5
26C
330
1D9
100
AcDbEntity
  8
TOPPASTE
100
AcDbCircle
 10
2.24999804
 20
-4.174998
 30
0.0
 40
0.1499997
100
AcDbArc
 50
0.0
 51
180.0
  0
LINE
  5
26D
330
1D9
100
AcDbEntity
  8
TOPPASTE
100
AcDbLine
 10
2.39999774
 20
-4.174998
 30
0.0
 11
2.39999774
 21
-4.72499944
 31
0.0
  0
LINE
  5
26E
330
1D9
100
AcDbEntity
  8
TOPPASTE
100
AcDbLine
 10
2.09999834
 20
-4.174998
 30
0.0
 11
2.09999834
 21
-4.72499944
 31
0.0
  0
ARC
  5
26F
330
1D9
100
AcDbEntity
  8
TOPPASTE
100
AcDbCircle
 10
2.24999804
 20
-4.72499944
 30
0.0
 40
0.1499997
100
AcDbArc
 50
180.0
 51
0.0
  0
ARC
  5
270
330
1D9
100
AcDbEntity
  8
TOPPASTE
100
AcDbCircle
 10
1.74999904
 20
-4.174998
 30
0.0
 40
0.1499997
100
AcDbArc
 50
0.0
 51
180.0
  0
LINE
  5
271
330
1D9
100
AcDbEntity
  8
TOPPASTE
100
AcDbLine
 10
1.89999874
 20
-4.174998
 30
0.0
 11
1.89999874
 21
-4.72499944
 31
0.0
  0
LINE
  5
272
330
1D9
100
AcDbEntity
  8
TOPPASTE
100
AcDbLine
 10
1.59999934
 20
-4.174998
 30
0.0
 11
1.59999934
 21
-4.72499944
 31
0.0
  0
ARC
  5
273
330
1D9
100
AcDbEntity
  8
TOPPASTE
100
AcDbCircle
 10
1.74999904
 20
-4.72499944
 30
0.0
 40
0.1499997
100
AcDbArc
 50
180.0
 51
0.0
  0
ARC
  5
274
330
1D9
100
AcDbEntity
  8
TOPPASTE
100
AcDbCircle
 10
1.2499975
 20
-4.174998
 30
0.0
 40
0.1499997
100
AcDbArc
 50
0.0
 51
180.0
  0
LINE
  5
275
330
1D9
100
AcDbEntity
  8
TOPPASTE
100
AcDbLine
 10
1.3999972
 20
-4.174998
 30
0.0
 11
1.3999972
 21
-4.72499944
 31
0.0
  0
LINE
  5
276
330
1D9
100
AcDbEntity
  8
TOPPASTE
100
AcDbLine
 10
1.0999978
 20
-4.174998
 30
0.0
 11
1.0999978
 21
-4.72499944
 31
0.0
  0
ARC
  5
277
330
1D9
100
AcDbEntity
  8
TOPPASTE
100
AcDbCircle
 10
1.2499975
 20
-4.72499944
 30
0.0
 40
0.1499997
100
AcDbArc
 50
180.0
 51
0.0
  0
ARC
  5
278
330
1D9
100
AcDbEntity
  8
TOPPASTE
100
AcDbCircle
 10
0.7499985
 20
-4.174998
 30
0.0
 40
0.1499997
100
AcDbArc
 50
0.0
 51
180.0
  0
LINE
  5
279
330
1D9
100
AcDbEntity
  8
TOPPASTE
100
AcDbLine
 10
0.8999982
 20
-4.174998
 30
0.0
 11
0.8999982
 21
-4.72499944
 31
0.0
  0
LINE
  5
27A
330
1D9
100
AcDbEntity
  8
TOPPASTE
100
AcDbLine
 10
0.5999987999999999
 20
-4.174998
 30
0.0
 11
0.5999987999999999
 21
-4.72499944
 31
0.0
  0
ARC
  5
27B
330
1D9
100
AcDbEntity
  8
TOPPASTE
100
AcDbCircle
 10
0.7499985
 20
-4.72499944
 30
0.0
 40
0.1499997
100
AcDbArc
 50
180.0
 51
0.0
  0
ARC
  5
27C
330
1D9
100
AcDbEntity
  8
TOPPASTE
100
AcDbCircle
 10
0.2499995
 20
-4.174998
 30
0.0
 40
0.1499997
100
AcDbArc
 50
0.0
 51
180.0
  0
LINE
  5
27D
330
1D9
100
AcDbEntity
  8
TOPPASTE
100
AcDbLine
 10
0.3999992
 20
-4.174998
 30
0.0
 11
0.3999992
 21
-4.72499944
 31
0.0
  0
LINE
  5
27E
330
1D9
100
AcDbEntity
  8
TOPPASTE
100
AcDbLine
 10
0.0999998
 20
-4.174998
 30
0.0
 11
0.0999998
 21
-4.72499944
 31
0.0
  0
ARC
  5
27F
330
1D9
100
AcDbEntity
  8
TOPPASTE
100
AcDbCircle
 10
0.2499995
 20
-4.72499944
 30
0.0
 40
0.1499997
100
AcDbArc
 50
180.0
 51
0.0
  0
ARC
  5
280
330
1D9
100
AcDbEntity
  8
TOPPASTE
100
AcDbCircle
 10
-0.25000204
 20
-4.174998
 30
0.0
 40
0.1499997
100
AcDbArc
 50
0.0
 51
180.0
  0
LINE
  5
281
330
1D9
100
AcDbEntity
  8
TOPPASTE
100
AcDbLine
 10
-0.10000234
 20
-4.174998
 30
0.0
 11
-0.10000234
 21
-4.72499944
 31
0.0
  0
LINE
  5
282
330
1D9
100
AcDbEntity
  8
TOPPASTE
100
AcDbLine
 10
-0.40000174
 20
-4.174998
 30
0.0
 11
-0.40000174
 21
-4.72499944
 31
0.0
  0
ARC
  5
283
330
1D9
100
AcDbEntity
  8
TOPPASTE
100
AcDbCircle
 10
-0.25000204
 20
-4.72499944
 30
0.0
 40
0.1499997
100
AcDbArc
 50
180.0
 51
0.0
  0
ARC
  5
284
330
1D9
100
AcDbEntity
  8
TOPPASTE
100
AcDbCircle
 10
-0.75000104
 20
-4.174998
 30
0.0
 40
0.1499997
100
AcDbArc
 50
0.0
 51
180.0
  0
LINE
  5
285
330
1D9
100
AcDbEntity
  8
TOPPASTE
100
AcDbLine
 10
-0.6000013399999999
 20
-4.174998
 30
0.0
 11
-0.6000013399999999
 21
-4.72499944
 31
0.0
  0
LINE
  5
286
330
1D9
100
AcDbEntity
  8
TOPPASTE
100
AcDbLine
 10
-0.90000074
 20
-4.174998
 30
0.0
 11
-0.90000074
 21
-4.72499944
 31
0.0
  0
ARC
  5
287
330
1D9
100
AcDbEntity
  8
TOPPASTE
100
AcDbCircle
 10
-0.75000104
 20
-4.72499944
 30
0.0
 40
0.1499997
100
AcDbArc
 50
180.0
 51
0.0
  0
ARC
  5
288
330
1D9
100
AcDbEntity
  8
TOPPASTE
100
AcDbCircle
 10
-1.25000004
 20
-4.174998
 30
0.0
 40
0.1499997
100
AcDbArc
 50
0.0
 51
180.0
  0
LINE
  5
289
330
1D9
100
AcDbEntity
  8
TOPPASTE
100
AcDbLine
 10
-1.10000034
 20
-4.174998
 30
0.0
 11
-1.10000034
 21
-4.72499944
 31
0.0
  0
LINE
  5
28A
330
1D9
100
AcDbEntity
  8
TOPPASTE
100
AcDbLine
 10
-1.39999974
 20
-4.174998
 30
0.0
 11
-1.39999974
 21
-4.72499944
 31
0.0
  0
ARC
  5
28B
330
1D9
100
AcDbEntity
  8
TOPPASTE
100
AcDbCircle
 10
-1.25000004
 20
-4.72499944
 30
0.0
 40
0.1499997
100
AcDbArc
 50
180.0
 51
0.0
  0
ARC
  5
28C
330
1D9
100
AcDbEntity
  8
TOPPASTE
100
AcDbCircle
 10
-1.75000158
 20
-4.174998
 30
0.0
 40
0.1499997
100
AcDbArc
 50
0.0
 51
180.0
  0
LINE
  5
28D
330
1D9
100
AcDbEntity
  8
TOPPASTE
100
AcDbLine
 10
-1.60000188
 20
-4.174998
 30
0.0
 11
-1.60000188
 21
-4.72499944
 31
0.0
  0
LINE
  5
28E
330
1D9
100
AcDbEntity
  8
TOPPASTE
100
AcDbLine
 10
-1.90000128
 20
-4.174998
 30
0.0
 11
-1.90000128
 21
-4.72499944
 31
0.0
  0
ARC
  5
28F
330
1D9
100
AcDbEntity
  8
TOPPASTE
100
AcDbCircle
 10
-1.75000158
 20
-4.72499944
 30
0.0
 40
0.1499997
100
AcDbArc
 50
180.0
 51
0.0
  0
ARC
  5
290
330
1D9
100
AcDbEntity
  8
TOPPASTE
100
AcDbCircle
 10
-2.25000058
 20
-4.174998
 30
0.0
 40
0.1499997
100
AcDbArc
 50
0.0
 51
180.0
  0
LINE
  5
291
330
1D9
100
AcDbEntity
  8
TOPPASTE
100
AcDbLine
 10
-2.10000088
 20
-4.174998
 30
0.0
 11
-2.10000088
 21
-4.72499944
 31
0.0
  0
LINE
  5
292
330
1D9
100
AcDbEntity
  8
TOPPASTE
100
AcDbLine
 10
-2.40000028
 20
-4.174998
 30
0.0
 11
-2.40000028
 21
-4.72499944
 31
0.0
  0
ARC
  5
293
330
1D9
100
AcDbEntity
  8
TOPPASTE
100
AcDbCircle
 10
-2.25000058
 20
-4.72499944
 30
0.0
 40
0.1499997
100
AcDbArc
 50
180.0
 51
0.0
  0
ARC
  5
294
330
1D9
100
AcDbEntity
  8
TOPPASTE
100
AcDbCircle
 10
-2.75000212
 20
-4.174998
 30
0.0
 40
0.1499997
100
AcDbArc
 50
0.0
 51
180.0
  0
LINE
  5
295
330
1D9
100
AcDbEntity
  8
TOPPASTE
100
AcDbLine
 10
-2.60000242
 20
-4.174998
 30
0.0
 11
-2.60000242
 21
-4.72499944
 31
0.0
  0
LINE
  5
296
330
1D9
100
AcDbEntity
  8
TOPPASTE
100
AcDbLine
 10
-2.90000182
 20
-4.174998
 30
0.0
 11
-2.90000182
 21
-4.72499944
 31
0.0
  0
ARC
  5
297
330
1D9
100
AcDbEntity
  8
TOPPASTE
100
AcDbCircle
 10
-2.75000212
 20
-4.72499944
 30
0.0
 40
0.1499997
100
AcDbArc
 50
180.0
 51
0.0
  0
ARC
  5
298
330
1D9
100
AcDbEntity
  8
TOPPASTE
100
AcDbCircle
 10
-3.25000112
 20
-4.174998
 30
0.0
 40
0.1499997
100
AcDbArc
 50
0.0
 51
180.0
  0
LINE
  5
299
330
1D9
100
AcDbEntity
  8
TOPPASTE
100
AcDbLine
 10
-3.10000142
 20
-4.174998
 30
0.0
 11
-3.10000142
 21
-4.72499944
 31
0.0
  0
LINE
  5
29A
330
1D9
100
AcDbEntity
  8
TOPPASTE
100
AcDbLine
 10
-3.40000082
 20
-4.174998
 30
0.0
 11
-3.40000082
 21
-4.72499944
 31
0.0
  0
ARC
  5
29B
330
1D9
100
AcDbEntity
  8
TOPPASTE
100
AcDbCircle
 10
-3.25000112
 20
-4.72499944
 30
0.0
 40
0.1499997
100
AcDbArc
 50
180.0
 51
0.0
  0
ARC
  5
29C
330
1D9
100
AcDbEntity
  8
TOPPASTE
100
AcDbCircle
 10
-3.75000012
 20
-4.174998
 30
0.0
 40
0.1499997
100
AcDbArc
 50
0.0
 51
180.0
  0
LINE
  5
29D
330
1D9
100
AcDbEntity
  8
TOPPASTE
100
AcDbLine
 10
-3.60000042
 20
-4.174998
 30
0.0
 11
-3.60000042
 21
-4.72499944
 31
0.0
  0
LINE
  5
29E
330
1D9
100
AcDbEntity
  8
TOPPASTE
100
AcDbLine
 10
-3.89999982
 20
-4.174998
 30
0.0
 11
-3.89999982
 21
-4.72499944
 31
0.0
  0
ARC
  5
29F
330
1D9
100
AcDbEntity
  8
TOPPASTE
100
AcDbCircle
 10
-3.75000012
 20
-4.72499944
 30
0.0
 40
0.1499997
100
AcDbArc
 50
180.0
 51
0.0
  0
ARC
  5
2A0
330
1D9
100
AcDbEntity
  8
TOPPASTE
100
AcDbCircle
 10
-4.725001979999999
 20
-3.74999758
 30
0.0
 40
0.1499997
100
AcDbArc
 50
90.0
 51
270.0
  0
LINE
  5
2A1
330
1D9
100
AcDbEntity
  8
TOPPASTE
100
AcDbLine
 10
-4.725001979999999
 20
-3.59999788
 30
0.0
 11
-4.175000539999999
 21
-3.59999788
 31
0.0
  0
LINE
  5
2A2
330
1D9
100
AcDbEntity
  8
TOPPASTE
100
AcDbLine
 10
-4.725001979999999
 20
-3.89999728
 30
0.0
 11
-4.175000539999999
 21
-3.89999728
 31
0.0
  0
ARC
  5
2A3
330
1D9
100
AcDbEntity
  8
TOPPASTE
100
AcDbCircle
 10
-4.175000539999999
 20
-3.74999758
 30
0.0
 40
0.1499997
100
AcDbArc
 50
270.0
 51
90.0
  0
ARC
  5
2A4
330
1D9
100
AcDbEntity
  8
TOPPASTE
100
AcDbCircle
 10
-4.725001979999999
 20
-3.24999858
 30
0.0
 40
0.1499997
100
AcDbArc
 50
90.0
 51
270.0
  0
LINE
  5
2A5
330
1D9
100
AcDbEntity
  8
TOPPASTE
100
AcDbLine
 10
-4.725001979999999
 20
-3.09999888
 30
0.0
 11
-4.175000539999999
 21
-3.09999888
 31
0.0
  0
LINE
  5
2A6
330
1D9
100
AcDbEntity
  8
TOPPASTE
100
AcDbLine
 10
-4.725001979999999
 20
-3.39999828
 30
0.0
 11
-4.175000539999999
 21
-3.39999828
 31
0.0
  0
ARC
  5
2A7
330
1D9
100
AcDbEntity
  8
TOPPASTE
100
AcDbCircle
 10
-4.175000539999999
 20
-3.24999858
 30
0.0
 40
0.1499997
100
AcDbArc
 50
270.0
 51
90.0
  0
ARC
  5
2A8
330
1D9
100
AcDbEntity
  8
TOPPASTE
100
AcDbCircle
 10
-4.725001979999999
 20
-2.74999958
 30
0.0
 40
0.1499997
100
AcDbArc
 50
90.0
 51
270.0
  0
LINE
  5
2A9
330
1D9
100
AcDbEntity
  8
TOPPASTE
100
AcDbLine
 10
-4.725001979999999
 20
-2.59999988
 30
0.0
 11
-4.175000539999999
 21
-2.59999988
 31
0.0
  0
LINE
  5
2AA
330
1D9
100
AcDbEntity
  8
TOPPASTE
100
AcDbLine
 10
-4.725001979999999
 20
-2.89999928
 30
0.0
 11
-4.175000539999999
 21
-2.89999928
 31
0.0
  0
ARC
  5
2AB
330
1D9
100
AcDbEntity
  8
TOPPASTE
100
AcDbCircle
 10
-4.175000539999999
 20
-2.74999958
 30
0.0
 40
0.1499997
100
AcDbArc
 50
270.0
 51
90.0
  0
ARC
  5
2AC
330
1D9
100
AcDbEntity
  8
TOPPASTE
100
AcDbCircle
 10
-4.725001979999999
 20
-2.24999804
 30
0.0
 40
0.1499997
100
AcDbArc
 50
90.0
 51
270.0
  0
LINE
  5
2AD
330
1D9
100
AcDbEntity
  8
TOPPASTE
100
AcDbLine
 10
-4.725001979999999
 20
-2.09999834
 30
0.0
 11
-4.175000539999999
 21
-2.09999834
 31
0.0
  0
LINE
  5
2AE
330
1D9
100
AcDbEntity
  8
TOPPASTE
100
AcDbLine
 10
-4.725001979999999
 20
-2.39999774
 30
0.0
 11
-4.175000539999999
 21
-2.39999774
 31
0.0
  0
ARC
  5
2AF
330
1D9
100
AcDbEntity
  8
TOPPASTE
100
AcDbCircle
 10
-4.175000539999999
 20
-2.24999804
 30
0.0
 40
0.1499997
100
AcDbArc
 50
270.0
 51
90.0
  0
ARC
  5
2B0
330
1D9
100
AcDbEntity
  8
TOPPASTE
100
AcDbCircle
 10
-4.725001979999999
 20
-1.74999904
 30
0.0
 40
0.1499997
100
AcDbArc
 50
90.0
 51
270.0
  0
LINE
  5
2B1
330
1D9
100
AcDbEntity
  8
TOPPASTE
100
AcDbLine
 10
-4.725001979999999
 20
-1.59999934
 30
0.0
 11
-4.175000539999999
 21
-1.59999934
 31
0.0
  0
LINE
  5
2B2
330
1D9
100
AcDbEntity
  8
TOPPASTE
100
AcDbLine
 10
-4.725001979999999
 20
-1.89999874
 30
0.0
 11
-4.175000539999999
 21
-1.89999874
 31
0.0
  0
ARC
  5
2B3
330
1D9
100
AcDbEntity
  8
TOPPASTE
100
AcDbCircle
 10
-4.175000539999999
 20
-1.74999904
 30
0.0
 40
0.1499997
100
AcDbArc
 50
270.0
 51
90.0
  0
ARC
  5
2B4
330
1D9
100
AcDbEntity
  8
TOPPASTE
100
AcDbCircle
 10
-4.725001979999999
 20
-1.2499975
 30
0.0
 40
0.1499997
100
AcDbArc
 50
90.0
 51
270.0
  0
LINE
  5
2B5
330
1D9
100
AcDbEntity
  8
TOPPASTE
100
AcDbLine
 10
-4.725001979999999
 20
-1.0999978
 30
0.0
 11
-4.175000539999999
 21
-1.0999978
 31
0.0
  0
LINE
  5
2B6
330
1D9
100
AcDbEntity
  8
TOPPASTE
100
AcDbLine
 10
-4.725001979999999
 20
-1.3999972
 30
0.0
 11
-4.175000539999999
 21
-1.3999972
 31
0.0
  0
ARC
  5
2B7
330
1D9
100
AcDbEntity
  8
TOPPASTE
100
AcDbCircle
 10
-4.175000539999999
 20
-1.2499975
 30
0.0
 40
0.1499997
100
AcDbArc
 50
270.0
 51
90.0
  0
ARC
  5
2B8
330
1D9
100
AcDbEntity
  8
TOPPASTE
100
AcDbCircle
 10
-4.725001979999999
 20
-0.7499985
 30
0.0
 40
0.1499997
100
AcDbArc
 50
90.0
 51
270.0
  0
LINE
  5
2B9
330
1D9
100
AcDbEntity
  8
TOPPASTE
100
AcDbLine
 10
-4.725001979999999
 20
-0.5999987999999999
 30
0.0
 11
-4.175000539999999
 21
-0.5999987999999999
 31
0.0
  0
LINE
  5
2BA
330
1D9
100
AcDbEntity
  8
TOPPASTE
100
AcDbLine
 10
-4.725001979999999
 20
-0.8999982
 30
0.0
 11
-4.175000539999999
 21
-0.8999982
 31
0.0
  0
ARC
  5
2BB
330
1D9
100
AcDbEntity
  8
TOPPASTE
100
AcDbCircle
 10
-4.175000539999999
 20
-0.7499985
 30
0.0
 40
0.1499997
100
AcDbArc
 50
270.0
 51
90.0
  0
ARC
  5
2BC
330
1D9
100
AcDbEntity
  8
TOPPASTE
100
AcDbCircle
 10
-4.725001979999999
 20
-0.2499995
 30
0.0
 40
0.1499997
100
AcDbArc
 50
90.0
 51
270.0
  0
LINE
  5
2BD
330
1D9
100
AcDbEntity
  8
TOPPASTE
100
AcDbLine
 10
-4.725001979999999
 20
-0.0999998
 30
0.0
 11
-4.175000539999999
 21
-0.0999998
 31
0.0
  0
LINE
  5
2BE
330
1D9
100
AcDbEntity
  8
TOPPASTE
100
AcDbLine
 10
-4.725001979999999
 20
-0.3999992
 30
0.0
 11
-4.175000539999999
 21
-0.3999992
 31
0.0
  0
ARC
  5
2BF
330
1D9
100
AcDbEntity
  8
TOPPASTE
100
AcDbCircle
 10
-4.175000539999999
 20
-0.2499995
 30
0.0
 40
0.1499997
100
AcDbArc
 50
270.0
 51
90.0
  0
ARC
  5
2C0
330
1D9
100
AcDbEntity
  8
TOPPASTE
100
AcDbCircle
 10
-4.725001979999999
 20
0.25000204
 30
0.0
 40
0.1499997
100
AcDbArc
 50
90.0
 51
270.0
  0
LINE
  5
2C1
330
1D9
100
AcDbEntity
  8
TOPPASTE
100
AcDbLine
 10
-4.725001979999999
 20
0.40000174
 30
0.0
 11
-4.175000539999999
 21
0.40000174
 31
0.0
  0
LINE
  5
2C2
330
1D9
100
AcDbEntity
  8
TOPPASTE
100
AcDbLine
 10
-4.725001979999999
 20
0.10000234
 30
0.0
 11
-4.175000539999999
 21
0.10000234
 31
0.0
  0
ARC
  5
2C3
330
1D9
100
AcDbEntity
  8
TOPPASTE
100
AcDbCircle
 10
-4.175000539999999
 20
0.25000204
 30
0.0
 40
0.1499997
100
AcDbArc
 50
270.0
 51
90.0
  0
ARC
  5
2C4
330
1D9
100
AcDbEntity
  8
TOPPASTE
100
AcDbCircle
 10
-4.725001979999999
 20
0.75000104
 30
0.0
 40
0.1499997
100
AcDbArc
 50
90.0
 51
270.0
  0
LINE
  5
2C5
330
1D9
100
AcDbEntity
  8
TOPPASTE
100
AcDbLine
 10
-4.725001979999999
 20
0.90000074
 30
0.0
 11
-4.175000539999999
 21
0.90000074
 31
0.0
  0
LINE
  5
2C6
330
1D9
100
AcDbEntity
  8
TOPPASTE
100
AcDbLine
 10
-4.725001979999999
 20
0.6000013399999999
 30
0.0
 11
-4.175000539999999
 21
0.6000013399999999
 31
0.0
  0
ARC
  5
2C7
330
1D9
100
AcDbEntity
  8
TOPPASTE
100
AcDbCircle
 10
-4.175000539999999
 20
0.75000104
 30
0.0
 40
0.1499997
100
AcDbArc
 50
270.0
 51
90.0
  0
ARC
  5
2C8
330
1D9
100
AcDbEntity
  8
TOPPASTE
100
AcDbCircle
 10
-4.725001979999999
 20
1.25000004
 30
0.0
 40
0.1499997
100
AcDbArc
 50
90.0
 51
270.0
  0
LINE
  5
2C9
330
1D9
100
AcDbEntity
  8
TOPPASTE
100
AcDbLine
 10
-4.725001979999999
 20
1.39999974
 30
0.0
 11
-4.175000539999999
 21
1.39999974
 31
0.0
  0
LINE
  5
2CA
330
1D9
100
AcDbEntity
  8
TOPPASTE
100
AcDbLine
 10
-4.725001979999999
 20
1.10000034
 30
0.0
 11
-4.175000539999999
 21
1.10000034
 31
0.0
  0
ARC
  5
2CB
330
1D9
100
AcDbEntity
  8
TOPPASTE
100
AcDbCircle
 10
-4.175000539999999
 20
1.25000004
 30
0.0
 40
0.1499997
100
AcDbArc
 50
270.0
 51
90.0
  0
ARC
  5
2CC
330
1D9
100
AcDbEntity
  8
TOPPASTE
100
AcDbCircle
 10
-4.725001979999999
 20
1.75000158
 30
0.0
 40
0.1499997
100
AcDbArc
 50
90.0
 51
270.0
  0
LINE
  5
2CD
330
1D9
100
AcDbEntity
  8
TOPPASTE
100
AcDbLine
 10
-4.725001979999999
 20
1.90000128
 30
0.0
 11
-4.175000539999999
 21
1.90000128
 31
0.0
  0
LINE
  5
2CE
330
1D9
100
AcDbEntity
  8
TOPPASTE
100
AcDbLine
 10
-4.725001979999999
 20
1.60000188
 30
0.0
 11
-4.175000539999999
 21
1.60000188
 31
0.0
  0
ARC
  5
2CF
330
1D9
100
AcDbEntity
  8
TOPPASTE
100
AcDbCircle
 10
-4.175000539999999
 20
1.75000158
 30
0.0
 40
0.1499997
100
AcDbArc
 50
270.0
 51
90.0
  0
ARC
  5
2D0
330
1D9
100
AcDbEntity
  8
TOPPASTE
100
AcDbCircle
 10
-4.725001979999999
 20
2.25000058
 30
0.0
 40
0.1499997
100
AcDbArc
 50
90.0
 51
270.0
  0
LINE
  5
2D1
330
1D9
100
AcDbEntity
  8
TOPPASTE
100
AcDbLine
 10
-4.725001979999999
 20
2.40000028
 30
0.0
 11
-4.175000539999999
 21
2.40000028
 31
0.0
  0
LINE
  5
2D2
330
1D9
100
AcDbEntity
  8
TOPPASTE
100
AcDbLine
 10
-4.725001979999999
 20
2.10000088
 30
0.0
 11
-4.175000539999999
 21
2.10000088
 31
0.0
  0
ARC
  5
2D3
330
1D9
100
AcDbEntity
  8
TOPPASTE
100
AcDbCircle
 10
-4.175000539999999
 20
2.25000058
 30
0.0
 40
0.1499997
100
AcDbArc
 50
270.0
 51
90.0
  0
ARC
  5
2D4
330
1D9
100
AcDbEntity
  8
TOPPASTE
100
AcDbCircle
 10
-4.725001979999999
 20
2.75000212
 30
0.0
 40
0.1499997
100
AcDbArc
 50
90.0
 51
270.0
  0
LINE
  5
2D5
330
1D9
100
AcDbEntity
  8
TOPPASTE
100
AcDbLine
 10
-4.725001979999999
 20
2.90000182
 30
0.0
 11
-4.175000539999999
 21
2.90000182
 31
0.0
  0
LINE
  5
2D6
330
1D9
100
AcDbEntity
  8
TOPPASTE
100
AcDbLine
 10
-4.725001979999999
 20
2.60000242
 30
0.0
 11
-4.175000539999999
 21
2.60000242
 31
0.0
  0
ARC
  5
2D7
330
1D9
100
AcDbEntity
  8
TOPPASTE
100
AcDbCircle
 10
-4.175000539999999
 20
2.75000212
 30
0.0
 40
0.1499997
100
AcDbArc
 50
270.0
 51
90.0
  0
ARC
  5
2D8
330
1D9
100
AcDbEntity
  8
TOPPASTE
100
AcDbCircle
 10
-4.725001979999999
 20
3.25000112
 30
0.0
 40
0.1499997
100
AcDbArc
 50
90.0
 51
270.0
  0
LINE
  5
2D9
330
1D9
100
AcDbEntity
  8
TOPPASTE
100
AcDbLine
 10
-4.725001979999999
 20
3.40000082
 30
0.0
 11
-4.175000539999999
 21
3.40000082
 31
0.0
  0
LINE
  5
2DA
330
1D9
100
AcDbEntity
  8
TOPPASTE
100
AcDbLine
 10
-4.725001979999999
 20
3.10000142
 30
0.0
 11
-4.175000539999999
 21
3.10000142
 31
0.0
  0
ARC
  5
2DB
330
1D9
100
AcDbEntity
  8
TOPPASTE
100
AcDbCircle
 10
-4.175000539999999
 20
3.25000112
 30
0.0
 40
0.1499997
100
AcDbArc
 50
270.0
 51
90.0
  0
ARC
  5
2DC
330
1D9
100
AcDbEntity
  8
TOPPASTE
100
AcDbCircle
 10
-4.725001979999999
 20
3.75000012
 30
0.0
 40
0.1499997
100
AcDbArc
 50
90.0
 51
270.0
  0
LINE
  5
2DD
330
1D9
100
AcDbEntity
  8
TOPPASTE
100
AcDbLine
 10
-4.725001979999999
 20
3.89999982
 30
0.0
 11
-4.175000539999999
 21
3.89999982
 31
0.0
  0
LINE
  5
2DE
330
1D9
100
AcDbEntity
  8
TOPPASTE
100
AcDbLine
 10
-4.725001979999999
 20
3.60000042
 30
0.0
 11
-4.175000539999999
 21
3.60000042
 31
0.0
  0
ARC
  5
2DF
330
1D9
100
AcDbEntity
  8
TOPPASTE
100
AcDbCircle
 10
-4.175000539999999
 20
3.75000012
 30
0.0
 40
0.1499997
100
AcDbArc
 50
270.0
 51
90.0
  0
ENDBLK
  5
1DB
330
1D9
100
AcDbEntity
  8
0
100
AcDbBlockEnd
  0
BLOCK
  5
2E2
330
2E1
100
AcDbEntity
  8
0
100
AcDbBlockBegin
  2
RES_0603_1608_18
 70
     0
 10
0.0
 20
0.0
 30
0.0
  3
RES_0603_1608_18
  1

  0
LINE
  5
2E4
330
2E1
100
AcDbEntity
  8
TOPPASTE
100
AcDbLine
 10
0.37500052
 20
-0.4499991
 30
0.0
 11
0.9749993199999999
 21
-0.4499991
 31
0.0
  0
LINE
  5
2E5
330
2E1
100
AcDbEntity
  8
TOPPASTE
100
AcDbLine
 10
0.9749993199999999
 20
-0.4499991
 30
0.0
 11
0.9749993199999999
 21
0.4499991
 31
0.0
  0
LINE
  5
2E6
330
2E1
100
AcDbEntity
  8
TOPPASTE
100
AcDbLine
 10
0.9749993199999999
 20
0.4499991
 30
0.0
 11
0.37500052
 21
0.4499991
 31
0.0
  0
LINE
  5
2E7
330
2E1
100
AcDbEntity
  8
TOPPASTE
100
AcDbLine
 10
0.37500052
 20
0.4499991
 30
0.0
 11
0.37500052
 21
-0.4499991
 31
0.0
  0
LINE
  5
2E8
330
2E1
100
AcDbEntity
  8
TOPPASTE
100
AcDbLine
 10
-0.9749993199999999
 20
-0.4499991
 30
0.0
 11
-0.37500052
 21
-0.4499991
 31
0.0
  0
LINE
  5
2E9
330
2E1
100
AcDbEntity
  8
TOPPASTE
100
AcDbLine
 10
-0.37500052
 20
-0.4499991
 30
0.0
 11
-0.37500052
 21
0.4499991
 31
0.0
  0
LINE
  5
2EA
330
2E1
100
AcDbEntity
  8
TOPPASTE
100
AcDbLine
 10
-0.37500052
 20
0.4499991
 30
0.0
 11
-0.9749993199999999
 21
0.4499991
 31
0.0
  0
LINE
  5
2EB
330
2E1
100
AcDbEntity
  8
TOPPASTE
100
AcDbLine
 10
-0.9749993199999999
 20
0.4499991
 30
0.0
 11
-0.9749993199999999
 21
-0.4499991
 31
0.0
  0
ENDBLK
  5
2E3
330
2E1
100
AcDbEntity
  8
0
100
AcDbBlockEnd
  0
BLOCK
  5
2EE
330
2ED
100
AcDbEntity
  8
0
100
AcDbBlockBegin
  2
RES_0603_1608_19
 70
     0
 10
0.0
 20
0.0
 30
0.0
  3
RES_0603_1608_19
  1

  0
LINE
  5
2F0
330
2ED
100
AcDbEntity
  8
TOPPASTE
100
AcDbLine
 10
0.37500052
 20
-0.4499991
 30
0.0
 11
0.9749993199999999
 21
-0.4499991
 31
0.0
  0
LINE
  5
2F1
330
2ED
100
AcDbEntity
  8
TOPPASTE
100
AcDbLine
 10
0.9749993199999999
 20
-0.4499991
 30
0.0
 11
0.9749993199999999
 21
0.4499991
 31
0.0
  0
LINE
  5
2F2
330
2ED
100
AcDbEntity
  8
TOPPASTE
100
AcDbLine
 10
0.9749993199999999
 20
0.4499991
 30
0.0
 11
0.37500052
 21
0.4499991
 31
0.0
  0
LINE
  5
2F3
330
2ED
100
AcDbEntity
  8
TOPPASTE
100
AcDbLine
 10
0.37500052
 20
0.4499991
 30
0.0
 11
0.37500052
 21
-0.4499991
 31
0.0
  0
LINE
  5
2F4
330
2ED
100
AcDbEntity
  8
TOPPASTE
100
AcDbLine
 10
-0.9749993199999999
 20
-0.4499991
 30
0.0
 11
-0.37500052
 21
-0.4499991
 31
0.0
  0
LINE
  5
2F5
330
2ED
100
AcDbEntity
  8
TOPPASTE
100
AcDbLine
 10
-0.37500052
 20
-0.4499991
 30
0.0
 11
-0.37500052
 21
0.4499991
 31
0.0
  0
LINE
  5
2F6
330
2ED
100
AcDbEntity
  8
TOPPASTE
100
AcDbLine
 10
-0.37500052
 20
0.4499991
 30
0.0
 11
-0.9749993199999999
 21
0.4499991
 31
0.0
  0
LINE
  5
2F7
330
2ED
100
AcDbEntity
  8
TOPPASTE
100
AcDbLine
 10
-0.9749993199999999
 20
0.4499991
 30
0.0
 11
-0.9749993199999999
 21
-0.4499991
 31
0.0
  0
ENDBLK
  5
2EF
330
2ED
100
AcDbEntity
  8
0
100
AcDbBlockEnd
  0
BLOCK
  5
2FA
330
2F9
100
AcDbEntity
  8
0
100
AcDbBlockBegin
  2
RES_0603_1608_20
 70
     0
 10
0.0
 20
0.0
 30
0.0
  3
RES_0603_1608_20
  1

  0
LINE
  5
2FC
330
2F9
100
AcDbEntity
  8
TOPPASTE
100
AcDbLine
 10
0.37500052
 20
-0.4499991
 30
0.0
 11
0.9749993199999999
 21
-0.4499991
 31
0.0
  0
LINE
  5
2FD
330
2F9
100
AcDbEntity
  8
TOPPASTE
100
AcDbLine
 10
0.9749993199999999
 20
-0.4499991
 30
0.0
 11
0.9749993199999999
 21
0.4499991
 31
0.0
  0
LINE
  5
2FE
330
2F9
100
AcDbEntity
  8
TOPPASTE
100
AcDbLine
 10
0.9749993199999999
 20
0.4499991
 30
0.0
 11
0.37500052
 21
0.4499991
 31
0.0
  0
LINE
  5
2FF
330
2F9
100
AcDbEntity
  8
TOPPASTE
100
AcDbLine
 10
0.37500052
 20
0.4499991
 30
0.0
 11
0.37500052
 21
-0.4499991
 31
0.0
  0
LINE
  5
300
330
2F9
100
AcDbEntity
  8
TOPPASTE
100
AcDbLine
 10
-0.9749993199999999
 20
-0.4499991
 30
0.0
 11
-0.37500052
 21
-0.4499991
 31
0.0
  0
LINE
  5
301
330
2F9
100
AcDbEntity
  8
TOPPASTE
100
AcDbLine
 10
-0.37500052
 20
-0.4499991
 30
0.0
 11
-0.37500052
 21
0.4499991
 31
0.0
  0
LINE
  5
302
330
2F9
100
AcDbEntity
  8
TOPPASTE
100
AcDbLine
 10
-0.37500052
 20
0.4499991
 30
0.0
 11
-0.9749993199999999
 21
0.4499991
 31
0.0
  0
LINE
  5
303
330
2F9
100
AcDbEntity
  8
TOPPASTE
100
AcDbLine
 10
-0.9749993199999999
 20
0.4499991
 30
0.0
 11
-0.9749993199999999
 21
-0.4499991
 31
0.0
  0
ENDBLK
  5
2FB
330
2F9
100
AcDbEntity
  8
0
100
AcDbBlockEnd
  0
BLOCK
  5
306
330
305
100
AcDbEntity
  8
0
100
AcDbBlockBegin
  2
RES_0603_1608_21
 70
     0
 10
0.0
 20
0.0
 30
0.0
  3
RES_0603_1608_21
  1

  0
LINE
  5
308
330
305
100
AcDbEntity
  8
TOPPASTE
100
AcDbLine
 10
0.37500052
 20
-0.4499991
 30
0.0
 11
0.9749993199999999
 21
-0.4499991
 31
0.0
  0
LINE
  5
309
330
305
100
AcDbEntity
  8
TOPPASTE
100
AcDbLine
 10
0.9749993199999999
 20
-0.4499991
 30
0.0
 11
0.9749993199999999
 21
0.4499991
 31
0.0
  0
LINE
  5
30A
330
305
100
AcDbEntity
  8
TOPPASTE
100
AcDbLine
 10
0.9749993199999999
 20
0.4499991
 30
0.0
 11
0.37500052
 21
0.4499991
 31
0.0
  0
LINE
  5
30B
330
305
100
AcDbEntity
  8
TOPPASTE
100
AcDbLine
 10
0.37500052
 20
0.4499991
 30
0.0
 11
0.37500052
 21
-0.4499991
 31
0.0
  0
LINE
  5
30C
330
305
100
AcDbEntity
  8
TOPPASTE
100
AcDbLine
 10
-0.9749993199999999
 20
-0.4499991
 30
0.0
 11
-0.37500052
 21
-0.4499991
 31
0.0
  0
LINE
  5
30D
330
305
100
AcDbEntity
  8
TOPPASTE
100
AcDbLine
 10
-0.37500052
 20
-0.4499991
 30
0.0
 11
-0.37500052
 21
0.4499991
 31
0.0
  0
LINE
  5
30E
330
305
100
AcDbEntity
  8
TOPPASTE
100
AcDbLine
 10
-0.37500052
 20
0.4499991
 30
0.0
 11
-0.9749993199999999
 21
0.4499991
 31
0.0
  0
LINE
  5
30F
330
305
100
AcDbEntity
  8
TOPPASTE
100
AcDbLine
 10
-0.9749993199999999
 20
0.4499991
 30
0.0
 11
-0.9749993199999999
 21
-0.4499991
 31
0.0
  0
ENDBLK
  5
307
330
305
100
AcDbEntity
  8
0
100
AcDbBlockEnd
  0
BLOCK
  5
312
330
311
100
AcDbEntity
  8
0
100
AcDbBlockBegin
  2
RES_0603_1608_22
 70
     0
 10
0.0
 20
0.0
 30
0.0
  3
RES_0603_1608_22
  1

  0
LINE
  5
314
330
311
100
AcDbEntity
  8
TOPPASTE
100
AcDbLine
 10
0.37500052
 20
-0.4499991
 30
0.0
 11
0.9749993199999999
 21
-0.4499991
 31
0.0
  0
LINE
  5
315
330
311
100
AcDbEntity
  8
TOPPASTE
100
AcDbLine
 10
0.9749993199999999
 20
-0.4499991
 30
0.0
 11
0.9749993199999999
 21
0.4499991
 31
0.0
  0
LINE
  5
316
330
311
100
AcDbEntity
  8
TOPPASTE
100
AcDbLine
 10
0.9749993199999999
 20
0.4499991
 30
0.0
 11
0.37500052
 21
0.4499991
 31
0.0
  0
LINE
  5
317
330
311
100
AcDbEntity
  8
TOPPASTE
100
AcDbLine
 10
0.37500052
 20
0.4499991
 30
0.0
 11
0.37500052
 21
-0.4499991
 31
0.0
  0
LINE
  5
318
330
311
100
AcDbEntity
  8
TOPPASTE
100
AcDbLine
 10
-0.9749993199999999
 20
-0.4499991
 30
0.0
 11
-0.37500052
 21
-0.4499991
 31
0.0
  0
LINE
  5
319
330
311
100
AcDbEntity
  8
TOPPASTE
100
AcDbLine
 10
-0.37500052
 20
-0.4499991
 30
0.0
 11
-0.37500052
 21
0.4499991
 31
0.0
  0
LINE
  5
31A
330
311
100
AcDbEntity
  8
TOPPASTE
100
AcDbLine
 10
-0.37500052
 20
0.4499991
 30
0.0
 11
-0.9749993199999999
 21
0.4499991
 31
0.0
  0
LINE
  5
31B
330
311
100
AcDbEntity
  8
TOPPASTE
100
AcDbLine
 10
-0.9749993199999999
 20
0.4499991
 30
0.0
 11
-0.9749993199999999
 21
-0.4499991
 31
0.0
  0
ENDBLK
  5
313
330
311
100
AcDbEntity
  8
0
100
AcDbBlockEnd
  0
BLOCK
  5
31E
330
31D
100
AcDbEntity
  8
0
100
AcDbBlockBegin
  2
HDR2X5_23
 70
     0
 10
0.0
 20
0.0
 30
0.0
  3
HDR2X5_23
  1

  0
CIRCLE
  5
320
330
31D
100
AcDbEntity
  8
PADHOLELAYER
100
AcDbCircle
 10
10.16
 20
2.54
 30
0.0
 40
0.45000037
  0
CIRCLE
  5
321
330
31D
100
AcDbEntity
  8
PADHOLELAYER
100
AcDbCircle
 10
10.16
 20
0.0
 30
0.0
 40
0.45000037
  0
CIRCLE
  5
322
330
31D
100
AcDbEntity
  8
PADHOLELAYER
100
AcDbCircle
 10
7.619999999999999
 20
2.54
 30
0.0
 40
0.45000037
  0
CIRCLE
  5
323
330
31D
100
AcDbEntity
  8
PADHOLELAYER
100
AcDbCircle
 10
7.619999999999999
 20
0.0
 30
0.0
 40
0.45000037
  0
CIRCLE
  5
324
330
31D
100
AcDbEntity
  8
PADHOLELAYER
100
AcDbCircle
 10
5.08
 20
2.54
 30
0.0
 40
0.45000037
  0
CIRCLE
  5
325
330
31D
100
AcDbEntity
  8
PADHOLELAYER
100
AcDbCircle
 10
5.08
 20
0.0
 30
0.0
 40
0.45000037
  0
CIRCLE
  5
326
330
31D
100
AcDbEntity
  8
PADHOLELAYER
100
AcDbCircle
 10
2.54
 20
2.54
 30
0.0
 40
0.45000037
  0
CIRCLE
  5
327
330
31D
100
AcDbEntity
  8
PADHOLELAYER
100
AcDbCircle
 10
2.54
 20
0.0
 30
0.0
 40
0.45000037
  0
CIRCLE
  5
328
330
31D
100
AcDbEntity
  8
PADHOLELAYER
100
AcDbCircle
 10
0.0
 20
2.54
 30
0.0
 40
0.45000037
  0
CIRCLE
  5
329
330
31D
100
AcDbEntity
  8
PADHOLELAYER
100
AcDbCircle
 10
0.0
 20
0.0
 30
0.0
 40
0.45000037
  0
ENDBLK
  5
31F
330
31D
100
AcDbEntity
  8
0
100
AcDbBlockEnd
  0
BLOCK
  5
32C
330
32B
100
AcDbEntity
  8
0
100
AcDbBlockBegin
  2
HDR1X16_24
 70
     0
 10
0.0
 20
0.0
 30
0.0
  3
HDR1X16_24
  1

  0
CIRCLE
  5
32E
330
32B
100
AcDbEntity
  8
PADHOLELAYER
100
AcDbCircle
 10
0.0
 20
0.0
 30
0.0
 40
0.45000037
  0
CIRCLE
  5
32F
330
32B
100
AcDbEntity
  8
PADHOLELAYER
100
AcDbCircle
 10
2.54
 20
0.0
 30
0.0
 40
0.45000037
  0
CIRCLE
  5
330
330
32B
100
AcDbEntity
  8
PADHOLELAYER
100
AcDbCircle
 10
5.08
 20
0.0
 30
0.0
 40
0.45000037
  0
CIRCLE
  5
331
330
32B
100
AcDbEntity
  8
PADHOLELAYER
100
AcDbCircle
 10
7.619999999999999
 20
0.0
 30
0.0
 40
0.45000037
  0
CIRCLE
  5
332
330
32B
100
AcDbEntity
  8
PADHOLELAYER
100
AcDbCircle
 10
10.16
 20
0.0
 30
0.0
 40
0.45000037
  0
CIRCLE
  5
333
330
32B
100
AcDbEntity
  8
PADHOLELAYER
100
AcDbCircle
 10
12.7
 20
0.0
 30
0.0
 40
0.45000037
  0
CIRCLE
  5
334
330
32B
100
AcDbEntity
  8
PADHOLELAYER
100
AcDbCircle
 10
15.24
 20
0.0
 30
0.0
 40
0.45000037
  0
CIRCLE
  5
335
330
32B
100
AcDbEntity
  8
PADHOLELAYER
100
AcDbCircle
 10
17.78
 20
0.0
 30
0.0
 40
0.45000037
  0
CIRCLE
  5
336
330
32B
100
AcDbEntity
  8
PADHOLELAYER
100
AcDbCircle
 10
20.32
 20
0.0
 30
0.0
 40
0.45000037
  0
CIRCLE
  5
337
330
32B
100
AcDbEntity
  8
PADHOLELAYER
100
AcDbCircle
 10
22.86
 20
0.0
 30
0.0
 40
0.45000037
  0
CIRCLE
  5
338
330
32B
100
AcDbEntity
  8
PADHOLELAYER
100
AcDbCircle
 10
25.4
 20
0.0
 30
0.0
 40
0.45000037
  0
CIRCLE
  5
339
330
32B
100
AcDbEntity
  8
PADHOLELAYER
100
AcDbCircle
 10
27.94
 20
0.0
 30
0.0
 40
0.45000037
  0
CIRCLE
  5
33A
330
32B
100
AcDbEntity
  8
PADHOLELAYER
100
AcDbCircle
 10
30.48
 20
0.0
 30
0.0
 40
0.45000037
  0
CIRCLE
  5
33B
330
32B
100
AcDbEntity
  8
PADHOLELAYER
100
AcDbCircle
 10
33.02
 20
0.0
 30
0.0
 40
0.45000037
  0
CIRCLE
  5
33C
330
32B
100
AcDbEntity
  8
PADHOLELAYER
100
AcDbCircle
 10
35.56
 20
0.0
 30
0.0
 40
0.45000037
  0
CIRCLE
  5
33D
330
32B
100
AcDbEntity
  8
PADHOLELAYER
100
AcDbCircle
 10
38.09999999999999
 20
0.0
 30
0.0
 40
0.45000037
  0
ENDBLK
  5
32D
330
32B
100
AcDbEntity
  8
0
100
AcDbBlockEnd
  0
BLOCK
  5
340
330
33F
100
AcDbEntity
  8
0
100
AcDbBlockBegin
  2
HDR1X12_25
 70
     0
 10
0.0
 20
0.0
 30
0.0
  3
HDR1X12_25
  1

  0
CIRCLE
  5
342
330
33F
100
AcDbEntity
  8
PADHOLELAYER
100
AcDbCircle
 10
27.94
 20
0.0
 30
0.0
 40
0.45000037
  0
CIRCLE
  5
343
330
33F
100
AcDbEntity
  8
PADHOLELAYER
100
AcDbCircle
 10
25.4
 20
0.0
 30
0.0
 40
0.45000037
  0
CIRCLE
  5
344
330
33F
100
AcDbEntity
  8
PADHOLELAYER
100
AcDbCircle
 10
22.86
 20
0.0
 30
0.0
 40
0.45000037
  0
CIRCLE
  5
345
330
33F
100
AcDbEntity
  8
PADHOLELAYER
100
AcDbCircle
 10
20.32
 20
0.0
 30
0.0
 40
0.45000037
  0
CIRCLE
  5
346
330
33F
100
AcDbEntity
  8
PADHOLELAYER
100
AcDbCircle
 10
17.78
 20
0.0
 30
0.0
 40
0.45000037
  0
CIRCLE
  5
347
330
33F
100
AcDbEntity
  8
PADHOLELAYER
100
AcDbCircle
 10
15.24
 20
0.0
 30
0.0
 40
0.45000037
  0
CIRCLE
  5
348
330
33F
100
AcDbEntity
  8
PADHOLELAYER
100
AcDbCircle
 10
12.7
 20
0.0
 30
0.0
 40
0.45000037
  0
CIRCLE
  5
349
330
33F
100
AcDbEntity
  8
PADHOLELAYER
100
AcDbCircle
 10
10.16
 20
0.0
 30
0.0
 40
0.45000037
  0
CIRCLE
  5
34A
330
33F
100
AcDbEntity
  8
PADHOLELAYER
100
AcDbCircle
 10
7.619999999999999
 20
0.0
 30
0.0
 40
0.45000037
  0
CIRCLE
  5
34B
330
33F
100
AcDbEntity
  8
PADHOLELAYER
100
AcDbCircle
 10
5.08
 20
0.0
 30
0.0
 40
0.45000037
  0
CIRCLE
  5
34C
330
33F
100
AcDbEntity
  8
PADHOLELAYER
100
AcDbCircle
 10
2.54
 20
0.0
 30
0.0
 40
0.45000037
  0
CIRCLE
  5
34D
330
33F
100
AcDbEntity
  8
PADHOLELAYER
100
AcDbCircle
 10
0.0
 20
0.0
 30
0.0
 40
0.45000037
  0
ENDBLK
  5
341
330
33F
100
AcDbEntity
  8
0
100
AcDbBlockEnd
  0
BLOCK
  5
350
330
34F
100
AcDbEntity
  8
0
100
AcDbBlockBegin
  2
FTSH_105_01_F_DV_K_TR_26
 70
     0
 10
0.0
 20
0.0
 30
0.0
  3
FTSH_105_01_F_DV_K_TR_26
  1

  0
LINE
  5
352
330
34F
100
AcDbEntity
  8
TOPPASTE
100
AcDbLine
 10
2.2900005
 20
1.03599996
 30
0.0
 11
2.7899995
 21
1.03599996
 31
0.0
  0
LINE
  5
353
330
34F
100
AcDbEntity
  8
TOPPASTE
100
AcDbLine
 10
2.7899995
 20
1.03599996
 30
0.0
 11
2.7899995
 21
3.53600004
 31
0.0
  0
LINE
  5
354
330
34F
100
AcDbEntity
  8
TOPPASTE
100
AcDbLine
 10
2.7899995
 20
3.53600004
 30
0.0
 11
2.2900005
 21
3.53600004
 31
0.0
  0
LINE
  5
355
330
34F
100
AcDbEntity
  8
TOPPASTE
100
AcDbLine
 10
2.2900005
 20
3.53600004
 30
0.0
 11
2.2900005
 21
1.03599996
 31
0.0
  0
LINE
  5
356
330
34F
100
AcDbEntity
  8
TOPPASTE
100
AcDbLine
 10
2.2900005
 20
-3.53600004
 30
0.0
 11
2.7899995
 21
-3.53600004
 31
0.0
  0
LINE
  5
357
330
34F
100
AcDbEntity
  8
TOPPASTE
100
AcDbLine
 10
2.7899995
 20
-3.53600004
 30
0.0
 11
2.7899995
 21
-1.03599996
 31
0.0
  0
LINE
  5
358
330
34F
100
AcDbEntity
  8
TOPPASTE
100
AcDbLine
 10
2.7899995
 20
-1.03599996
 30
0.0
 11
2.2900005
 21
-1.03599996
 31
0.0
  0
LINE
  5
359
330
34F
100
AcDbEntity
  8
TOPPASTE
100
AcDbLine
 10
2.2900005
 20
-1.03599996
 30
0.0
 11
2.2900005
 21
-3.53600004
 31
0.0
  0
LINE
  5
35A
330
34F
100
AcDbEntity
  8
TOPPASTE
100
AcDbLine
 10
1.0200005
 20
1.03599996
 30
0.0
 11
1.5199995
 21
1.03599996
 31
0.0
  0
LINE
  5
35B
330
34F
100
AcDbEntity
  8
TOPPASTE
100
AcDbLine
 10
1.5199995
 20
1.03599996
 30
0.0
 11
1.5199995
 21
3.53600004
 31
0.0
  0
LINE
  5
35C
330
34F
100
AcDbEntity
  8
TOPPASTE
100
AcDbLine
 10
1.5199995
 20
3.53600004
 30
0.0
 11
1.0200005
 21
3.53600004
 31
0.0
  0
LINE
  5
35D
330
34F
100
AcDbEntity
  8
TOPPASTE
100
AcDbLine
 10
1.0200005
 20
3.53600004
 30
0.0
 11
1.0200005
 21
1.03599996
 31
0.0
  0
LINE
  5
35E
330
34F
100
AcDbEntity
  8
TOPPASTE
100
AcDbLine
 10
1.0200005
 20
-3.53600004
 30
0.0
 11
1.5199995
 21
-3.53600004
 31
0.0
  0
LINE
  5
35F
330
34F
100
AcDbEntity
  8
TOPPASTE
100
AcDbLine
 10
1.5199995
 20
-3.53600004
 30
0.0
 11
1.5199995
 21
-1.03599996
 31
0.0
  0
LINE
  5
360
330
34F
100
AcDbEntity
  8
TOPPASTE
100
AcDbLine
 10
1.5199995
 20
-1.03599996
 30
0.0
 11
1.0200005
 21
-1.03599996
 31
0.0
  0
LINE
  5
361
330
34F
100
AcDbEntity
  8
TOPPASTE
100
AcDbLine
 10
1.0200005
 20
-1.03599996
 30
0.0
 11
1.0200005
 21
-3.53600004
 31
0.0
  0
LINE
  5
362
330
34F
100
AcDbEntity
  8
TOPPASTE
100
AcDbLine
 10
-0.2499995
 20
1.03599996
 30
0.0
 11
0.2499995
 21
1.03599996
 31
0.0
  0
LINE
  5
363
330
34F
100
AcDbEntity
  8
TOPPASTE
100
AcDbLine
 10
0.2499995
 20
1.03599996
 30
0.0
 11
0.2499995
 21
3.53600004
 31
0.0
  0
LINE
  5
364
330
34F
100
AcDbEntity
  8
TOPPASTE
100
AcDbLine
 10
0.2499995
 20
3.53600004
 30
0.0
 11
-0.2499995
 21
3.53600004
 31
0.0
  0
LINE
  5
365
330
34F
100
AcDbEntity
  8
TOPPASTE
100
AcDbLine
 10
-0.2499995
 20
3.53600004
 30
0.0
 11
-0.2499995
 21
1.03599996
 31
0.0
  0
LINE
  5
366
330
34F
100
AcDbEntity
  8
TOPPASTE
100
AcDbLine
 10
-0.2499995
 20
-3.53600004
 30
0.0
 11
0.2499995
 21
-3.53600004
 31
0.0
  0
LINE
  5
367
330
34F
100
AcDbEntity
  8
TOPPASTE
100
AcDbLine
 10
0.2499995
 20
-3.53600004
 30
0.0
 11
0.2499995
 21
-1.03599996
 31
0.0
  0
LINE
  5
368
330
34F
100
AcDbEntity
  8
TOPPASTE
100
AcDbLine
 10
0.2499995
 20
-1.03599996
 30
0.0
 11
-0.2499995
 21
-1.03599996
 31
0.0
  0
LINE
  5
369
330
34F
100
AcDbEntity
  8
TOPPASTE
100
AcDbLine
 10
-0.2499995
 20
-1.03599996
 30
0.0
 11
-0.2499995
 21
-3.53600004
 31
0.0
  0
LINE
  5
36A
330
34F
100
AcDbEntity
  8
TOPPASTE
100
AcDbLine
 10
-1.5199995
 20
1.03599996
 30
0.0
 11
-1.0200005
 21
1.03599996
 31
0.0
  0
LINE
  5
36B
330
34F
100
AcDbEntity
  8
TOPPASTE
100
AcDbLine
 10
-1.0200005
 20
1.03599996
 30
0.0
 11
-1.0200005
 21
3.53600004
 31
0.0
  0
LINE
  5
36C
330
34F
100
AcDbEntity
  8
TOPPASTE
100
AcDbLine
 10
-1.0200005
 20
3.53600004
 30
0.0
 11
-1.5199995
 21
3.53600004
 31
0.0
  0
LINE
  5
36D
330
34F
100
AcDbEntity
  8
TOPPASTE
100
AcDbLine
 10
-1.5199995
 20
3.53600004
 30
0.0
 11
-1.5199995
 21
1.03599996
 31
0.0
  0
LINE
  5
36E
330
34F
100
AcDbEntity
  8
TOPPASTE
100
AcDbLine
 10
-1.5199995
 20
-3.53600004
 30
0.0
 11
-1.0200005
 21
-3.53600004
 31
0.0
  0
LINE
  5
36F
330
34F
100
AcDbEntity
  8
TOPPASTE
100
AcDbLine
 10
-1.0200005
 20
-3.53600004
 30
0.0
 11
-1.0200005
 21
-1.03599996
 31
0.0
  0
LINE
  5
370
330
34F
100
AcDbEntity
  8
TOPPASTE
100
AcDbLine
 10
-1.0200005
 20
-1.03599996
 30
0.0
 11
-1.5199995
 21
-1.03599996
 31
0.0
  0
LINE
  5
371
330
34F
100
AcDbEntity
  8
TOPPASTE
100
AcDbLine
 10
-1.5199995
 20
-1.03599996
 30
0.0
 11
-1.5199995
 21
-3.53600004
 31
0.0
  0
LINE
  5
372
330
34F
100
AcDbEntity
  8
TOPPASTE
100
AcDbLine
 10
-2.7899995
 20
1.03599996
 30
0.0
 11
-2.2900005
 21
1.03599996
 31
0.0
  0
LINE
  5
373
330
34F
100
AcDbEntity
  8
TOPPASTE
100
AcDbLine
 10
-2.2900005
 20
1.03599996
 30
0.0
 11
-2.2900005
 21
3.53600004
 31
0.0
  0
LINE
  5
374
330
34F
100
AcDbEntity
  8
TOPPASTE
100
AcDbLine
 10
-2.2900005
 20
3.53600004
 30
0.0
 11
-2.7899995
 21
3.53600004
 31
0.0
  0
LINE
  5
375
330
34F
100
AcDbEntity
  8
TOPPASTE
100
AcDbLine
 10
-2.7899995
 20
3.53600004
 30
0.0
 11
-2.7899995
 21
1.03599996
 31
0.0
  0
LINE
  5
376
330
34F
100
AcDbEntity
  8
TOPPASTE
100
AcDbLine
 10
-2.7899995
 20
-3.53600004
 30
0.0
 11
-2.2900005
 21
-3.53600004
 31
0.0
  0
LINE
  5
377
330
34F
100
AcDbEntity
  8
TOPPASTE
100
AcDbLine
 10
-2.2900005
 20
-3.53600004
 30
0.0
 11
-2.2900005
 21
-1.03599996
 31
0.0
  0
LINE
  5
378
330
34F
100
AcDbEntity
  8
TOPPASTE
100
AcDbLine
 10
-2.2900005
 20
-1.03599996
 30
0.0
 11
-2.7899995
 21
-1.03599996
 31
0.0
  0
LINE
  5
379
330
34F
100
AcDbEntity
  8
TOPPASTE
100
AcDbLine
 10
-2.7899995
 20
-1.03599996
 30
0.0
 11
-2.7899995
 21
-3.53600004
 31
0.0
  0
ENDBLK
  5
351
330
34F
100
AcDbEntity
  8
0
100
AcDbBlockEnd
  0
BLOCK
  5
37C
330
37B
100
AcDbEntity
  8
0
100
AcDbBlockBegin
  2
IND_W_____74404020100_27
 70
     0
 10
0.0
 20
0.0
 30
0.0
  3
IND_W_____74404020100_27
  1

  0
LINE
  5
37E
330
37B
100
AcDbEntity
  8
TOPPASTE
100
AcDbLine
 10
0.35000184
 20
0.6999985999999999
 30
0.0
 11
0.35000184
 21
-0.6999985999999999
 31
0.0
  0
LINE
  5
37F
330
37B
100
AcDbEntity
  8
TOPPASTE
100
AcDbLine
 10
0.35000184
 20
-0.6999985999999999
 30
0.0
 11
1.15000024
 21
-0.6999985999999999
 31
0.0
  0
LINE
  5
380
330
37B
100
AcDbEntity
  8
TOPPASTE
100
AcDbLine
 10
1.15000024
 20
-0.6999985999999999
 30
0.0
 11
1.15000024
 21
0.6999985999999999
 31
0.0
  0
LINE
  5
381
330
37B
100
AcDbEntity
  8
TOPPASTE
100
AcDbLine
 10
1.15000024
 20
0.6999985999999999
 30
0.0
 11
0.35000184
 21
0.6999985999999999
 31
0.0
  0
LINE
  5
382
330
37B
100
AcDbEntity
  8
TOPPASTE
100
AcDbLine
 10
-1.15000024
 20
0.6999985999999999
 30
0.0
 11
-1.15000024
 21
-0.6999985999999999
 31
0.0
  0
LINE
  5
383
330
37B
100
AcDbEntity
  8
TOPPASTE
100
AcDbLine
 10
-1.15000024
 20
-0.6999985999999999
 30
0.0
 11
-0.35000184
 21
-0.6999985999999999
 31
0.0
  0
LINE
  5
384
330
37B
100
AcDbEntity
  8
TOPPASTE
100
AcDbLine
 10
-0.35000184
 20
-0.6999985999999999
 30
0.0
 11
-0.35000184
 21
0.6999985999999999
 31
0.0
  0
LINE
  5
385
330
37B
100
AcDbEntity
  8
TOPPASTE
100
AcDbLine
 10
-0.35000184
 20
0.6999985999999999
 30
0.0
 11
-1.15000024
 21
0.6999985999999999
 31
0.0
  0
ENDBLK
  5
37D
330
37B
100
AcDbEntity
  8
0
100
AcDbBlockEnd
  0
BLOCK
  5
388
330
387
100
AcDbEntity
  8
0
100
AcDbBlockBegin
  2
USB4110_GF_A_28
 70
     0
 10
0.0
 20
0.0
 30
0.0
  3
USB4110_GF_A_28
  1

  0
LINE
  5
38A
330
387
100
AcDbEntity
  8
TOPPASTE
100
AcDbLine
 10
-3.50000062
 20
1.64999924
 30
0.0
 11
-3.50000062
 21
0.499999
 31
0.0
  0
LINE
  5
38B
330
387
100
AcDbEntity
  8
TOPPASTE
100
AcDbLine
 10
-3.50000062
 20
0.499999
 30
0.0
 11
-2.90000182
 21
0.499999
 31
0.0
  0
LINE
  5
38C
330
387
100
AcDbEntity
  8
TOPPASTE
100
AcDbLine
 10
-2.90000182
 20
0.499999
 30
0.0
 11
-2.90000182
 21
1.64999924
 31
0.0
  0
LINE
  5
38D
330
387
100
AcDbEntity
  8
TOPPASTE
100
AcDbLine
 10
-2.90000182
 20
1.64999924
 30
0.0
 11
-3.50000062
 21
1.64999924
 31
0.0
  0
LINE
  5
38E
330
387
100
AcDbEntity
  8
TOPPASTE
100
AcDbLine
 10
-2.69999968
 20
1.64999924
 30
0.0
 11
-2.69999968
 21
0.499999
 31
0.0
  0
LINE
  5
38F
330
387
100
AcDbEntity
  8
TOPPASTE
100
AcDbLine
 10
-2.69999968
 20
0.499999
 30
0.0
 11
-2.10000088
 21
0.499999
 31
0.0
  0
LINE
  5
390
330
387
100
AcDbEntity
  8
TOPPASTE
100
AcDbLine
 10
-2.10000088
 20
0.499999
 30
0.0
 11
-2.10000088
 21
1.64999924
 31
0.0
  0
LINE
  5
391
330
387
100
AcDbEntity
  8
TOPPASTE
100
AcDbLine
 10
-2.10000088
 20
1.64999924
 30
0.0
 11
-2.69999968
 21
1.64999924
 31
0.0
  0
LINE
  5
392
330
387
100
AcDbEntity
  8
TOPPASTE
100
AcDbLine
 10
2.10000088
 20
1.64999924
 30
0.0
 11
2.10000088
 21
0.499999
 31
0.0
  0
LINE
  5
393
330
387
100
AcDbEntity
  8
TOPPASTE
100
AcDbLine
 10
2.10000088
 20
0.499999
 30
0.0
 11
2.69999968
 21
0.499999
 31
0.0
  0
LINE
  5
394
330
387
100
AcDbEntity
  8
TOPPASTE
100
AcDbLine
 10
2.69999968
 20
0.499999
 30
0.0
 11
2.69999968
 21
1.64999924
 31
0.0
  0
LINE
  5
395
330
387
100
AcDbEntity
  8
TOPPASTE
100
AcDbLine
 10
2.69999968
 20
1.64999924
 30
0.0
 11
2.10000088
 21
1.64999924
 31
0.0
  0
LINE
  5
396
330
387
100
AcDbEntity
  8
TOPPASTE
100
AcDbLine
 10
2.90000182
 20
1.64999924
 30
0.0
 11
2.90000182
 21
0.499999
 31
0.0
  0
LINE
  5
397
330
387
100
AcDbEntity
  8
TOPPASTE
100
AcDbLine
 10
2.90000182
 20
0.499999
 30
0.0
 11
3.50000062
 21
0.499999
 31
0.0
  0
LINE
  5
398
330
387
100
AcDbEntity
  8
TOPPASTE
100
AcDbLine
 10
3.50000062
 20
0.499999
 30
0.0
 11
3.50000062
 21
1.64999924
 31
0.0
  0
LINE
  5
399
330
387
100
AcDbEntity
  8
TOPPASTE
100
AcDbLine
 10
3.50000062
 20
1.64999924
 30
0.0
 11
2.90000182
 21
1.64999924
 31
0.0
  0
LINE
  5
39A
330
387
100
AcDbEntity
  8
TOPPASTE
100
AcDbLine
 10
-1.89999874
 20
1.64999924
 30
0.0
 11
-1.89999874
 21
0.499999
 31
0.0
  0
LINE
  5
39B
330
387
100
AcDbEntity
  8
TOPPASTE
100
AcDbLine
 10
-1.89999874
 20
0.499999
 30
0.0
 11
-1.59999934
 21
0.499999
 31
0.0
  0
LINE
  5
39C
330
387
100
AcDbEntity
  8
TOPPASTE
100
AcDbLine
 10
-1.59999934
 20
0.499999
 30
0.0
 11
-1.59999934
 21
1.64999924
 31
0.0
  0
LINE
  5
39D
330
387
100
AcDbEntity
  8
TOPPASTE
100
AcDbLine
 10
-1.59999934
 20
1.64999924
 30
0.0
 11
-1.89999874
 21
1.64999924
 31
0.0
  0
LINE
  5
39E
330
387
100
AcDbEntity
  8
TOPPASTE
100
AcDbLine
 10
1.59999934
 20
1.64999924
 30
0.0
 11
1.59999934
 21
0.499999
 31
0.0
  0
LINE
  5
39F
330
387
100
AcDbEntity
  8
TOPPASTE
100
AcDbLine
 10
1.59999934
 20
0.499999
 30
0.0
 11
1.89999874
 21
0.499999
 31
0.0
  0
LINE
  5
3A0
330
387
100
AcDbEntity
  8
TOPPASTE
100
AcDbLine
 10
1.89999874
 20
0.499999
 30
0.0
 11
1.89999874
 21
1.64999924
 31
0.0
  0
LINE
  5
3A1
330
387
100
AcDbEntity
  8
TOPPASTE
100
AcDbLine
 10
1.89999874
 20
1.64999924
 30
0.0
 11
1.59999934
 21
1.64999924
 31
0.0
  0
LINE
  5
3A2
330
387
100
AcDbEntity
  8
TOPPASTE
100
AcDbLine
 10
-1.39999974
 20
1.64999924
 30
0.0
 11
-1.39999974
 21
0.499999
 31
0.0
  0
LINE
  5
3A3
330
387
100
AcDbEntity
  8
TOPPASTE
100
AcDbLine
 10
-1.39999974
 20
0.499999
 30
0.0
 11
-1.10000034
 21
0.499999
 31
0.0
  0
LINE
  5
3A4
330
387
100
AcDbEntity
  8
TOPPASTE
100
AcDbLine
 10
-1.10000034
 20
0.499999
 30
0.0
 11
-1.10000034
 21
1.64999924
 31
0.0
  0
LINE
  5
3A5
330
387
100
AcDbEntity
  8
TOPPASTE
100
AcDbLine
 10
-1.10000034
 20
1.64999924
 30
0.0
 11
-1.39999974
 21
1.64999924
 31
0.0
  0
LINE
  5
3A6
330
387
100
AcDbEntity
  8
TOPPASTE
100
AcDbLine
 10
1.10000034
 20
1.64999924
 30
0.0
 11
1.10000034
 21
0.499999
 31
0.0
  0
LINE
  5
3A7
330
387
100
AcDbEntity
  8
TOPPASTE
100
AcDbLine
 10
1.10000034
 20
0.499999
 30
0.0
 11
1.39999974
 21
0.499999
 31
0.0
  0
LINE
  5
3A8
330
387
100
AcDbEntity
  8
TOPPASTE
100
AcDbLine
 10
1.39999974
 20
0.499999
 30
0.0
 11
1.39999974
 21
1.64999924
 31
0.0
  0
LINE
  5
3A9
330
387
100
AcDbEntity
  8
TOPPASTE
100
AcDbLine
 10
1.39999974
 20
1.64999924
 30
0.0
 11
1.10000034
 21
1.64999924
 31
0.0
  0
LINE
  5
3AA
330
387
100
AcDbEntity
  8
TOPPASTE
100
AcDbLine
 10
-0.90000074
 20
1.64999924
 30
0.0
 11
-0.90000074
 21
0.499999
 31
0.0
  0
LINE
  5
3AB
330
387
100
AcDbEntity
  8
TOPPASTE
100
AcDbLine
 10
-0.90000074
 20
0.499999
 30
0.0
 11
-0.6000013399999999
 21
0.499999
 31
0.0
  0
LINE
  5
3AC
330
387
100
AcDbEntity
  8
TOPPASTE
100
AcDbLine
 10
-0.6000013399999999
 20
0.499999
 30
0.0
 11
-0.6000013399999999
 21
1.64999924
 31
0.0
  0
LINE
  5
3AD
330
387
100
AcDbEntity
  8
TOPPASTE
100
AcDbLine
 10
-0.6000013399999999
 20
1.64999924
 30
0.0
 11
-0.90000074
 21
1.64999924
 31
0.0
  0
LINE
  5
3AE
330
387
100
AcDbEntity
  8
TOPPASTE
100
AcDbLine
 10
0.6000013399999999
 20
1.64999924
 30
0.0
 11
0.6000013399999999
 21
0.499999
 31
0.0
  0
LINE
  5
3AF
330
387
100
AcDbEntity
  8
TOPPASTE
100
AcDbLine
 10
0.6000013399999999
 20
0.499999
 30
0.0
 11
0.90000074
 21
0.499999
 31
0.0
  0
LINE
  5
3B0
330
387
100
AcDbEntity
  8
TOPPASTE
100
AcDbLine
 10
0.90000074
 20
0.499999
 30
0.0
 11
0.90000074
 21
1.64999924
 31
0.0
  0
LINE
  5
3B1
330
387
100
AcDbEntity
  8
TOPPASTE
100
AcDbLine
 10
0.90000074
 20
1.64999924
 30
0.0
 11
0.6000013399999999
 21
1.64999924
 31
0.0
  0
LINE
  5
3B2
330
387
100
AcDbEntity
  8
TOPPASTE
100
AcDbLine
 10
-0.3999992
 20
1.64999924
 30
0.0
 11
-0.3999992
 21
0.499999
 31
0.0
  0
LINE
  5
3B3
330
387
100
AcDbEntity
  8
TOPPASTE
100
AcDbLine
 10
-0.3999992
 20
0.499999
 30
0.0
 11
-0.0999998
 21
0.499999
 31
0.0
  0
LINE
  5
3B4
330
387
100
AcDbEntity
  8
TOPPASTE
100
AcDbLine
 10
-0.0999998
 20
0.499999
 30
0.0
 11
-0.0999998
 21
1.64999924
 31
0.0
  0
LINE
  5
3B5
330
387
100
AcDbEntity
  8
TOPPASTE
100
AcDbLine
 10
-0.0999998
 20
1.64999924
 30
0.0
 11
-0.3999992
 21
1.64999924
 31
0.0
  0
LINE
  5
3B6
330
387
100
AcDbEntity
  8
TOPPASTE
100
AcDbLine
 10
0.0999998
 20
1.64999924
 30
0.0
 11
0.0999998
 21
0.499999
 31
0.0
  0
LINE
  5
3B7
330
387
100
AcDbEntity
  8
TOPPASTE
100
AcDbLine
 10
0.0999998
 20
0.499999
 30
0.0
 11
0.3999992
 21
0.499999
 31
0.0
  0
LINE
  5
3B8
330
387
100
AcDbEntity
  8
TOPPASTE
100
AcDbLine
 10
0.3999992
 20
0.499999
 30
0.0
 11
0.3999992
 21
1.64999924
 31
0.0
  0
LINE
  5
3B9
330
387
100
AcDbEntity
  8
TOPPASTE
100
AcDbLine
 10
0.3999992
 20
1.64999924
 30
0.0
 11
0.0999998
 21
1.64999924
 31
0.0
  0
LINE
  5
3BA
330
387
100
AcDbEntity
  8
TOPPASTE
100
AcDbLine
 10
-6.200000299999999
 20
1.49999954
 30
0.0
 11
-6.200000299999999
 21
-0.50000154
 31
0.0
  0
LINE
  5
3BB
330
387
100
AcDbEntity
  8
TOPPASTE
100
AcDbLine
 10
-6.200000299999999
 20
-0.50000154
 30
0.0
 11
-4.01999958
 21
-0.50000154
 31
0.0
  0
LINE
  5
3BC
330
387
100
AcDbEntity
  8
TOPPASTE
100
AcDbLine
 10
-4.01999958
 20
-0.50000154
 30
0.0
 11
-4.01999958
 21
1.49999954
 31
0.0
  0
LINE
  5
3BD
330
387
100
AcDbEntity
  8
TOPPASTE
100
AcDbLine
 10
-4.01999958
 20
1.49999954
 30
0.0
 11
-6.200000299999999
 21
1.49999954
 31
0.0
  0
LINE
  5
3BE
330
387
100
AcDbEntity
  8
TOPPASTE
100
AcDbLine
 10
4.01999958
 20
1.49999954
 30
0.0
 11
4.01999958
 21
-0.50000154
 31
0.0
  0
LINE
  5
3BF
330
387
100
AcDbEntity
  8
TOPPASTE
100
AcDbLine
 10
4.01999958
 20
-0.50000154
 30
0.0
 11
6.200000299999999
 21
-0.50000154
 31
0.0
  0
LINE
  5
3C0
330
387
100
AcDbEntity
  8
TOPPASTE
100
AcDbLine
 10
6.200000299999999
 20
-0.50000154
 30
0.0
 11
6.200000299999999
 21
1.49999954
 31
0.0
  0
LINE
  5
3C1
330
387
100
AcDbEntity
  8
TOPPASTE
100
AcDbLine
 10
6.200000299999999
 20
1.49999954
 30
0.0
 11
4.01999958
 21
1.49999954
 31
0.0
  0
LINE
  5
3C2
330
387
100
AcDbEntity
  8
TOPPASTE
100
AcDbLine
 10
-6.200000299999999
 20
-2.43000022
 30
0.0
 11
-6.200000299999999
 21
-4.4300013
 31
0.0
  0
LINE
  5
3C3
330
387
100
AcDbEntity
  8
TOPPASTE
100
AcDbLine
 10
-6.200000299999999
 20
-4.4300013
 30
0.0
 11
-4.01999958
 21
-4.4300013
 31
0.0
  0
LINE
  5
3C4
330
387
100
AcDbEntity
  8
TOPPASTE
100
AcDbLine
 10
-4.01999958
 20
-4.4300013
 30
0.0
 11
-4.01999958
 21
-2.43000022
 31
0.0
  0
LINE
  5
3C5
330
387
100
AcDbEntity
  8
TOPPASTE
100
AcDbLine
 10
-4.01999958
 20
-2.43000022
 30
0.0
 11
-6.200000299999999
 21
-2.43000022
 31
0.0
  0
LINE
  5
3C6
330
387
100
AcDbEntity
  8
TOPPASTE
100
AcDbLine
 10
4.01999958
 20
-2.43000022
 30
0.0
 11
4.01999958
 21
-4.4300013
 31
0.0
  0
LINE
  5
3C7
330
387
100
AcDbEntity
  8
TOPPASTE
100
AcDbLine
 10
4.01999958
 20
-4.4300013
 30
0.0
 11
6.200000299999999
 21
-4.4300013
 31
0.0
  0
LINE
  5
3C8
330
387
100
AcDbEntity
  8
TOPPASTE
100
AcDbLine
 10
6.200000299999999
 20
-4.4300013
 30
0.0
 11
6.200000299999999
 21
-2.43000022
 31
0.0
  0
LINE
  5
3C9
330
387
100
AcDbEntity
  8
TOPPASTE
100
AcDbLine
 10
6.200000299999999
 20
-2.43000022
 30
0.0
 11
4.01999958
 21
-2.43000022
 31
0.0
  0
CIRCLE
  5
3CA
330
387
100
AcDbEntity
  8
PADHOLELAYER
100
AcDbCircle
 10
-2.8899993
 20
0.0
 30
0.0
 40
0.32500062
  0
CIRCLE
  5
3CB
330
387
100
AcDbEntity
  8
PADHOLELAYER
100
AcDbCircle
 10
2.8899993
 20
0.0
 30
0.0
 40
0.32500062
  0
ENDBLK
  5
389
330
387
100
AcDbEntity
  8
0
100
AcDbBlockEnd
  0
BLOCK
  5
3CE
330
3CD
100
AcDbEntity
  8
0
100
AcDbBlockBegin
  2
SPANSION_WSON_8_6_5MM_29
 70
     0
 10
0.0
 20
0.0
 30
0.0
  3
SPANSION_WSON_8_6_5MM_29
  1

  0
LINE
  5
3D0
330
3CD
100
AcDbEntity
  8
TOPPASTE
100
AcDbLine
 10
-1.59500062
 20
1.89499494
 30
0.0
 11
-1.59500062
 21
0.7649946599999999
 31
0.0
  0
LINE
  5
3D1
330
3CD
100
AcDbEntity
  8
TOPPASTE
100
AcDbLine
 10
-1.59500062
 20
0.7649946599999999
 30
0.0
 11
-0.66499994
 21
0.7649946599999999
 31
0.0
  0
LINE
  5
3D2
330
3CD
100
AcDbEntity
  8
TOPPASTE
100
AcDbLine
 10
-0.66499994
 20
0.7649946599999999
 30
0.0
 11
-0.66499994
 21
1.89499494
 31
0.0
  0
LINE
  5
3D3
330
3CD
100
AcDbEntity
  8
TOPPASTE
100
AcDbLine
 10
-0.66499994
 20
1.89499494
 30
0.0
 11
-1.59500062
 21
1.89499494
 31
0.0
  0
LINE
  5
3D4
330
3CD
100
AcDbEntity
  8
TOPPASTE
100
AcDbLine
 10
-1.59500062
 20
0.56499506
 30
0.0
 11
-1.59500062
 21
-0.56500522
 31
0.0
  0
LINE
  5
3D5
330
3CD
100
AcDbEntity
  8
TOPPASTE
100
AcDbLine
 10
-1.59500062
 20
-0.56500522
 30
0.0
 11
-0.66499994
 21
-0.56500522
 31
0.0
  0
LINE
  5
3D6
330
3CD
100
AcDbEntity
  8
TOPPASTE
100
AcDbLine
 10
-0.66499994
 20
-0.56500522
 30
0.0
 11
-0.66499994
 21
0.56499506
 31
0.0
  0
LINE
  5
3D7
330
3CD
100
AcDbEntity
  8
TOPPASTE
100
AcDbLine
 10
-0.66499994
 20
0.56499506
 30
0.0
 11
-1.59500062
 21
0.56499506
 31
0.0
  0
LINE
  5
3D8
330
3CD
100
AcDbEntity
  8
TOPPASTE
100
AcDbLine
 10
-1.59500062
 20
-0.7650048199999999
 30
0.0
 11
-1.59500062
 21
-1.8950051
 31
0.0
  0
LINE
  5
3D9
330
3CD
100
AcDbEntity
  8
TOPPASTE
100
AcDbLine
 10
-1.59500062
 20
-1.8950051
 30
0.0
 11
-0.66499994
 21
-1.8950051
 31
0.0
  0
LINE
  5
3DA
330
3CD
100
AcDbEntity
  8
TOPPASTE
100
AcDbLine
 10
-0.66499994
 20
-1.8950051
 30
0.0
 11
-0.66499994
 21
-0.7650048199999999
 31
0.0
  0
LINE
  5
3DB
330
3CD
100
AcDbEntity
  8
TOPPASTE
100
AcDbLine
 10
-0.66499994
 20
-0.7650048199999999
 30
0.0
 11
-1.59500062
 21
-0.7650048199999999
 31
0.0
  0
LINE
  5
3DC
330
3CD
100
AcDbEntity
  8
TOPPASTE
100
AcDbLine
 10
-0.46500034
 20
1.89499494
 30
0.0
 11
-0.46500034
 21
0.7649946599999999
 31
0.0
  0
LINE
  5
3DD
330
3CD
100
AcDbEntity
  8
TOPPASTE
100
AcDbLine
 10
-0.46500034
 20
0.7649946599999999
 30
0.0
 11
0.46500034
 21
0.7649946599999999
 31
0.0
  0
LINE
  5
3DE
330
3CD
100
AcDbEntity
  8
TOPPASTE
100
AcDbLine
 10
0.46500034
 20
0.7649946599999999
 30
0.0
 11
0.46500034
 21
1.89499494
 31
0.0
  0
LINE
  5
3DF
330
3CD
100
AcDbEntity
  8
TOPPASTE
100
AcDbLine
 10
0.46500034
 20
1.89499494
 30
0.0
 11
-0.46500034
 21
1.89499494
 31
0.0
  0
LINE
  5
3E0
330
3CD
100
AcDbEntity
  8
TOPPASTE
100
AcDbLine
 10
-0.46500034
 20
0.56499506
 30
0.0
 11
-0.46500034
 21
-0.56500522
 31
0.0
  0
LINE
  5
3E1
330
3CD
100
AcDbEntity
  8
TOPPASTE
100
AcDbLine
 10
-0.46500034
 20
-0.56500522
 30
0.0
 11
0.46500034
 21
-0.56500522
 31
0.0
  0
LINE
  5
3E2
330
3CD
100
AcDbEntity
  8
TOPPASTE
100
AcDbLine
 10
0.46500034
 20
-0.56500522
 30
0.0
 11
0.46500034
 21
0.56499506
 31
0.0
  0
LINE
  5
3E3
330
3CD
100
AcDbEntity
  8
TOPPASTE
100
AcDbLine
 10
0.46500034
 20
0.56499506
 30
0.0
 11
-0.46500034
 21
0.56499506
 31
0.0
  0
LINE
  5
3E4
330
3CD
100
AcDbEntity
  8
TOPPASTE
100
AcDbLine
 10
-0.46500034
 20
-0.7650048199999999
 30
0.0
 11
-0.46500034
 21
-1.8950051
 31
0.0
  0
LINE
  5
3E5
330
3CD
100
AcDbEntity
  8
TOPPASTE
100
AcDbLine
 10
-0.46500034
 20
-1.8950051
 30
0.0
 11
0.46500034
 21
-1.8950051
 31
0.0
  0
LINE
  5
3E6
330
3CD
100
AcDbEntity
  8
TOPPASTE
100
AcDbLine
 10
0.46500034
 20
-1.8950051
 30
0.0
 11
0.46500034
 21
-0.7650048199999999
 31
0.0
  0
LINE
  5
3E7
330
3CD
100
AcDbEntity
  8
TOPPASTE
100
AcDbLine
 10
0.46500034
 20
-0.7650048199999999
 30
0.0
 11
-0.46500034
 21
-0.7650048199999999
 31
0.0
  0
LINE
  5
3E8
330
3CD
100
AcDbEntity
  8
TOPPASTE
100
AcDbLine
 10
0.66499994
 20
1.89499494
 30
0.0
 11
0.66499994
 21
0.7649946599999999
 31
0.0
  0
LINE
  5
3E9
330
3CD
100
AcDbEntity
  8
TOPPASTE
100
AcDbLine
 10
0.66499994
 20
0.7649946599999999
 30
0.0
 11
1.59500062
 21
0.7649946599999999
 31
0.0
  0
LINE
  5
3EA
330
3CD
100
AcDbEntity
  8
TOPPASTE
100
AcDbLine
 10
1.59500062
 20
0.7649946599999999
 30
0.0
 11
1.59500062
 21
1.89499494
 31
0.0
  0
LINE
  5
3EB
330
3CD
100
AcDbEntity
  8
TOPPASTE
100
AcDbLine
 10
1.59500062
 20
1.89499494
 30
0.0
 11
0.66499994
 21
1.89499494
 31
0.0
  0
LINE
  5
3EC
330
3CD
100
AcDbEntity
  8
TOPPASTE
100
AcDbLine
 10
0.66499994
 20
0.56499506
 30
0.0
 11
0.66499994
 21
-0.56500522
 31
0.0
  0
LINE
  5
3ED
330
3CD
100
AcDbEntity
  8
TOPPASTE
100
AcDbLine
 10
0.66499994
 20
-0.56500522
 30
0.0
 11
1.59500062
 21
-0.56500522
 31
0.0
  0
LINE
  5
3EE
330
3CD
100
AcDbEntity
  8
TOPPASTE
100
AcDbLine
 10
1.59500062
 20
-0.56500522
 30
0.0
 11
1.59500062
 21
0.56499506
 31
0.0
  0
LINE
  5
3EF
330
3CD
100
AcDbEntity
  8
TOPPASTE
100
AcDbLine
 10
1.59500062
 20
0.56499506
 30
0.0
 11
0.66499994
 21
0.56499506
 31
0.0
  0
LINE
  5
3F0
330
3CD
100
AcDbEntity
  8
TOPPASTE
100
AcDbLine
 10
0.66499994
 20
-0.7650048199999999
 30
0.0
 11
0.66499994
 21
-1.8950051
 31
0.0
  0
LINE
  5
3F1
330
3CD
100
AcDbEntity
  8
TOPPASTE
100
AcDbLine
 10
0.66499994
 20
-1.8950051
 30
0.0
 11
1.59500062
 21
-1.8950051
 31
0.0
  0
LINE
  5
3F2
330
3CD
100
AcDbEntity
  8
TOPPASTE
100
AcDbLine
 10
1.59500062
 20
-1.8950051
 30
0.0
 11
1.59500062
 21
-0.7650048199999999
 31
0.0
  0
LINE
  5
3F3
330
3CD
100
AcDbEntity
  8
TOPPASTE
100
AcDbLine
 10
1.59500062
 20
-0.7650048199999999
 30
0.0
 11
0.66499994
 21
-0.7650048199999999
 31
0.0
  0
ARC
  5
3F4
330
3CD
100
AcDbEntity
  8
TOPPASTE
100
AcDbCircle
 10
-3.14500006
 20
1.905
 30
0.0
 40
0.1999996
100
AcDbArc
 50
90.0
 51
270.0
  0
LINE
  5
3F5
330
3CD
100
AcDbEntity
  8
TOPPASTE
100
AcDbLine
 10
-3.14500006
 20
2.1049996
 30
0.0
 11
-2.49499882
 21
2.1049996
 31
0.0
  0
LINE
  5
3F6
330
3CD
100
AcDbEntity
  8
TOPPASTE
100
AcDbLine
 10
-3.14500006
 20
1.7050004
 30
0.0
 11
-2.49499882
 21
1.7050004
 31
0.0
  0
ARC
  5
3F7
330
3CD
100
AcDbEntity
  8
TOPPASTE
100
AcDbCircle
 10
-2.49499882
 20
1.905
 30
0.0
 40
0.1999996
100
AcDbArc
 50
270.0
 51
90.0
  0
ARC
  5
3F8
330
3CD
100
AcDbEntity
  8
TOPPASTE
100
AcDbCircle
 10
-3.14500006
 20
0.635
 30
0.0
 40
0.1999996
100
AcDbArc
 50
90.0
 51
270.0
  0
LINE
  5
3F9
330
3CD
100
AcDbEntity
  8
TOPPASTE
100
AcDbLine
 10
-3.14500006
 20
0.8349996
 30
0.0
 11
-2.49499882
 21
0.8349996
 31
0.0
  0
LINE
  5
3FA
330
3CD
100
AcDbEntity
  8
TOPPASTE
100
AcDbLine
 10
-3.14500006
 20
0.4350004
 30
0.0
 11
-2.49499882
 21
0.4350004
 31
0.0
  0
ARC
  5
3FB
330
3CD
100
AcDbEntity
  8
TOPPASTE
100
AcDbCircle
 10
-2.49499882
 20
0.635
 30
0.0
 40
0.1999996
100
AcDbArc
 50
270.0
 51
90.0
  0
ARC
  5
3FC
330
3CD
100
AcDbEntity
  8
TOPPASTE
100
AcDbCircle
 10
-3.14500006
 20
-0.635
 30
0.0
 40
0.1999996
100
AcDbArc
 50
90.0
 51
270.0
  0
LINE
  5
3FD
330
3CD
100
AcDbEntity
  8
TOPPASTE
100
AcDbLine
 10
-3.14500006
 20
-0.4350004
 30
0.0
 11
-2.49499882
 21
-0.4350004
 31
0.0
  0
LINE
  5
3FE
330
3CD
100
AcDbEntity
  8
TOPPASTE
100
AcDbLine
 10
-3.14500006
 20
-0.8349996
 30
0.0
 11
-2.49499882
 21
-0.8349996
 31
0.0
  0
ARC
  5
3FF
330
3CD
100
AcDbEntity
  8
TOPPASTE
100
AcDbCircle
 10
-2.49499882
 20
-0.635
 30
0.0
 40
0.1999996
100
AcDbArc
 50
270.0
 51
90.0
  0
ARC
  5
400
330
3CD
100
AcDbEntity
  8
TOPPASTE
100
AcDbCircle
 10
-3.14500006
 20
-1.905
 30
0.0
 40
0.1999996
100
AcDbArc
 50
90.0
 51
270.0
  0
LINE
  5
401
330
3CD
100
AcDbEntity
  8
TOPPASTE
100
AcDbLine
 10
-3.14500006
 20
-1.7050004
 30
0.0
 11
-2.49499882
 21
-1.7050004
 31
0.0
  0
LINE
  5
402
330
3CD
100
AcDbEntity
  8
TOPPASTE
100
AcDbLine
 10
-3.14500006
 20
-2.1049996
 30
0.0
 11
-2.49499882
 21
-2.1049996
 31
0.0
  0
ARC
  5
403
330
3CD
100
AcDbEntity
  8
TOPPASTE
100
AcDbCircle
 10
-2.49499882
 20
-1.905
 30
0.0
 40
0.1999996
100
AcDbArc
 50
270.0
 51
90.0
  0
ARC
  5
404
330
3CD
100
AcDbEntity
  8
TOPPASTE
100
AcDbCircle
 10
2.49499882
 20
1.905
 30
0.0
 40
0.1999996
100
AcDbArc
 50
90.0
 51
270.0
  0
LINE
  5
405
330
3CD
100
AcDbEntity
  8
TOPPASTE
100
AcDbLine
 10
2.49499882
 20
2.1049996
 30
0.0
 11
3.14500006
 21
2.1049996
 31
0.0
  0
LINE
  5
406
330
3CD
100
AcDbEntity
  8
TOPPASTE
100
AcDbLine
 10
2.49499882
 20
1.7050004
 30
0.0
 11
3.14500006
 21
1.7050004
 31
0.0
  0
ARC
  5
407
330
3CD
100
AcDbEntity
  8
TOPPASTE
100
AcDbCircle
 10
3.14500006
 20
1.905
 30
0.0
 40
0.1999996
100
AcDbArc
 50
270.0
 51
90.0
  0
ARC
  5
408
330
3CD
100
AcDbEntity
  8
TOPPASTE
100
AcDbCircle
 10
2.49499882
 20
0.635
 30
0.0
 40
0.1999996
100
AcDbArc
 50
90.0
 51
270.0
  0
LINE
  5
409
330
3CD
100
AcDbEntity
  8
TOPPASTE
100
AcDbLine
 10
2.49499882
 20
0.8349996
 30
0.0
 11
3.14500006
 21
0.8349996
 31
0.0
  0
LINE
  5
40A
330
3CD
100
AcDbEntity
  8
TOPPASTE
100
AcDbLine
 10
2.49499882
 20
0.4350004
 30
0.0
 11
3.14500006
 21
0.4350004
 31
0.0
  0
ARC
  5
40B
330
3CD
100
AcDbEntity
  8
TOPPASTE
100
AcDbCircle
 10
3.14500006
 20
0.635
 30
0.0
 40
0.1999996
100
AcDbArc
 50
270.0
 51
90.0
  0
ARC
  5
40C
330
3CD
100
AcDbEntity
  8
TOPPASTE
100
AcDbCircle
 10
2.49499882
 20
-0.635
 30
0.0
 40
0.1999996
100
AcDbArc
 50
90.0
 51
270.0
  0
LINE
  5
40D
330
3CD
100
AcDbEntity
  8
TOPPASTE
100
AcDbLine
 10
2.49499882
 20
-0.4350004
 30
0.0
 11
3.14500006
 21
-0.4350004
 31
0.0
  0
LINE
  5
40E
330
3CD
100
AcDbEntity
  8
TOPPASTE
100
AcDbLine
 10
2.49499882
 20
-0.8349996
 30
0.0
 11
3.14500006
 21
-0.8349996
 31
0.0
  0
ARC
  5
40F
330
3CD
100
AcDbEntity
  8
TOPPASTE
100
AcDbCircle
 10
3.14500006
 20
-0.635
 30
0.0
 40
0.1999996
100
AcDbArc
 50
270.0
 51
90.0
  0
ARC
  5
410
330
3CD
100
AcDbEntity
  8
TOPPASTE
100
AcDbCircle
 10
2.49499882
 20
-1.905
 30
0.0
 40
0.1999996
100
AcDbArc
 50
90.0
 51
270.0
  0
LINE
  5
411
330
3CD
100
AcDbEntity
  8
TOPPASTE
100
AcDbLine
 10
2.49499882
 20
-1.7050004
 30
0.0
 11
3.14500006
 21
-1.7050004
 31
0.0
  0
LINE
  5
412
330
3CD
100
AcDbEntity
  8
TOPPASTE
100
AcDbLine
 10
2.49499882
 20
-2.1049996
 30
0.0
 11
3.14500006
 21
-2.1049996
 31
0.0
  0
ARC
  5
413
330
3CD
100
AcDbEntity
  8
TOPPASTE
100
AcDbCircle
 10
3.14500006
 20
-1.905
 30
0.0
 40
0.1999996
100
AcDbArc
 50
270.0
 51
90.0
  0
LINE
  5
414
330
3CD
100
AcDbEntity
  8
TOPPASTE
100
AcDbLine
 10
0.0
 20
-0.2999994
 30
0.0
 11
0.0
 21
-0.2999994
 31
0.0
  0
LINE
  5
415
330
3CD
100
AcDbEntity
  8
TOPPASTE
100
AcDbLine
 10
0.0
 20
-0.2999994
 30
0.0
 11
0.0
 21
0.2999994
 31
0.0
  0
LINE
  5
416
330
3CD
100
AcDbEntity
  8
TOPPASTE
100
AcDbLine
 10
0.0
 20
0.2999994
 30
0.0
 11
0.0
 21
0.2999994
 31
0.0
  0
LINE
  5
417
330
3CD
100
AcDbEntity
  8
TOPPASTE
100
AcDbLine
 10
0.0
 20
0.2999994
 30
0.0
 11
0.0
 21
-0.2999994
 31
0.0
  0
ENDBLK
  5
3CF
330
3CD
100
AcDbEntity
  8
0
100
AcDbBlockEnd
  0
BLOCK
  5
41A
330
419
100
AcDbEntity
  8
0
100
AcDbBlockBegin
  2
CAP_0603_1608_30
 70
     0
 10
0.0
 20
0.0
 30
0.0
  3
CAP_0603_1608_30
  1

  0
LINE
  5
41C
330
419
100
AcDbEntity
  8
TOPPASTE
100
AcDbLine
 10
0.40000174
 20
-0.4499991
 30
0.0
 11
1.00000054
 21
-0.4499991
 31
0.0
  0
LINE
  5
41D
330
419
100
AcDbEntity
  8
TOPPASTE
100
AcDbLine
 10
1.00000054
 20
-0.4499991
 30
0.0
 11
1.00000054
 21
0.4499991
 31
0.0
  0
LINE
  5
41E
330
419
100
AcDbEntity
  8
TOPPASTE
100
AcDbLine
 10
1.00000054
 20
0.4499991
 30
0.0
 11
0.40000174
 21
0.4499991
 31
0.0
  0
LINE
  5
41F
330
419
100
AcDbEntity
  8
TOPPASTE
100
AcDbLine
 10
0.40000174
 20
0.4499991
 30
0.0
 11
0.40000174
 21
-0.4499991
 31
0.0
  0
LINE
  5
420
330
419
100
AcDbEntity
  8
TOPPASTE
100
AcDbLine
 10
-1.00000054
 20
-0.4499991
 30
0.0
 11
-0.40000174
 21
-0.4499991
 31
0.0
  0
LINE
  5
421
330
419
100
AcDbEntity
  8
TOPPASTE
100
AcDbLine
 10
-0.40000174
 20
-0.4499991
 30
0.0
 11
-0.40000174
 21
0.4499991
 31
0.0
  0
LINE
  5
422
330
419
100
AcDbEntity
  8
TOPPASTE
100
AcDbLine
 10
-0.40000174
 20
0.4499991
 30
0.0
 11
-1.00000054
 21
0.4499991
 31
0.0
  0
LINE
  5
423
330
419
100
AcDbEntity
  8
TOPPASTE
100
AcDbLine
 10
-1.00000054
 20
0.4499991
 30
0.0
 11
-1.00000054
 21
-0.4499991
 31
0.0
  0
ENDBLK
  5
41B
330
419
100
AcDbEntity
  8
0
100
AcDbBlockEnd
  0
BLOCK
  5
426
330
425
100
AcDbEntity
  8
0
100
AcDbBlockBegin
  2
CAP_0603_1608_31
 70
     0
 10
0.0
 20
0.0
 30
0.0
  3
CAP_0603_1608_31
  1

  0
LINE
  5
428
330
425
100
AcDbEntity
  8
TOPPASTE
100
AcDbLine
 10
-1.00000054
 20
-0.4499991
 30
0.0
 11
-0.40000174
 21
-0.4499991
 31
0.0
  0
LINE
  5
429
330
425
100
AcDbEntity
  8
TOPPASTE
100
AcDbLine
 10
-0.40000174
 20
-0.4499991
 30
0.0
 11
-0.40000174
 21
0.4499991
 31
0.0
  0
LINE
  5
42A
330
425
100
AcDbEntity
  8
TOPPASTE
100
AcDbLine
 10
-0.40000174
 20
0.4499991
 30
0.0
 11
-1.00000054
 21
0.4499991
 31
0.0
  0
LINE
  5
42B
330
425
100
AcDbEntity
  8
TOPPASTE
100
AcDbLine
 10
-1.00000054
 20
0.4499991
 30
0.0
 11
-1.00000054
 21
-0.4499991
 31
0.0
  0
LINE
  5
42C
330
425
100
AcDbEntity
  8
TOPPASTE
100
AcDbLine
 10
0.40000174
 20
-0.4499991
 30
0.0
 11
1.00000054
 21
-0.4499991
 31
0.0
  0
LINE
  5
42D
330
425
100
AcDbEntity
  8
TOPPASTE
100
AcDbLine
 10
1.00000054
 20
-0.4499991
 30
0.0
 11
1.00000054
 21
0.4499991
 31
0.0
  0
LINE
  5
42E
330
425
100
AcDbEntity
  8
TOPPASTE
100
AcDbLine
 10
1.00000054
 20
0.4499991
 30
0.0
 11
0.40000174
 21
0.4499991
 31
0.0
  0
LINE
  5
42F
330
425
100
AcDbEntity
  8
TOPPASTE
100
AcDbLine
 10
0.40000174
 20
0.4499991
 30
0.0
 11
0.40000174
 21
-0.4499991
 31
0.0
  0
ENDBLK
  5
427
330
425
100
AcDbEntity
  8
0
100
AcDbBlockEnd
  0
BLOCK
  5
432
330
431
100
AcDbEntity
  8
0
100
AcDbBlockBegin
  2
CAP_0603_1608_32
 70
     0
 10
0.0
 20
0.0
 30
0.0
  3
CAP_0603_1608_32
  1

  0
LINE
  5
434
330
431
100
AcDbEntity
  8
TOPPASTE
100
AcDbLine
 10
-1.00000054
 20
-0.4499991
 30
0.0
 11
-0.40000174
 21
-0.4499991
 31
0.0
  0
LINE
  5
435
330
431
100
AcDbEntity
  8
TOPPASTE
100
AcDbLine
 10
-0.40000174
 20
-0.4499991
 30
0.0
 11
-0.40000174
 21
0.4499991
 31
0.0
  0
LINE
  5
436
330
431
100
AcDbEntity
  8
TOPPASTE
100
AcDbLine
 10
-0.40000174
 20
0.4499991
 30
0.0
 11
-1.00000054
 21
0.4499991
 31
0.0
  0
LINE
  5
437
330
431
100
AcDbEntity
  8
TOPPASTE
100
AcDbLine
 10
-1.00000054
 20
0.4499991
 30
0.0
 11
-1.00000054
 21
-0.4499991
 31
0.0
  0
LINE
  5
438
330
431
100
AcDbEntity
  8
TOPPASTE
100
AcDbLine
 10
0.40000174
 20
-0.4499991
 30
0.0
 11
1.00000054
 21
-0.4499991
 31
0.0
  0
LINE
  5
439
330
431
100
AcDbEntity
  8
TOPPASTE
100
AcDbLine
 10
1.00000054
 20
-0.4499991
 30
0.0
 11
1.00000054
 21
0.4499991
 31
0.0
  0
LINE
  5
43A
330
431
100
AcDbEntity
  8
TOPPASTE
100
AcDbLine
 10
1.00000054
 20
0.4499991
 30
0.0
 11
0.40000174
 21
0.4499991
 31
0.0
  0
LINE
  5
43B
330
431
100
AcDbEntity
  8
TOPPASTE
100
AcDbLine
 10
0.40000174
 20
0.4499991
 30
0.0
 11
0.40000174
 21
-0.4499991
 31
0.0
  0
ENDBLK
  5
433
330
431
100
AcDbEntity
  8
0
100
AcDbBlockEnd
  0
BLOCK
  5
43E
330
43D
100
AcDbEntity
  8
0
100
AcDbBlockBegin
  2
CAP_0603_1608_33
 70
     0
 10
0.0
 20
0.0
 30
0.0
  3
CAP_0603_1608_33
  1

  0
LINE
  5
440
330
43D
100
AcDbEntity
  8
TOPPASTE
100
AcDbLine
 10
-1.00000054
 20
-0.4499991
 30
0.0
 11
-0.40000174
 21
-0.4499991
 31
0.0
  0
LINE
  5
441
330
43D
100
AcDbEntity
  8
TOPPASTE
100
AcDbLine
 10
-0.40000174
 20
-0.4499991
 30
0.0
 11
-0.40000174
 21
0.4499991
 31
0.0
  0
LINE
  5
442
330
43D
100
AcDbEntity
  8
TOPPASTE
100
AcDbLine
 10
-0.40000174
 20
0.4499991
 30
0.0
 11
-1.00000054
 21
0.4499991
 31
0.0
  0
LINE
  5
443
330
43D
100
AcDbEntity
  8
TOPPASTE
100
AcDbLine
 10
-1.00000054
 20
0.4499991
 30
0.0
 11
-1.00000054
 21
-0.4499991
 31
0.0
  0
LINE
  5
444
330
43D
100
AcDbEntity
  8
TOPPASTE
100
AcDbLine
 10
0.40000174
 20
-0.4499991
 30
0.0
 11
1.00000054
 21
-0.4499991
 31
0.0
  0
LINE
  5
445
330
43D
100
AcDbEntity
  8
TOPPASTE
100
AcDbLine
 10
1.00000054
 20
-0.4499991
 30
0.0
 11
1.00000054
 21
0.4499991
 31
0.0
  0
LINE
  5
446
330
43D
100
AcDbEntity
  8
TOPPASTE
100
AcDbLine
 10
1.00000054
 20
0.4499991
 30
0.0
 11
0.40000174
 21
0.4499991
 31
0.0
  0
LINE
  5
447
330
43D
100
AcDbEntity
  8
TOPPASTE
100
AcDbLine
 10
0.40000174
 20
0.4499991
 30
0.0
 11
0.40000174
 21
-0.4499991
 31
0.0
  0
ENDBLK
  5
43F
330
43D
100
AcDbEntity
  8
0
100
AcDbBlockEnd
  0
ENDSEC
  0
SECTION
  2
ENTITIES
  0
CIRCLE
  5
71
330
1F
100
AcDbEntity
  8
VIAHOLELAYER
100
AcDbCircle
 10
-17.526
 20
10.922
 30
0.0
 40
0.1499997
  0
CIRCLE
  5
72
330
1F
100
AcDbEntity
  8
VIAHOLELAYER
100
AcDbCircle
 10
-14.42699934
 20
11.938
 30
0.0
 40
0.1499997
  0
CIRCLE
  5
73
330
1F
100
AcDbEntity
  8
VIAHOLELAYER
100
AcDbCircle
 10
-12.319
 20
5.334
 30
0.0
 40
0.1499997
  0
CIRCLE
  5
74
330
1F
100
AcDbEntity
  8
VIAHOLELAYER
100
AcDbCircle
 10
-12.319
 20
7.238999999999999
 30
0.0
 40
0.1499997
  0
CIRCLE
  5
75
330
1F
100
AcDbEntity
  8
VIAHOLELAYER
100
AcDbCircle
 10
-7.3100184
 20
18.54998068
 30
0.0
 40
0.1499997
  0
CIRCLE
  5
76
330
1F
100
AcDbEntity
  8
VIAHOLELAYER
100
AcDbCircle
 10
-5.81001886
 20
9.549983439999998
 30
0.0
 40
0.1499997
  0
CIRCLE
  5
77
330
1F
100
AcDbEntity
  8
VIAHOLELAYER
100
AcDbCircle
 10
-5.81001886
 20
3.54998528
 30
0.0
 40
0.1499997
  0
CIRCLE
  5
78
330
1F
100
AcDbEntity
  8
VIAHOLELAYER
100
AcDbCircle
 10
-10.31001748
 20
12.54998252
 30
0.0
 40
0.1499997
  0
CIRCLE
  5
79
330
1F
100
AcDbEntity
  8
VIAHOLELAYER
100
AcDbCircle
 10
-8.81001794
 20
9.549983439999998
 30
0.0
 40
0.1499997
  0
CIRCLE
  5
7A
330
1F
100
AcDbEntity
  8
VIAHOLELAYER
100
AcDbCircle
 10
-25.31001288
 20
0.5499862
 30
0.0
 40
0.1499997
  0
CIRCLE
  5
7B
330
1F
100
AcDbEntity
  8
VIAHOLELAYER
100
AcDbCircle
 10
-31.31001104
 20
6.549984359999999
 30
0.0
 40
0.1499997
  0
CIRCLE
  5
7C
330
1F
100
AcDbEntity
  8
VIAHOLELAYER
100
AcDbCircle
 10
-35.81000966
 20
15.5499816
 30
0.0
 40
0.1499997
  0
CIRCLE
  5
7D
330
1F
100
AcDbEntity
  8
VIAHOLELAYER
100
AcDbCircle
 10
-40.31000828
 20
0.5499862
 30
0.0
 40
0.1499997
  0
CIRCLE
  5
7E
330
1F
100
AcDbEntity
  8
VIAHOLELAYER
100
AcDbCircle
 10
-43.31000735999999
 20
6.549984359999999
 30
0.0
 40
0.1499997
  0
CIRCLE
  5
7F
330
1F
100
AcDbEntity
  8
VIAHOLELAYER
100
AcDbCircle
 10
-46.31000644
 20
12.54998252
 30
0.0
 40
0.1499997
  0
CIRCLE
  5
80
330
1F
100
AcDbEntity
  8
VIAHOLELAYER
100
AcDbCircle
 10
-46.31000644
 20
0.5499862
 30
0.0
 40
0.1499997
  0
CIRCLE
  5
81
330
1F
100
AcDbEntity
  8
VIAHOLELAYER
100
AcDbCircle
 10
-49.31000552
 20
18.54998068
 30
0.0
 40
0.1499997
  0
CIRCLE
  5
82
330
1F
100
AcDbEntity
  8
VIAHOLELAYER
100
AcDbCircle
 10
-49.31000552
 20
0.5499862
 30
0.0
 40
0.1499997
  0
CIRCLE
  5
83
330
1F
100
AcDbEntity
  8
VIAHOLELAYER
100
AcDbCircle
 10
-52.31000459999999
 20
18.54998068
 30
0.0
 40
0.1499997
  0
CIRCLE
  5
84
330
1F
100
AcDbEntity
  8
VIAHOLELAYER
100
AcDbCircle
 10
-50.81000506
 20
15.5499816
 30
0.0
 40
0.1499997
  0
CIRCLE
  5
85
330
1F
100
AcDbEntity
  8
VIAHOLELAYER
100
AcDbCircle
 10
-52.31000459999999
 20
12.54998252
 30
0.0
 40
0.1499997
  0
CIRCLE
  5
86
330
1F
100
AcDbEntity
  8
VIAHOLELAYER
100
AcDbCircle
 10
-52.31000459999999
 20
0.5499862
 30
0.0
 40
0.1499997
  0
CIRCLE
  5
87
330
1F
100
AcDbEntity
  8
VIAHOLELAYER
100
AcDbCircle
 10
-55.31000368
 20
18.54998068
 30
0.0
 40
0.1499997
  0
CIRCLE
  5
88
330
1F
100
AcDbEntity
  8
VIAHOLELAYER
100
AcDbCircle
 10
-55.31000368
 20
12.54998252
 30
0.0
 40
0.1499997
  0
CIRCLE
  5
89
330
1F
100
AcDbEntity
  8
VIAHOLELAYER
100
AcDbCircle
 10
-53.81000414
 20
9.549983439999998
 30
0.0
 40
0.1499997
  0
CIRCLE
  5
8A
330
1F
100
AcDbEntity
  8
VIAHOLELAYER
100
AcDbCircle
 10
-55.31000368
 20
6.549984359999999
 30
0.0
 40
0.1499997
  0
CIRCLE
  5
8B
330
1F
100
AcDbEntity
  8
VIAHOLELAYER
100
AcDbCircle
 10
-15.748
 20
14.351
 30
0.0
 40
0.1499997
  0
CIRCLE
  5
8C
330
1F
100
AcDbEntity
  8
VIAHOLELAYER
100
AcDbCircle
 10
-52.197
 20
9.143999999999998
 30
0.0
 40
0.1499997
  0
CIRCLE
  5
8D
330
1F
100
AcDbEntity
  8
VIAHOLELAYER
100
AcDbCircle
 10
-46.355
 20
21.844
 30
0.0
 40
0.1499997
  0
CIRCLE
  5
8E
330
1F
100
AcDbEntity
  8
VIAHOLELAYER
100
AcDbCircle
 10
-47.371
 20
18.542
 30
0.0
 40
0.1499997
  0
CIRCLE
  5
8F
330
1F
100
AcDbEntity
  8
VIAHOLELAYER
100
AcDbCircle
 10
-50.92699999999999
 20
18.415
 30
0.0
 40
0.1499997
  0
CIRCLE
  5
90
330
1F
100
AcDbEntity
  8
VIAHOLELAYER
100
AcDbCircle
 10
-30.988
 20
3.81
 30
0.0
 40
0.1499997
  0
CIRCLE
  5
91
330
1F
100
AcDbEntity
  8
VIAHOLELAYER
100
AcDbCircle
 10
-17.399
 20
15.621
 30
0.0
 40
0.1499997
  0
CIRCLE
  5
92
330
1F
100
AcDbEntity
  8
VIAHOLELAYER
100
AcDbCircle
 10
-18.98800114
 20
16.69899886
 30
0.0
 40
0.1499997
  0
CIRCLE
  5
93
330
1F
100
AcDbEntity
  8
VIAHOLELAYER
100
AcDbCircle
 10
-17.78
 20
14.986
 30
0.0
 40
0.1499997
  0
CIRCLE
  5
94
330
1F
100
AcDbEntity
  8
VIAHOLELAYER
100
AcDbCircle
 10
-24.511
 20
4.571999999999999
 30
0.0
 40
0.1499997
  0
CIRCLE
  5
95
330
1F
100
AcDbEntity
  8
VIAHOLELAYER
100
AcDbCircle
 10
-9.270999999999999
 20
11.176
 30
0.0
 40
0.1499997
  0
CIRCLE
  5
96
330
1F
100
AcDbEntity
  8
VIAHOLELAYER
100
AcDbCircle
 10
-10.16
 20
4.064
 30
0.0
 40
0.1499997
  0
CIRCLE
  5
97
330
1F
100
AcDbEntity
  8
VIAHOLELAYER
100
AcDbCircle
 10
-26.43739949999999
 20
4.064
 30
0.0
 40
0.1499997
  0
CIRCLE
  5
98
330
1F
100
AcDbEntity
  8
VIAHOLELAYER
100
AcDbCircle
 10
-27.432
 20
4.064
 30
0.0
 40
0.1499997
  0
CIRCLE
  5
99
330
1F
100
AcDbEntity
  8
VIAHOLELAYER
100
AcDbCircle
 10
-24.257
 20
17.78
 30
0.0
 40
0.1499997
  0
CIRCLE
  5
9A
330
1F
100
AcDbEntity
  8
VIAHOLELAYER
100
AcDbCircle
 10
-23.749
 20
17.272
 30
0.0
 40
0.1499997
  0
CIRCLE
  5
9B
330
1F
100
AcDbEntity
  8
VIAHOLELAYER
100
AcDbCircle
 10
-21.971
 20
17.36266276
 30
0.0
 40
0.1499997
  0
CIRCLE
  5
9C
330
1F
100
AcDbEntity
  8
VIAHOLELAYER
100
AcDbCircle
 10
-29.96974956
 20
14.75725014
 30
0.0
 40
0.1499997
  0
CIRCLE
  5
9D
330
1F
100
AcDbEntity
  8
VIAHOLELAYER
100
AcDbCircle
 10
-33.274
 20
17.399
 30
0.0
 40
0.1499997
  0
CIRCLE
  5
9E
330
1F
100
AcDbEntity
  8
VIAHOLELAYER
100
AcDbCircle
 10
-31.1193307
 20
12.9758694
 30
0.0
 40
0.1499997
  0
CIRCLE
  5
9F
330
1F
100
AcDbEntity
  8
VIAHOLELAYER
100
AcDbCircle
 10
-27.178
 20
20.32
 30
0.0
 40
0.1499997
  0
CIRCLE
  5
A0
330
1F
100
AcDbEntity
  8
VIAHOLELAYER
100
AcDbCircle
 10
-27.88172478
 20
20.32
 30
0.0
 40
0.1499997
  0
CIRCLE
  5
A1
330
1F
100
AcDbEntity
  8
VIAHOLELAYER
100
AcDbCircle
 10
-19.685
 20
16.637
 30
0.0
 40
0.1499997
  0
CIRCLE
  5
A2
330
1F
100
AcDbEntity
  8
VIAHOLELAYER
100
AcDbCircle
 10
-14.76824072
 20
14.3566007
 30
0.0
 40
0.1499997
  0
CIRCLE
  5
A3
330
1F
100
AcDbEntity
  8
VIAHOLELAYER
100
AcDbCircle
 10
-19.05
 20
3.302
 30
0.0
 40
0.1499997
  0
CIRCLE
  5
A4
330
1F
100
AcDbEntity
  8
VIAHOLELAYER
100
AcDbCircle
 10
-19.812
 20
4.444999999999999
 30
0.0
 40
0.1499997
  0
CIRCLE
  5
A5
330
1F
100
AcDbEntity
  8
VIAHOLELAYER
100
AcDbCircle
 10
-20.32
 20
3.81
 30
0.0
 40
0.1499997
  0
CIRCLE
  5
A6
330
1F
100
AcDbEntity
  8
VIAHOLELAYER
100
AcDbCircle
 10
-14.859
 20
13.589
 30
0.0
 40
0.1499997
  0
CIRCLE
  5
A7
330
1F
100
AcDbEntity
  8
VIAHOLELAYER
100
AcDbCircle
 10
-22.225
 20
11.684
 30
0.0
 40
0.1499997
  0
CIRCLE
  5
A8
330
1F
100
AcDbEntity
  8
VIAHOLELAYER
100
AcDbCircle
 10
-25.4
 20
14.097
 30
0.0
 40
0.1499997
  0
CIRCLE
  5
A9
330
1F
100
AcDbEntity
  8
VIAHOLELAYER
100
AcDbCircle
 10
-26.162
 20
9.398
 30
0.0
 40
0.1499997
  0
CIRCLE
  5
AA
330
1F
100
AcDbEntity
  8
VIAHOLELAYER
100
AcDbCircle
 10
-19.177
 20
4.191
 30
0.0
 40
0.1499997
  0
CIRCLE
  5
AB
330
1F
100
AcDbEntity
  8
VIAHOLELAYER
100
AcDbCircle
 10
-54.102
 20
11.049
 30
0.0
 40
0.1499997
  0
CIRCLE
  5
AC
330
1F
100
AcDbEntity
  8
VIAHOLELAYER
100
AcDbCircle
 10
-36.83
 20
16.764
 30
0.0
 40
0.1499997
  0
CIRCLE
  5
AD
330
1F
100
AcDbEntity
  8
VIAHOLELAYER
100
AcDbCircle
 10
-38.354
 20
15.748
 30
0.0
 40
0.1499997
  0
CIRCLE
  5
AE
330
1F
100
AcDbEntity
  8
VIAHOLELAYER
100
AcDbCircle
 10
-31.07725052
 20
8.72525052
 30
0.0
 40
0.1499997
  0
CIRCLE
  5
AF
330
1F
100
AcDbEntity
  8
VIAHOLELAYER
100
AcDbCircle
 10
-17.78
 20
10.033
 30
0.0
 40
0.1499997
  0
CIRCLE
  5
B0
330
1F
100
AcDbEntity
  8
VIAHOLELAYER
100
AcDbCircle
 10
-18.53800204
 20
11.43399796
 30
0.0
 40
0.1499997
  0
CIRCLE
  5
B1
330
1F
100
AcDbEntity
  8
VIAHOLELAYER
100
AcDbCircle
 10
-35.687
 20
13.208
 30
0.0
 40
0.1499997
  0
CIRCLE
  5
B2
330
1F
100
AcDbEntity
  8
VIAHOLELAYER
100
AcDbCircle
 10
-41.65599999999999
 20
9.524999999999999
 30
0.0
 40
0.1499997
  0
CIRCLE
  5
B3
330
1F
100
AcDbEntity
  8
VIAHOLELAYER
100
AcDbCircle
 10
-37.084
 20
20.955
 30
0.0
 40
0.1499997
  0
CIRCLE
  5
B4
330
1F
100
AcDbEntity
  8
VIAHOLELAYER
100
AcDbCircle
 10
-35.81399999999999
 20
18.161
 30
0.0
 40
0.1499997
  0
CIRCLE
  5
B5
330
1F
100
AcDbEntity
  8
VIAHOLELAYER
100
AcDbCircle
 10
-30.861
 20
11.684
 30
0.0
 40
0.1499997
  0
CIRCLE
  5
B6
330
1F
100
AcDbEntity
  8
VIAHOLELAYER
100
AcDbCircle
 10
-34.671
 20
14.986
 30
0.0
 40
0.1499997
  0
CIRCLE
  5
B7
330
1F
100
AcDbEntity
  8
VIAHOLELAYER
100
AcDbCircle
 10
-20.88560212
 20
2.921
 30
0.0
 40
0.1499997
  0
CIRCLE
  5
B8
330
1F
100
AcDbEntity
  8
VIAHOLELAYER
100
AcDbCircle
 10
-22.479
 20
2.268601
 30
0.0
 40
0.1499997
  0
CIRCLE
  5
B9
330
1F
100
AcDbEntity
  8
VIAHOLELAYER
100
AcDbCircle
 10
-25.146
 20
5.27200114
 30
0.0
 40
0.1499997
  0
CIRCLE
  5
BA
330
1F
100
AcDbEntity
  8
VIAHOLELAYER
100
AcDbCircle
 10
-24.003
 20
3.81
 30
0.0
 40
0.1499997
  0
CIRCLE
  5
BB
330
1F
100
AcDbEntity
  8
VIAHOLELAYER
100
AcDbCircle
 10
-30.226
 20
9.524999999999999
 30
0.0
 40
0.1499997
  0
CIRCLE
  5
BC
330
1F
100
AcDbEntity
  8
VIAHOLELAYER
100
AcDbCircle
 10
-30.734
 20
8.001
 30
0.0
 40
0.1499997
  0
CIRCLE
  5
BD
330
1F
100
AcDbEntity
  8
VIAHOLELAYER
100
AcDbCircle
 10
-30.099
 20
7.365999999999999
 30
0.0
 40
0.1499997
  0
CIRCLE
  5
BE
330
1F
100
AcDbEntity
  8
VIAHOLELAYER
100
AcDbCircle
 10
-30.099
 20
15.494
 30
0.0
 40
0.1499997
  0
CIRCLE
  5
BF
330
1F
100
AcDbEntity
  8
VIAHOLELAYER
100
AcDbCircle
 10
-19.04299976
 20
7.619999999999999
 30
0.0
 40
0.1499997
  0
CIRCLE
  5
C0
330
1F
100
AcDbEntity
  8
VIAHOLELAYER
100
AcDbCircle
 10
-17.907
 20
8.254999999999999
 30
0.0
 40
0.1499997
  0
CIRCLE
  5
C1
330
1F
100
AcDbEntity
  8
VIAHOLELAYER
100
AcDbCircle
 10
-32.89299999999999
 20
2.794
 30
0.0
 40
0.1499997
  0
CIRCLE
  5
C2
330
1F
100
AcDbEntity
  8
VIAHOLELAYER
100
AcDbCircle
 10
-50.038
 20
11.1038005
 30
0.0
 40
0.1499997
  0
CIRCLE
  5
C3
330
1F
100
AcDbEntity
  8
VIAHOLELAYER
100
AcDbCircle
 10
-50.038
 20
11.7561995
 30
0.0
 40
0.1499997
  0
CIRCLE
  5
C4
330
1F
100
AcDbEntity
  8
VIAHOLELAYER
100
AcDbCircle
 10
-50.038
 20
10.287
 30
0.0
 40
0.1499997
  0
CIRCLE
  5
C5
330
1F
100
AcDbEntity
  8
VIAHOLELAYER
100
AcDbCircle
 10
-49.66400024
 20
15.77799994
 30
0.0
 40
0.1499997
  0
CIRCLE
  5
C6
330
1F
100
AcDbEntity
  8
VIAHOLELAYER
100
AcDbCircle
 10
-49.66400024
 20
16.53999994
 30
0.0
 40
0.1499997
  0
CIRCLE
  5
C7
330
1F
100
AcDbEntity
  8
VIAHOLELAYER
100
AcDbCircle
 10
-49.66400024
 20
17.30199994
 30
0.0
 40
0.1499997
  0
CIRCLE
  5
C8
330
1F
100
AcDbEntity
  8
VIAHOLELAYER
100
AcDbCircle
 10
-49.030001
 20
17.30199994
 30
0.0
 40
0.1499997
  0
CIRCLE
  5
C9
330
1F
100
AcDbEntity
  8
VIAHOLELAYER
100
AcDbCircle
 10
-49.030001
 20
16.53999994
 30
0.0
 40
0.1499997
  0
CIRCLE
  5
CA
330
1F
100
AcDbEntity
  8
VIAHOLELAYER
100
AcDbCircle
 10
-49.030001
 20
15.77799994
 30
0.0
 40
0.1499997
  0
CIRCLE
  5
CB
330
1F
100
AcDbEntity
  8
VIAHOLELAYER
100
AcDbCircle
 10
-48.39600176
 20
15.77799994
 30
0.0
 40
0.1499997
  0
CIRCLE
  5
CC
330
1F
100
AcDbEntity
  8
VIAHOLELAYER
100
AcDbCircle
 10
-48.39600176
 20
16.53999994
 30
0.0
 40
0.1499997
  0
CIRCLE
  5
CD
330
1F
100
AcDbEntity
  8
VIAHOLELAYER
100
AcDbCircle
 10
-48.39600176
 20
17.30199994
 30
0.0
 40
0.1499997
  0
CIRCLE
  5
CE
330
1F
100
AcDbEntity
  8
VIAHOLELAYER
100
AcDbCircle
 10
-53.59399999999999
 20
15.77799994
 30
0.0
 40
0.1499997
  0
CIRCLE
  5
CF
330
1F
100
AcDbEntity
  8
VIAHOLELAYER
100
AcDbCircle
 10
-53.59399999999999
 20
16.53999994
 30
0.0
 40
0.1499997
  0
CIRCLE
  5
D0
330
1F
100
AcDbEntity
  8
VIAHOLELAYER
100
AcDbCircle
 10
-53.59399999999999
 20
17.30199994
 30
0.0
 40
0.1499997
  0
CIRCLE
  5
D1
330
1F
100
AcDbEntity
  8
VIAHOLELAYER
100
AcDbCircle
 10
-52.96000075999999
 20
17.30199994
 30
0.0
 40
0.1499997
  0
CIRCLE
  5
D2
330
1F
100
AcDbEntity
  8
VIAHOLELAYER
100
AcDbCircle
 10
-52.96000075999999
 20
16.53999994
 30
0.0
 40
0.1499997
  0
CIRCLE
  5
D3
330
1F
100
AcDbEntity
  8
VIAHOLELAYER
100
AcDbCircle
 10
-52.96000075999999
 20
15.77799994
 30
0.0
 40
0.1499997
  0
CIRCLE
  5
D4
330
1F
100
AcDbEntity
  8
VIAHOLELAYER
100
AcDbCircle
 10
-52.32600151999999
 20
15.77799994
 30
0.0
 40
0.1499997
  0
CIRCLE
  5
D5
330
1F
100
AcDbEntity
  8
VIAHOLELAYER
100
AcDbCircle
 10
-52.32600151999999
 20
16.53999994
 30
0.0
 40
0.1499997
  0
CIRCLE
  5
D6
330
1F
100
AcDbEntity
  8
VIAHOLELAYER
100
AcDbCircle
 10
-52.32600151999999
 20
17.30199994
 30
0.0
 40
0.1499997
  0
CIRCLE
  5
D7
330
1F
100
AcDbEntity
  8
VIAHOLELAYER
100
AcDbCircle
 10
-49.66400024
 20
5.55800006
 30
0.0
 40
0.1499997
  0
CIRCLE
  5
D8
330
1F
100
AcDbEntity
  8
VIAHOLELAYER
100
AcDbCircle
 10
-49.66400024
 20
6.32000006
 30
0.0
 40
0.1499997
  0
CIRCLE
  5
D9
330
1F
100
AcDbEntity
  8
VIAHOLELAYER
100
AcDbCircle
 10
-49.66400024
 20
7.082000059999999
 30
0.0
 40
0.1499997
  0
CIRCLE
  5
DA
330
1F
100
AcDbEntity
  8
VIAHOLELAYER
100
AcDbCircle
 10
-49.030001
 20
7.082000059999999
 30
0.0
 40
0.1499997
  0
CIRCLE
  5
DB
330
1F
100
AcDbEntity
  8
VIAHOLELAYER
100
AcDbCircle
 10
-49.030001
 20
6.32000006
 30
0.0
 40
0.1499997
  0
CIRCLE
  5
DC
330
1F
100
AcDbEntity
  8
VIAHOLELAYER
100
AcDbCircle
 10
-49.030001
 20
5.55800006
 30
0.0
 40
0.1499997
  0
CIRCLE
  5
DD
330
1F
100
AcDbEntity
  8
VIAHOLELAYER
100
AcDbCircle
 10
-48.39600176
 20
5.55800006
 30
0.0
 40
0.1499997
  0
CIRCLE
  5
DE
330
1F
100
AcDbEntity
  8
VIAHOLELAYER
100
AcDbCircle
 10
-48.39600176
 20
6.32000006
 30
0.0
 40
0.1499997
  0
CIRCLE
  5
DF
330
1F
100
AcDbEntity
  8
VIAHOLELAYER
100
AcDbCircle
 10
-48.39600176
 20
7.082000059999999
 30
0.0
 40
0.1499997
  0
CIRCLE
  5
E0
330
1F
100
AcDbEntity
  8
VIAHOLELAYER
100
AcDbCircle
 10
-52.32600151999999
 20
7.082000059999999
 30
0.0
 40
0.1499997
  0
CIRCLE
  5
E1
330
1F
100
AcDbEntity
  8
VIAHOLELAYER
100
AcDbCircle
 10
-52.32600151999999
 20
6.32000006
 30
0.0
 40
0.1499997
  0
CIRCLE
  5
E2
330
1F
100
AcDbEntity
  8
VIAHOLELAYER
100
AcDbCircle
 10
-52.32600151999999
 20
5.55800006
 30
0.0
 40
0.1499997
  0
CIRCLE
  5
E3
330
1F
100
AcDbEntity
  8
VIAHOLELAYER
100
AcDbCircle
 10
-52.96000075999999
 20
5.55800006
 30
0.0
 40
0.1499997
  0
CIRCLE
  5
E4
330
1F
100
AcDbEntity
  8
VIAHOLELAYER
100
AcDbCircle
 10
-52.96000075999999
 20
6.32000006
 30
0.0
 40
0.1499997
  0
CIRCLE
  5
E5
330
1F
100
AcDbEntity
  8
VIAHOLELAYER
100
AcDbCircle
 10
-52.96000075999999
 20
7.082000059999999
 30
0.0
 40
0.1499997
  0
CIRCLE
  5
E6
330
1F
100
AcDbEntity
  8
VIAHOLELAYER
100
AcDbCircle
 10
-53.59399999999999
 20
7.082000059999999
 30
0.0
 40
0.1499997
  0
CIRCLE
  5
E7
330
1F
100
AcDbEntity
  8
VIAHOLELAYER
100
AcDbCircle
 10
-53.59399999999999
 20
6.32000006
 30
0.0
 40
0.1499997
  0
CIRCLE
  5
E8
330
1F
100
AcDbEntity
  8
VIAHOLELAYER
100
AcDbCircle
 10
-53.59399999999999
 20
5.55800006
 30
0.0
 40
0.1499997
  0
CIRCLE
  5
E9
330
1F
100
AcDbEntity
  8
PADHOLELAYER
100
AcDbCircle
 10
-53.34
 20
20.32
 30
0.0
 40
1.27
  0
CIRCLE
  5
EA
330
1F
100
AcDbEntity
  8
PADHOLELAYER
100
AcDbCircle
 10
-53.34
 20
2.54
 30
0.0
 40
1.27
  0
CIRCLE
  5
EB
330
1F
100
AcDbEntity
  8
PADHOLELAYER
100
AcDbCircle
 10
-2.54
 20
2.54
 30
0.0
 40
1.27
  0
CIRCLE
  5
EC
330
1F
100
AcDbEntity
  8
PADHOLELAYER
100
AcDbCircle
 10
-2.54
 20
20.32
 30
0.0
 40
1.27
  0
INSERT
  5
F8
330
1F
100
AcDbEntity
  8
0
100
AcDbBlockReference
  2
RES_0603_1608_1
 10
-12.446
 20
15.875
 30
0.0
 50
270.0
  0
INSERT
  5
104
330
1F
100
AcDbEntity
  8
0
100
AcDbBlockReference
  2
RES_0603_1608_2
 10
-14.097
 20
15.875
 30
0.0
 50
270.0
  0
INSERT
  5
110
330
1F
100
AcDbEntity
  8
0
100
AcDbBlockReference
  2
RES_0603_1608_3
 10
-15.748
 20
15.875
 30
0.0
 50
270.0
  0
INSERT
  5
124
330
1F
100
AcDbEntity
  8
0
100
AcDbBlockReference
  2
FM_B2020RGBA_HG_4
 10
-14.27299914
 20
19.13400034
 30
0.0
 50
180.0
  0
INSERT
  5
140
330
1F
100
AcDbEntity
  8
0
100
AcDbBlockReference
  2
SKSGACE010_5
 10
-49.00000106
 20
2.00000108
 30
0.0
 50
180.0
  0
INSERT
  5
158
330
1F
100
AcDbEntity
  8
0
100
AcDbBlockReference
  2
TI_SOT_23_5_DBV_6
 10
-39.37
 20
6.985
 30
0.0
 50
360.0
  0
INSERT
  5
164
330
1F
100
AcDbEntity
  8
0
100
AcDbBlockReference
  2
CAP_0603_1608_7
 10
-12.954
 20
11.938
 30
0.0
 50
180.0
  0
INSERT
  5
170
330
1F
100
AcDbEntity
  8
0
100
AcDbBlockReference
  2
CAP_0603_1608_8
 10
-39.37
 20
10.033
 30
0.0
 50
360.0
  0
INSERT
  5
17C
330
1F
100
AcDbEntity
  8
0
100
AcDbBlockReference
  2
CAP_0603_1608_9
 10
-39.37
 20
11.938
 30
0.0
 50
360.0
  0
INSERT
  5
188
330
1F
100
AcDbEntity
  8
0
100
AcDbBlockReference
  2
CAP_0603_1608_10
 10
-42.672
 20
4.699
 30
0.0
 50
90.0
  0
INSERT
  5
194
330
1F
100
AcDbEntity
  8
0
100
AcDbBlockReference
  2
CAP_0603_1608_11
 10
-44.577
 20
4.699
 30
0.0
 50
90.0
  0
INSERT
  5
1A0
330
1F
100
AcDbEntity
  8
0
100
AcDbBlockReference
  2
CAP_0603_1608_12
 10
-25.146
 20
4.571999999999999
 30
0.0
 50
90.0
  0
INSERT
  5
1AC
330
1F
100
AcDbEntity
  8
0
100
AcDbBlockReference
  2
CAP_0603_1608_13
 10
-18.288
 20
17.78
 30
0.0
 50
180.0
  0
INSERT
  5
1B8
330
1F
100
AcDbEntity
  8
0
100
AcDbBlockReference
  2
CAP_0603_1608_14
 10
-35.306
 20
5.206999999999999
 30
0.0
 50
270.0
  0
INSERT
  5
1CC
330
1F
100
AcDbEntity
  8
0
100
AcDbBlockReference
  2
SOT143B_15
 10
-43.942
 20
11.43
 30
0.0
 50
270.0
  0
INSERT
  5
1D8
330
1F
100
AcDbEntity
  8
0
100
AcDbBlockReference
  2
ABRACON_ABS07_16
 10
-32.766
 20
6.604
 30
0.0
 50
90.0
  0
INSERT
  5
2E0
330
1F
100
AcDbEntity
  8
0
100
AcDbBlockReference
  2
SI_LABS_QFN_64_17
 10
-24.638
 20
11.684
 30
0.0
 50
90.0
  0
INSERT
  5
2EC
330
1F
100
AcDbEntity
  8
0
100
AcDbBlockReference
  2
RES_0603_1608_18
 10
-37.084
 20
18.923
 30
0.0
 50
90.0
  0
INSERT
  5
2F8
330
1F
100
AcDbEntity
  8
0
100
AcDbBlockReference
  2
RES_0603_1608_19
 10
-15.875
 20
11.938
 30
0.0
 50
360.0
  0
INSERT
  5
304
330
1F
100
AcDbEntity
  8
0
100
AcDbBlockReference
  2
RES_0603_1608_20
 10
-32.512
 20
18.796
 30
0.0
 50
180.0
  0
INSERT
  5
310
330
1F
100
AcDbEntity
  8
0
100
AcDbBlockReference
  2
RES_0603_1608_21
 10
-44.45
 20
8.636000000000001
 30
0.0
 50
360.0
  0
INSERT
  5
31C
330
1F
100
AcDbEntity
  8
0
100
AcDbBlockReference
  2
RES_0603_1608_22
 10
-44.45
 20
14.224
 30
0.0
 50
180.0
  0
INSERT
  5
32A
330
1F
100
AcDbEntity
  8
0
100
AcDbBlockReference
  2
HDR2X5_23
 10
-1.27
 20
6.35
 30
0.0
 50
90.0
  0
INSERT
  5
33E
330
1F
100
AcDbEntity
  8
0
100
AcDbBlockReference
  2
HDR1X16_24
 10
-44.45
 20
1.27
 30
0.0
 50
360.0
  0
INSERT
  5
34E
330
1F
100
AcDbEntity
  8
0
100
AcDbBlockReference
  2
HDR1X12_25
 10
-34.29
 20
21.59
 30
0.0
 50
360.0
  0
INSERT
  5
37A
330
1F
100
AcDbEntity
  8
0
100
AcDbBlockReference
  2
FTSH_105_01_F_DV_K_TR_26
 10
-42.16399999999999
 20
19.05
 30
0.0
 50
180.0
  0
INSERT
  5
386
330
1F
100
AcDbEntity
  8
0
100
AcDbBlockReference
  2
IND_W_____74404020100_27
 10
-32.512
 20
11.684
 30
0.0
 50
360.0
  0
INSERT
  5
3CC
330
1F
100
AcDbEntity
  8
0
100
AcDbBlockReference
  2
USB4110_GF_A_28
 10
-49.52999999999999
 20
11.43
 30
0.0
 50
270.0
  0
INSERT
  5
418
330
1F
100
AcDbEntity
  8
0
100
AcDbBlockReference
  2
SPANSION_WSON_8_6_5MM_29
 10
-14.859
 20
7.238999999999999
 30
0.0
 50
90.0
  0
INSERT
  5
424
330
1F
100
AcDbEntity
  8
0
100
AcDbBlockReference
  2
CAP_0603_1608_30
 10
-35.306
 20
8.001
 30
0.0
 50
90.0
  0
INSERT
  5
430
330
1F
100
AcDbEntity
  8
0
100
AcDbBlockReference
  2
CAP_0603_1608_31
 10
-33.274
 20
14.478
 30
0.0
 50
270.0
  0
INSERT
  5
43C
330
1F
100
AcDbEntity
  8
0
100
AcDbBlockReference
  2
CAP_0603_1608_32
 10
-31.496
 20
14.478
 30
0.0
 50
270.0
  0
INSERT
  5
448
330
1F
100
AcDbEntity
  8
0
100
AcDbBlockReference
  2
CAP_0603_1608_33
 10
-32.512
 20
17.018
 30
0.0
 50
360.0
  0
ENDSEC
  0
SECTION
  2
OBJECTS
  0
DICTIONARY
  5
C
330
0
100
AcDbDictionary
  3
ACAD_GROUP
350
D
  3
ACAD_LAYOUT
350
1A
  3
ACAD_MATERIAL
350
43
  3
ACAD_MLEADERSTYLE
350
6B
  3
ACAD_MLINESTYLE
350
17
  3
ACAD_PLOTSETTINGS
350
19
  3
ACAD_SCALELIST
350
47
  3
ACAD_VISUALSTYLE
350
2A
  3
ACDBHEADERROUNDTRIPXREC
350
449
  3
ACDBVARIABLEDICTIONARY
350
46A
  0
DICTIONARY
  5
473
330
8
100
AcDbDictionary
280
     1
  3
ACAD_XREC_ROUNDTRIP
360
474
  0
DICTIONARY
  5
D
102
{ACAD_REACTORS
330
C
102
}
330
C
100
AcDbDictionary
  0
DICTIONARY
  5
1A
102
{ACAD_REACTORS
330
C
102
}
330
C
100
AcDbDictionary
  0
DICTIONARY
  5
43
102
{ACAD_REACTORS
330
C
102
}
330
C
100
AcDbDictionary
  3
BYBLOCK
350
45
  3
BYLAYER
350
44
  3
GLOBAL
350
46
  0
DICTIONARY
  5
6B
102
{ACAD_REACTORS
330
C
102
}
330
C
100
AcDbDictionary
  3
STANDARD
350
6C
  0
DICTIONARY
  5
17
102
{ACAD_REACTORS
330
C
102
}
330
C
100
AcDbDictionary
  3
STANDARD
350
18
  0
DICTIONARY
  5
19
102
{ACAD_REACTORS
330
C
102
}
330
C
100
AcDbDictionary
  0
DICTIONARY
  5
47
102
{ACAD_REACTORS
330
C
102
}
330
C
100
AcDbDictionary
  3
A0
350
48
  3
A1
350
49
  3
A2
350
4A
  3
A3
350
4B
  3
A4
350
4C
  3
A5
350
4D
  3
A6
350
4E
  3
A7
350
4F
  3
A8
350
50
  3
A9
350
51
  3
B0
350
52
  3
B1
350
53
  3
B2
350
54
  3
B3
350
55
  3
B4
350
56
  3
B5
350
57
  3
B6
350
58
  3
B7
350
59
  3
B8
350
5A
  3
B9
350
5B
  3
C0
350
5C
  3
C1
350
5D
  3
C2
350
5E
  3
C3
350
5F
  3
C4
350
60
  3
C5
350
61
  3
C6
350
62
  3
C7
350
63
  3
C8
350
64
  3
C9
350
65
  3
D0
350
66
  3
D1
350
67
  3
D2
350
68
  0
DICTIONARY
  5
2A
102
{ACAD_REACTORS
330
C
102
}
330
C
100
AcDbDictionary
  3
2DWIREFRAME
350
2F
  3
BASIC
350
32
  3
BRIGHTEN
350
36
  3
COLORCHANGE
350
3A
  3
CONCEPTUAL
350
34
  3
DIM
350
35
  3
EDGECOLOROFF
350
3D
  3
FACEPATTERN
350
39
  3
FLAT
350
2B
  3
FLATWITHEDGES
350
2C
  3
GOURAUD
350
2D
  3
GOURAUDWITHEDGES
350
2E
  3
HIDDEN
350
31
  3
JITTEROFF
350
3B
  3
LINEPATTERN
350
38
  3
OVERHANGOFF
350
3C
  3
REALISTIC
350
33
  3
SHADED
350
42
  3
SHADED_WITH_EDGES
350
41
  3
SHADES_OF_GRAY
350
3E
  3
SKETCHY
350
3F
  3
THICKEN
350
37
  3
WIREFRAME
350
30
  3
X-RAY
350
40
  0
DICTIONARY
  5
449
102
{ACAD_REACTORS
330
C
102
}
330
C
100
AcDbDictionary
  3
CEPSNID
350
453
  3
CEPSNTYPE
350
452
  3
DIMSTYLEDATA
350
469
  3
FINGERPRINTGUID
350
454
  3
HYPERLINKBASE
350
44C
  3
INSUNITS
350
451
  3
LAYOUTDICT
350
44E
  3
LWETCUNION
350
450
  3
PLOTSETDICT
350
44F
  3
PSVPSCALE
350
456
  3
PUCSBASE
350
459
  3
PUCSORGBACK
350
45F
  3
PUCSORGBOTTOM
350
45B
  3
PUCSORGFRONT
350
45E
  3
PUCSORGLEFT
350
45C
  3
PUCSORGRIGHT
350
45D
  3
PUCSORGTOP
350
45A
  3
PUCSORTHOREF
350
457
  3
PUCSORTHOVIEW
350
458
  3
STYLESHEET
350
44D
  3
TSTACKALIGN
350
44A
  3
TSTACKSIZE
350
44B
  3
UCSBASE
350
462
  3
UCSORGBACK
350
468
  3
UCSORGBOTTOM
350
464
  3
UCSORGFRONT
350
467
  3
UCSORGLEFT
350
465
  3
UCSORGRIGHT
350
466
  3
UCSORGTOP
350
463
  3
UCSORTHOREF
350
460
  3
UCSORTHOVIEW
350
461
  3
VERSIONGUID
350
455
  0
DICTIONARY
  5
46A
102
{ACAD_REACTORS
330
C
102
}
330
C
100
AcDbDictionary
  3
CANNOSCALE
350
475
  3
CMLEADERSTYLE
350
46C
  3
CTABLESTYLE
350
46B
  3
DIMASSOC
350
471
  3
HIDETEXT
350
472
  3
MSLTSCALE
350
476
  3
PSOLHEIGHT
350
46E
  3
PSOLWIDTH
350
46D
  0
XRECORD
  5
474
102
{ACAD_REACTORS
330
473
102
}
330
473
100
AcDbXrecord
102
VTR_0.000_0.000_1.000_1.000_GRIDDISPLAY
 70
     3
102
VTR_0.000_0.000_1.000_1.000_GRIDMAJOR
 70
     5
102
VTR_0.000_0.000_1.000_1.000_DEFAULTLIGHTING
280
     1
102
VTR_0.000_0.000_1.000_1.000_DEFAULTLIGHTINGTYPE
 70
     1
102
VTR_0.000_0.000_1.000_1.000_BRIGHTNESS
141
0.0
102
VTR_0.000_0.000_1.000_1.000_CONTRAST
142
0.0
  0
MATERIAL
  5
45
102
{ACAD_REACTORS
330
43
102
}
102
{ACAD_XDICTIONARY
360
479
102
}
330
43
100
AcDbMaterial
  1
BYBLOCK
  0
MATERIAL
  5
44
102
{ACAD_REACTORS
330
43
102
}
102
{ACAD_XDICTIONARY
360
477
102
}
330
43
100
AcDbMaterial
  1
BYLAYER
  0
MATERIAL
  5
46
102
{ACAD_REACTORS
330
43
102
}
102
{ACAD_XDICTIONARY
360
47B
102
}
330
43
100
AcDbMaterial
  1
GLOBAL
  0
ACAD_PROXY_OBJECT
  5
6C
102
{ACAD_REACTORS
330
6B
102
}
330
6B
100
AcDbProxyObject
 90
      499
 91
      505
 93
      610
310
40901902A4063FBFFFFFE0000000000000020400000000000020404214DD185B99185C990000000000000104090141901A00000000000004100000000000000041025764000000000000039000
340
14
340
0
340
11
340
0
 94
        0
1001
ACAD_MLEADERVER
1070
     2
  0
MLINESTYLE
  5
18
102
{ACAD_REACTORS
330
17
102
}
330
17
100
AcDbMlineStyle
  2
Standard
 70
     0
  3

 62
   256
 51
90.0
 52
90.0
 71
     2
 49
0.5
 62
   256
  6
BYLAYER
 49
-0.5
 62
   256
  6
BYLAYER
  0
ACAD_PROXY_OBJECT
  5
48
102
{ACAD_REACTORS
330
47
102
}
330
47
100
AcDbProxyObject
 90
      499
 91
      503
 93
       41
310
903313A31580
  0
ACAD_PROXY_OBJECT
  5
49
102
{ACAD_REACTORS
330
47
102
}
330
47
100
AcDbProxyObject
 90
      499
 91
      503
 93
      105
310
903313A324000000000000004000
  0
ACAD_PROXY_OBJECT
  5
4A
102
{ACAD_REACTORS
330
47
102
}
330
47
100
AcDbProxyObject
 90
      499
 91
      503
 93
      105
310
903313A344000000000000104000
  0
ACAD_PROXY_OBJECT
  5
4B
102
{ACAD_REACTORS
330
47
102
}
330
47
100
AcDbProxyObject
 90
      499
 91
      503
 93
      105
310
903313A354000000000000144000
  0
ACAD_PROXY_OBJECT
  5
4C
102
{ACAD_REACTORS
330
47
102
}
330
47
100
AcDbProxyObject
 90
      499
 91
      503
 93
      105
310
903313A384000000000000204000
  0
ACAD_PROXY_OBJECT
  5
4D
102
{ACAD_REACTORS
330
47
102
}
330
47
100
AcDbProxyObject
 90
      499
 91
      503
 93
      113
310
904313A31304000000000000244000
  0
ACAD_PROXY_OBJECT
  5
4E
102
{ACAD_REACTORS
330
47
102
}
330
47
100
AcDbProxyObject
 90
      499
 91
      503
 93
      113
310
904313A31364000000000000304000
  0
ACAD_PROXY_OBJECT
  5
4F
102
{ACAD_REACTORS
330
47
102
}
330
47
100
AcDbProxyObject
 90
      499
 91
      503
 93
      113
310
904313A32304000000000000344000
  0
ACAD_PROXY_OBJECT
  5
50
102
{ACAD_REACTORS
330
47
102
}
330
47
100
AcDbProxyObject
 90
      499
 91
      503
 93
      113
310
904313A333040000000000003E4000
  0
ACAD_PROXY_OBJECT
  5
51
102
{ACAD_REACTORS
330
47
102
}
330
47
100
AcDbProxyObject
 90
      499
 91
      503
 93
      113
310
904313A34304000000000000444000
  0
ACAD_PROXY_OBJECT
  5
52
102
{ACAD_REACTORS
330
47
102
}
330
47
100
AcDbProxyObject
 90
      499
 91
      503
 93
      113
310
904313A35304000000000000494000
  0
ACAD_PROXY_OBJECT
  5
53
102
{ACAD_REACTORS
330
47
102
}
330
47
100
AcDbProxyObject
 90
      499
 91
      503
 93
      121
310
905313A3130304000000000000594000
  0
ACAD_PROXY_OBJECT
  5
54
102
{ACAD_REACTORS
330
47
102
}
330
47
100
AcDbProxyObject
 90
      499
 91
      503
 93
      105
310
903323A310000000000000010100
  0
ACAD_PROXY_OBJECT
  5
55
102
{ACAD_REACTORS
330
47
102
}
330
47
100
AcDbProxyObject
 90
      499
 91
      503
 93
      105
310
903343A310000000000000410100
  0
ACAD_PROXY_OBJECT
  5
56
102
{ACAD_REACTORS
330
47
102
}
330
47
100
AcDbProxyObject
 90
      499
 91
      503
 93
      105
310
903383A310000000000000810100
  0
ACAD_PROXY_OBJECT
  5
57
102
{ACAD_REACTORS
330
47
102
}
330
47
100
AcDbProxyObject
 90
      499
 91
      503
 93
      113
310
90431303A310000000000000910100
  0
ACAD_PROXY_OBJECT
  5
58
102
{ACAD_REACTORS
330
47
102
}
330
47
100
AcDbProxyObject
 90
      499
 91
      503
 93
      121
310
9053130303A310000000000001650100
  0
ACAD_PROXY_OBJECT
  5
59
102
{ACAD_REACTORS
330
47
102
}
330
47
100
AcDbProxyObject
 90
      499
 91
      503
 93
      257
310
90E312F31323822203D2031272D3022000000000000200FC000000000000284000
  0
ACAD_PROXY_OBJECT
  5
5A
102
{ACAD_REACTORS
330
47
102
}
330
47
100
AcDbProxyObject
 90
      499
 91
      503
 93
      249
310
90D312F363422203D2031272D3022000000000000240FC000000000000284000
  0
ACAD_PROXY_OBJECT
  5
5B
102
{ACAD_REACTORS
330
47
102
}
330
47
100
AcDbProxyObject
 90
      499
 91
      503
 93
      249
310
90D312F333222203D2031272D3022000000000000280FC000000000000284000
  0
ACAD_PROXY_OBJECT
  5
5C
102
{ACAD_REACTORS
330
47
102
}
330
47
100
AcDbProxyObject
 90
      499
 91
      503
 93
      249
310
90D312F313622203D2031272D30220000000000002C0FC000000000000284000
  0
ACAD_PROXY_OBJECT
  5
5D
102
{ACAD_REACTORS
330
47
102
}
330
47
100
AcDbProxyObject
 90
      499
 91
      503
 93
      249
310
90D332F333222203D2031272D30220000000000002E0FC000000000000284000
  0
ACAD_PROXY_OBJECT
  5
5E
102
{ACAD_REACTORS
330
47
102
}
330
47
100
AcDbProxyObject
 90
      499
 91
      503
 93
      241
310
90C312F3822203D2031272D3022000000000000300FC000000000000284000
  0
ACAD_PROXY_OBJECT
  5
5F
102
{ACAD_REACTORS
330
47
102
}
330
47
100
AcDbProxyObject
 90
      499
 91
      503
 93
      249
310
90D332F313622203D2031272D3022000000000000320FC000000000000284000
  0
ACAD_PROXY_OBJECT
  5
60
102
{ACAD_REACTORS
330
47
102
}
330
47
100
AcDbProxyObject
 90
      499
 91
      503
 93
      241
310
90C312F3422203D2031272D3022000000000000340FC000000000000284000
  0
ACAD_PROXY_OBJECT
  5
61
102
{ACAD_REACTORS
330
47
102
}
330
47
100
AcDbProxyObject
 90
      499
 91
      503
 93
      241
310
90C332F3822203D2031272D3022000000000000360FC000000000000284000
  0
ACAD_PROXY_OBJECT
  5
62
102
{ACAD_REACTORS
330
47
102
}
330
47
100
AcDbProxyObject
 90
      499
 91
      503
 93
      241
310
90C312F3222203D2031272D3022000000000000380FC000000000000284000
  0
ACAD_PROXY_OBJECT
  5
63
102
{ACAD_REACTORS
330
47
102
}
330
47
100
AcDbProxyObject
 90
      499
 91
      503
 93
      241
310
90C332F3422203D2031272D30220000000000003A0FC000000000000284000
  0
ACAD_PROXY_OBJECT
  5
64
102
{ACAD_REACTORS
330
47
102
}
330
47
100
AcDbProxyObject
 90
      499
 91
      503
 93
      161
310
90A3122203D2031272D30224000000000000284000
  0
ACAD_PROXY_OBJECT
  5
65
102
{ACAD_REACTORS
330
47
102
}
330
47
100
AcDbProxyObject
 90
      499
 91
      503
 93
      257
310
90E312D312F3222203D2031272D30220000000000003E0FC000000000000284000
  0
ACAD_PROXY_OBJECT
  5
66
102
{ACAD_REACTORS
330
47
102
}
330
47
100
AcDbProxyObject
 90
      499
 91
      503
 93
      225
310
90A3322203D2031272D302200000000000002100000000000000284000
  0
ACAD_PROXY_OBJECT
  5
67
102
{ACAD_REACTORS
330
47
102
}
330
47
100
AcDbProxyObject
 90
      499
 91
      503
 93
      225
310
90A3622203D2031272D302200000000000006100000000000000284000
  0
ACAD_PROXY_OBJECT
  5
68
102
{ACAD_REACTORS
330
47
102
}
330
47
100
AcDbProxyObject
 90
      499
 91
      503
 93
      249
310
90D31272D3022203D2031272D30220000000000000A100000000000000284000
  0
ACAD_PROXY_OBJECT
  5
2F
102
{ACAD_REACTORS
330
2A
102
}
330
2A
100
AcDbProxyObject
 90
      499
 91
      501
 93
      436
310
42CC9915DA5C99599C985B595049028333333333333E33F0000000000000F90107901411070040501600405405064090741402480A0340
1001
ACAD
1000
AcDbSavedByObjectVersion
1070
     0
  0
ACAD_PROXY_OBJECT
  5
32
102
{ACAD_REACTORS
330
2A
102
}
330
2A
100
AcDbProxyObject
 90
      499
 91
      501
 93
      388
310
4150985CDA58D07406404333333333333E33F0000000000000F90107A41107004050150841D405064090741402480A0350
1001
ACAD
1000
AcDbSavedByObjectVersion
1070
     0
  0
ACAD_PROXY_OBJECT
  5
36
102
{ACAD_REACTORS
330
2A
102
}
330
2A
100
AcDbProxyObject
 90
      499
 91
      501
 93
      428
310
42109C9A59DA1D195B90C409028333333333333E33F0000000000000F9010790141107004050150841D405064090741402480A029950
1001
ACAD
1000
AcDbSavedByObjectVersion
1070
     0
  0
ACAD_PROXY_OBJECT
  5
3A
102
{ACAD_REACTORS
330
2A
102
}
330
2A
100
AcDbProxyObject
 90
      499
 91
      501
 93
      452
310
42D0DBDB1BDC90DA185B99D95104090240C333333333333E33F0000000000000F90108901411070040501508421405064090741402480A0350
1001
ACAD
1000
AcDbSavedByObjectVersion
1070
     0
  0
ACAD_PROXY_OBJECT
  5
34
102
{ACAD_REACTORS
330
2A
102
}
330
2A
100
AcDbProxyObject
 90
      499
 91
      501
 93
      500
310
4290DBDB98D95C1D1D585B10940D028333333333333E33F0000000000000F90107902409070040501000000000018199010841D405064090740C02480A0340
1001
ACAD
1000
AcDbSavedByObjectVersion
1070
     0
  0
ACAD_PROXY_OBJECT
  5
35
102
{ACAD_REACTORS
330
2A
102
}
330
2A
100
AcDbProxyObject
 90
      499
 91
      501
 93
      412
310
40D11A5B50B409028333333333333E33F0000000000000F9010790141107004050150841D405064090741402480A02677FFFFFD0
1001
ACAD
1000
AcDbSavedByObjectVersion
1070
     0
  0
ACAD_PROXY_OBJECT
  5
3D
102
{ACAD_REACTORS
330
2A
102
}
330
2A
100
AcDbProxyObject
 90
      499
 91
      501
 93
      452
310
43115919D950DBDB1BDC93D999916409028333333333333E33F0000000000000F9010790141107004050150841D405064090741402480A0350
1001
ACAD
1000
AcDbSavedByObjectVersion
1070
     0
  0
ACAD_PROXY_OBJECT
  5
39
102
{ACAD_REACTORS
330
2A
102
}
330
2A
100
AcDbProxyObject
 90
      499
 91
      501
 93
      444
310
42D19858D95C185D1D195C9B90F409028333333333333E33F0000000000000F9010790141107004050150841D405064090741402480A0350
1001
ACAD
1000
AcDbSavedByObjectVersion
1070
     0
  0
ACAD_PROXY_OBJECT
  5
2B
102
{ACAD_REACTORS
330
2A
102
}
330
2A
100
AcDbProxyObject
 90
      499
 91
      501
 93
      380
310
41119B185D240901404333333333333E33F0000000000000F9010740A907004050150841D405064090741402480A1B50
1001
ACAD
1000
AcDbSavedByObjectVersion
1070
     0
  0
ACAD_PROXY_OBJECT
  5
2C
102
{ACAD_REACTORS
330
2A
102
}
330
2A
100
AcDbProxyObject
 90
      499
 91
      501
 93
      468
310
43519B185D15DA5D1A115919D95CD0140901404333333333333E33F0000000000000F90107409019070040501600405405064090741402480A1B50
1001
ACAD
1000
AcDbSavedByObjectVersion
1070
     0
  0
ACAD_PROXY_OBJECT
  5
2D
102
{ACAD_REACTORS
330
2A
102
}
330
2A
100
AcDbProxyObject
 90
      499
 91
      501
 93
      404
310
41D1DBDD5C985D5910240902404333333333333E33F0000000000000F9010740A9070040501641D405064090741402480A1B50
1001
ACAD
1000
AcDbSavedByObjectVersion
1070
     0
  0
ACAD_PROXY_OBJECT
  5
2E
102
{ACAD_REACTORS
330
2A
102
}
330
2A
100
AcDbProxyObject
 90
      499
 91
      501
 93
      492
310
4411DBDD5C985D5915DA5D1A115919D95CD0340902404333333333333E33F0000000000000F90107409019070040501600405405064090741402480A1B50
1001
ACAD
1000
AcDbSavedByObjectVersion
1070
     0
  0
ACAD_PROXY_OBJECT
  5
31
102
{ACAD_REACTORS
330
2A
102
}
330
2A
100
AcDbProxyObject
 90
      499
 91
      501
 93
      476
310
41921A5919195B90640502408333333333333E33F0000000000000F901079024090700405020000000000001110200405405064090740C02480A0340
1001
ACAD
1000
AcDbSavedByObjectVersion
1070
     0
  0
ACAD_PROXY_OBJECT
  5
3B
102
{ACAD_REACTORS
330
2A
102
}
330
2A
100
AcDbProxyObject
 90
      499
 91
      501
 93
      428
310
42529A5D1D195C93D999914409028333333333333E33F0000000000000F9010790141107004050150A41D405064090741402480A0350
1001
ACAD
1000
AcDbSavedByObjectVersion
1070
     0
  0
ACAD_PROXY_OBJECT
  5
38
102
{ACAD_REACTORS
330
2A
102
}
330
2A
100
AcDbProxyObject
 90
      499
 91
      501
 93
      444
310
42D31A5B995C185D1D195C9B90E409028333333333333E33F0000000000000F9010790141107004050750841D405064090741402483A0350
1001
ACAD
1000
AcDbSavedByObjectVersion
1070
     0
  0
ACAD_PROXY_OBJECT
  5
3C
102
{ACAD_REACTORS
330
2A
102
}
330
2A
100
AcDbProxyObject
 90
      499
 91
      501
 93
      444
310
42D3DD995C9A185B99D3D999915409028333333333333E33F0000000000000F9010790141107004050150941D405064090741402480A0350
1001
ACAD
1000
AcDbSavedByObjectVersion
1070
     0
  0
ACAD_PROXY_OBJECT
  5
33
102
{ACAD_REACTORS
330
2A
102
}
330
2A
100
AcDbProxyObject
 90
      499
 91
      501
 93
      428
310
425499585B1A5CDD1A58D08409038333333333333E33F0000000000000F9010740A907004050150800405405064090740C02480A1B40
1001
ACAD
1000
AcDbSavedByObjectVersion
1070
     0
  0
ACAD_PROXY_OBJECT
  5
42
102
{ACAD_REACTORS
330
2A
102
}
330
2A
100
AcDbProxyObject
 90
      499
 91
      501
 93
      420
310
4194DA1859195911B40902404333333333333E33F0000000000000F9010740A41107004050150800405405064090840C02480A0B40
1001
ACAD
1000
AcDbSavedByObjectVersion
1070
     0
  0
ACAD_PROXY_OBJECT
  5
41
102
{ACAD_REACTORS
330
2A
102
}
330
2A
100
AcDbProxyObject
 90
      499
 91
      501
 93
      516
310
4454DA18591959081DDA5D1A08195919D95CD1A40902404333333333333E33F0000000000000F901074090142907004050250800405405064090740C02480A0B40
1001
ACAD
1000
AcDbSavedByObjectVersion
1070
     0
  0
ACAD_PROXY_OBJECT
  5
3E
102
{ACAD_REACTORS
330
2A
102
}
330
2A
100
AcDbProxyObject
 90
      499
 91
      501
 93
      532
310
4394DA1859195CC81BD98811DC985E5174090240C333333333333E33F0000000000000F901079024090741D01000000000000111010841D405064090740C02480A0340
1001
ACAD
1000
AcDbSavedByObjectVersion
1070
     0
  0
ACAD_PROXY_OBJECT
  5
3F
102
{ACAD_REACTORS
330
2A
102
}
330
2A
100
AcDbProxyObject
 90
      499
 91
      501
 93
      476
310
41D4DAD95D18DA1E51840502408333333333333E33F0000000000000F901079024090741D01000000000000111010B41D405064090741802480A0340
1001
ACAD
1000
AcDbSavedByObjectVersion
1070
     0
  0
ACAD_PROXY_OBJECT
  5
37
102
{ACAD_REACTORS
330
2A
102
}
330
2A
100
AcDbProxyObject
 90
      499
 91
      501
 93
      412
310
41D51A1A58DAD95B90D409028333333333333E33F0000000000000F9010790141107004050150C41D405064090741402480A0350
1001
ACAD
1000
AcDbSavedByObjectVersion
1070
     0
  0
ACAD_PROXY_OBJECT
  5
30
102
{ACAD_REACTORS
330
2A
102
}
330
2A
100
AcDbProxyObject
 90
      499
 91
      501
 93
      420
310
4255DA5C99599C985B595059028333333333333E33F0000000000000F90107901411070040501600405405064090740C02480A0340
1001
ACAD
1000
AcDbSavedByObjectVersion
1070
     0
  0
ACAD_PROXY_OBJECT
  5
40
102
{ACAD_REACTORS
330
2A
102
}
330
2A
100
AcDbProxyObject
 90
      499
 91
      501
 93
      404
310
41560B54985E51940902404000000000000E03F0000000000000F9010740501907004050150841D405064090740C02480A1B40
1001
ACAD
1000
AcDbSavedByObjectVersion
1070
     0
  0
XRECORD
  5
453
102
{ACAD_REACTORS
330
449
102
}
330
449
100
AcDbXrecord
340
0
  0
XRECORD
  5
452
102
{ACAD_REACTORS
330
449
102
}
330
449
100
AcDbXrecord
 90
        0
  0
XRECORD
  5
469
102
{ACAD_REACTORS
330
449
102
}
330
449
100
AcDbXrecord
1000
DSTYLE
1002
{
1070
   340
340
11
1002
}
  0
XRECORD
  5
454
102
{ACAD_REACTORS
330
449
102
}
330
449
100
AcDbXrecord
  1
{236A7670-D591-4546-BCD1-2B4BF0CF880B}
  0
XRECORD
  5
44C
102
{ACAD_REACTORS
330
449
102
}
330
449
100
AcDbXrecord
  1

  0
XRECORD
  5
451
102
{ACAD_REACTORS
330
449
102
}
330
449
100
AcDbXrecord
 90
        4
  0
XRECORD
  5
44E
102
{ACAD_REACTORS
330
449
102
}
330
449
100
AcDbXrecord
340
1A
  0
XRECORD
  5
450
102
{ACAD_REACTORS
330
449
102
}
330
449
100
AcDbXrecord
 90
    10781
  0
XRECORD
  5
44F
102
{ACAD_REACTORS
330
449
102
}
330
449
100
AcDbXrecord
340
19
  0
XRECORD
  5
456
102
{ACAD_REACTORS
330
449
102
}
330
449
100
AcDbXrecord
 40
0.0
  0
XRECORD
  5
459
102
{ACAD_REACTORS
330
449
102
}
330
449
100
AcDbXrecord
340
0
  0
XRECORD
  5
45F
102
{ACAD_REACTORS
330
449
102
}
330
449
100
AcDbXrecord
 10
0.0
 20
0.0
 30
0.0
  0
XRECORD
  5
45B
102
{ACAD_REACTORS
330
449
102
}
330
449
100
AcDbXrecord
 10
0.0
 20
0.0
 30
0.0
  0
XRECORD
  5
45E
102
{ACAD_REACTORS
330
449
102
}
330
449
100
AcDbXrecord
 10
0.0
 20
0.0
 30
0.0
  0
XRECORD
  5
45C
102
{ACAD_REACTORS
330
449
102
}
330
449
100
AcDbXrecord
 10
0.0
 20
0.0
 30
0.0
  0
XRECORD
  5
45D
102
{ACAD_REACTORS
330
449
102
}
330
449
100
AcDbXrecord
 10
0.0
 20
0.0
 30
0.0
  0
XRECORD
  5
45A
102
{ACAD_REACTORS
330
449
102
}
330
449
100
AcDbXrecord
 10
0.0
 20
0.0
 30
0.0
  0
XRECORD
  5
457
102
{ACAD_REACTORS
330
449
102
}
330
449
100
AcDbXrecord
340
0
  0
XRECORD
  5
458
102
{ACAD_REACTORS
330
449
102
}
330
449
100
AcDbXrecord
 70
     0
  0
XRECORD
  5
44D
102
{ACAD_REACTORS
330
449
102
}
330
449
100
AcDbXrecord
  1

  0
XRECORD
  5
44A
102
{ACAD_REACTORS
330
449
102
}
330
449
100
AcDbXrecord
 90
        1
  0
XRECORD
  5
44B
102
{ACAD_REACTORS
330
449
102
}
330
449
100
AcDbXrecord
 90
       70
  0
XRECORD
  5
462
102
{ACAD_REACTORS
330
449
102
}
330
449
100
AcDbXrecord
340
0
  0
XRECORD
  5
468
102
{ACAD_REACTORS
330
449
102
}
330
449
100
AcDbXrecord
 10
0.0
 20
0.0
 30
0.0
  0
XRECORD
  5
464
102
{ACAD_REACTORS
330
449
102
}
330
449
100
AcDbXrecord
 10
0.0
 20
0.0
 30
0.0
  0
XRECORD
  5
467
102
{ACAD_REACTORS
330
449
102
}
330
449
100
AcDbXrecord
 10
0.0
 20
0.0
 30
0.0
  0
XRECORD
  5
465
102
{ACAD_REACTORS
330
449
102
}
330
449
100
AcDbXrecord
 10
0.0
 20
0.0
 30
0.0
  0
XRECORD
  5
466
102
{ACAD_REACTORS
330
449
102
}
330
449
100
AcDbXrecord
 10
0.0
 20
0.0
 30
0.0
  0
XRECORD
  5
463
102
{ACAD_REACTORS
330
449
102
}
330
449
100
AcDbXrecord
 10
0.0
 20
0.0
 30
0.0
  0
XRECORD
  5
460
102
{ACAD_REACTORS
330
449
102
}
330
449
100
AcDbXrecord
340
0
  0
XRECORD
  5
461
102
{ACAD_REACTORS
330
449
102
}
330
449
100
AcDbXrecord
 70
     0
  0
XRECORD
  5
455
102
{ACAD_REACTORS
330
449
102
}
330
449
100
AcDbXrecord
  1
{FAEB1C32-E019-11D5-929B-00C0DF256EC4}
  0
DICTIONARYVAR
  5
475
102
{ACAD_REACTORS
330
46A
102
}
330
46A
100
DictionaryVariables
280
     0
  1
1:1
  0
DICTIONARYVAR
  5
46C
102
{ACAD_REACTORS
330
46A
102
}
330
46A
100
DictionaryVariables
280
     0
  1
Standard
  0
DICTIONARYVAR
  5
46B
102
{ACAD_REACTORS
330
46A
102
}
330
46A
100
DictionaryVariables
280
     0
  1
Standard
  0
DICTIONARYVAR
  5
471
102
{ACAD_REACTORS
330
46A
102
}
330
46A
100
DictionaryVariables
280
     0
  1
2
  0
DICTIONARYVAR
  5
472
102
{ACAD_REACTORS
330
46A
102
}
330
46A
100
DictionaryVariables
280
     0
  1
1
  0
DICTIONARYVAR
  5
476
102
{ACAD_REACTORS
330
46A
102
}
330
46A
100
DictionaryVariables
280
     0
  1
1
  0
DICTIONARYVAR
  5
46E
102
{ACAD_REACTORS
330
46A
102
}
330
46A
100
DictionaryVariables
280
     0
  1
80.000000
  0
DICTIONARYVAR
  5
46D
102
{ACAD_REACTORS
330
46A
102
}
330
46A
100
DictionaryVariables
280
     0
  1
5.000000
  0
DICTIONARY
  5
479
330
45
100
AcDbDictionary
280
     1
  3
ACAD_XREC_ROUNDTRIP
360
47A
  0
DICTIONARY
  5
477
330
44
100
AcDbDictionary
280
     1
  3
ACAD_XREC_ROUNDTRIP
360
478
  0
DICTIONARY
  5
47B
330
46
100
AcDbDictionary
280
     1
  3
ACAD_XREC_ROUNDTRIP
360
47C
  0
XRECORD
  5
47A
102
{ACAD_REACTORS
330
479
102
}
330
479
100
AcDbXrecord
102
MATERIAL
148
0.0
149
0.0
149
0.0
 93
        0
 94
      127
282
     0
 72
     1
 77
     1
171
     1
175
     1
179
     1
273
     0
  0
XRECORD
  5
478
102
{ACAD_REACTORS
330
477
102
}
330
477
100
AcDbXrecord
102
MATERIAL
148
0.0
149
0.0
149
0.0
 93
        0
 94
      127
282
     0
 72
     1
 77
     1
171
     1
175
     1
179
     1
273
     0
  0
XRECORD
  5
47C
102
{ACAD_REACTORS
330
47B
102
}
330
47B
100
AcDbXrecord
102
MATERIAL
148
0.0
149
0.0
149
0.0
 93
        0
 94
      127
282
     0
 72
     1
 77
     1
171
     1
175
     1
179
     1
273
     0
  0
ENDSEC
  0
EOF
